NotoSans-CondensedThinItalic.ufo
<glyph name="period" format="2">
  <advance width="315"/>
  <unicode hex="002E"/>
  <outline>
    <contour>
      <point x="70" y="-2" type="curve" smooth="yes"/>
      <point x="111" y="-2"/>
      <point x="129" y="53"/>
      <point x="129" y="88" type="curve" smooth="yes"/>
      <point x="129" y="123"/>
      <point x="115" y="139"/>
      <point x="92" y="139" type="curve" smooth="yes"/>
      <point x="51" y="139"/>
      <point x="33" y="86"/>
      <point x="33" y="47" type="curve" smooth="yes"/>
      <point x="33" y="16"/>
      <point x="47" y="-2"/>
    </contour>
  </outline>
</glyph>
<glyph name="semicolon" format="2">
  <advance width="319"/>
  <unicode hex="003B"/>
  <outline>
    <contour>
      <point x="-92" y="-260" type="curve"/>
      <point x="-53" y="-260" type="line"/>
      <point x="25" y="-147"/>
      <point x="115" y="45"/>
      <point x="152" y="164" type="curve"/>
      <point x="143" y="186" type="line"/>
      <point x="94" y="186" type="line"/>
      <point x="61" y="53"/>
      <point x="-25" y="-141"/>
    </contour>
    <contour>
      <point x="254" y="942" type="curve" smooth="yes"/>
      <point x="295" y="942"/>
      <point x="313" y="997"/>
      <point x="313" y="1032" type="curve" smooth="yes"/>
      <point x="313" y="1067"/>
      <point x="299" y="1083"/>
      <point x="276" y="1083" type="curve" smooth="yes"/>
      <point x="236" y="1083"/>
      <point x="217" y="1030"/>
      <point x="217" y="991" type="curve" smooth="yes"/>
      <point x="217" y="961"/>
      <point x="231" y="942"/>
    </contour>
  </outline>
</glyph>
<glyph name="A" format="2">
  <advance width="668"/>
  <unicode hex="0041"/>
  <anchor x="219" y="0" name="bottom"/>
  <anchor x="494" y="1462" name="top"/>
  <anchor x="823" y="1462" name="topright"/>
  <outline>
    <contour>
      <point x="-139" y="0" type="line"/>
      <point x="-82" y="0" type="line"/>
      <point x="158" y="582" type="line"/>
      <point x="475" y="582" type="line"/>
      <point x="473" y="0" type="line"/>
      <point x="526" y="0" type="line"/>
      <point x="530" y="1468" type="line"/>
      <point x="463" y="1468" type="line"/>
    </contour>
    <contour>
      <point x="176" y="633" type="line"/>
      <point x="420" y="1239" type="line" smooth="yes"/>
      <point x="446" y="1305"/>
      <point x="465" y="1352"/>
      <point x="477" y="1389" type="curve"/>
      <point x="481" y="1389" type="line"/>
      <point x="479" y="1352"/>
      <point x="479" y="1298"/>
      <point x="479" y="1241" type="curve" smooth="yes"/>
      <point x="473" y="633" type="line"/>
    </contour>
  </outline>
</glyph>
<glyph name="H" format="2">
  <advance width="901"/>
  <unicode hex="0048"/>
  <anchor x="336" y="0" name="bottom"/>
  <anchor x="492" y="731" name="center"/>
  <anchor x="647" y="1462" name="top"/>
  <anchor x="1057" y="1462" name="topright"/>
  <outline>
    <contour>
      <point x="4" y="0" type="line"/>
      <point x="57" y="0" type="line"/>
      <point x="215" y="743" type="line"/>
      <point x="723" y="743" type="line"/>
      <point x="565" y="0" type="line"/>
      <point x="618" y="0" type="line"/>
      <point x="930" y="1462" type="line"/>
      <point x="877" y="1462" type="line"/>
      <point x="735" y="795" type="line"/>
      <point x="227" y="795" type="line"/>
      <point x="369" y="1462" type="line"/>
      <point x="315" y="1462" type="line"/>
    </contour>
  </outline>
</glyph>
<glyph name="I" format="2">
  <advance width="338"/>
  <unicode hex="0049"/>
  <anchor x="31" y="0" name="bottom"/>
  <anchor x="340" y="1462" name="top"/>
  <anchor x="494" y="1462" name="topright"/>
  <outline>
    <contour>
      <point x="4" y="0" type="line"/>
      <point x="55" y="0" type="line"/>
      <point x="367" y="1462" type="line"/>
      <point x="315" y="1462" type="line"/>
    </contour>
  </outline>
</glyph>
<glyph name="S" format="2">
  <advance width="698"/>
  <unicode hex="0053"/>
  <anchor x="236" y="0" name="bottom"/>
  <anchor x="547" y="1462" name="top"/>
  <anchor x="854" y="1462" name="topright"/>
  <outline>
    <contour>
      <point x="184" y="-20" type="curve" smooth="yes"/>
      <point x="416" y="-20"/>
      <point x="563" y="125"/>
      <point x="563" y="375" type="curve" smooth="yes"/>
      <point x="563" y="516"/>
      <point x="492" y="627"/>
      <point x="391" y="739" type="curve" smooth="yes"/>
      <point x="268" y="879"/>
      <point x="213" y="965"/>
      <point x="213" y="1110" type="curve" smooth="yes"/>
      <point x="213" y="1321"/>
      <point x="334" y="1432"/>
      <point x="510" y="1432" type="curve" smooth="yes"/>
      <point x="608" y="1432"/>
      <point x="678" y="1399"/>
      <point x="723" y="1370" type="curve"/>
      <point x="752" y="1419" type="line"/>
      <point x="707" y="1448"/>
      <point x="621" y="1483"/>
      <point x="514" y="1483" type="curve" smooth="yes"/>
      <point x="313" y="1483"/>
      <point x="158" y="1358"/>
      <point x="158" y="1106" type="curve" smooth="yes"/>
      <point x="158" y="936"/>
      <point x="229" y="844"/>
      <point x="336" y="719" type="curve" smooth="yes"/>
      <point x="453" y="584"/>
      <point x="508" y="500"/>
      <point x="508" y="373" type="curve" smooth="yes"/>
      <point x="508" y="154"/>
      <point x="387" y="31"/>
      <point x="188" y="31" type="curve" smooth="yes"/>
      <point x="82" y="31"/>
      <point x="2" y="57"/>
      <point x="-59" y="92" type="curve"/>
      <point x="-59" y="33" type="line"/>
      <point x="-6" y="6"/>
      <point x="78" y="-20"/>
    </contour>
  </outline>
</glyph>
<glyph name="X" format="2">
  <advance width="621"/>
  <unicode hex="0058"/>
  <anchor x="197" y="0" name="bottom"/>
  <anchor x="508" y="1462" name="top"/>
  <anchor x="776" y="1462" name="topright"/>
  <outline>
    <contour>
      <point x="-119" y="0" type="line"/>
      <point x="-61" y="0" type="line"/>
      <point x="338" y="707" type="line"/>
      <point x="401" y="0" type="line"/>
      <point x="455" y="0" type="line"/>
      <point x="383" y="762" type="line"/>
      <point x="766" y="1462" type="line"/>
      <point x="709" y="1462" type="line"/>
      <point x="362" y="825" type="line"/>
      <point x="295" y="1462" type="line"/>
      <point x="242" y="1462" type="line"/>
      <point x="319" y="776" type="line"/>
    </contour>
  </outline>
</glyph>
<glyph name="Y" format="2">
  <advance width="592"/>
  <unicode hex="0059"/>
  <anchor x="182" y="0" name="bottom"/>
  <anchor x="494" y="1462" name="top"/>
  <anchor x="748" y="1462" name="topright"/>
  <outline>
    <contour>
      <point x="129" y="0" type="line"/>
      <point x="182" y="0" type="line"/>
      <point x="303" y="569" type="line"/>
      <point x="764" y="1462" type="line"/>
      <point x="705" y="1462" type="line"/>
      <point x="291" y="653" type="line"/>
      <point x="221" y="1462" type="line"/>
      <point x="168" y="1462" type="line"/>
      <point x="250" y="569" type="line"/>
    </contour>
  </outline>
</glyph>
<glyph name="a" format="2">
  <advance width="776"/>
  <unicode hex="0061"/>
  <anchor x="274" y="0" name="bottom"/>
  <anchor x="504" y="1077" name="top"/>
  <anchor x="850" y="1077" name="topright"/>
  <outline>
    <contour>
      <point x="258" y="-20" type="curve" smooth="yes"/>
      <point x="375" y="-20"/>
      <point x="449" y="57"/>
      <point x="514" y="184" type="curve"/>
      <point x="518" y="184" type="line"/>
      <point x="485" y="0" type="line"/>
      <point x="528" y="0" type="line"/>
      <point x="756" y="1077" type="line"/>
      <point x="713" y="1077" type="line"/>
      <point x="674" y="909" type="line"/>
      <point x="668" y="909" type="line"/>
      <point x="655" y="1014"/>
      <point x="602" y="1098"/>
      <point x="489" y="1098" type="curve" smooth="yes"/>
      <point x="205" y="1098"/>
      <point x="59" y="602"/>
      <point x="59" y="283" type="curve" smooth="yes"/>
      <point x="59" y="86"/>
      <point x="131" y="-20"/>
    </contour>
    <contour>
      <point x="264" y="31" type="curve" smooth="yes"/>
      <point x="176" y="31"/>
      <point x="115" y="104"/>
      <point x="115" y="287" type="curve" smooth="yes"/>
      <point x="115" y="573"/>
      <point x="248" y="1047"/>
      <point x="487" y="1047" type="curve" smooth="yes"/>
      <point x="578" y="1047"/>
      <point x="631" y="969"/>
      <point x="631" y="852" type="curve" smooth="yes"/>
      <point x="631" y="737"/>
      <point x="602" y="592"/>
      <point x="569" y="459" type="curve" smooth="yes"/>
      <point x="514" y="238"/>
      <point x="426" y="31"/>
    </contour>
  </outline>
</glyph>
<glyph name="o" format="2">
  <advance width="735"/>
  <unicode hex="006F"/>
  <anchor x="254" y="0" name="bottom"/>
  <anchor x="369" y="539" name="center"/>
  <anchor x="483" y="1077" name="top"/>
  <anchor x="809" y="1077" name="topright"/>
  <outline>
    <contour>
      <point x="268" y="-20" type="curve" smooth="yes"/>
      <point x="549" y="-20"/>
      <point x="678" y="481"/>
      <point x="678" y="795" type="curve" smooth="yes"/>
      <point x="678" y="1006"/>
      <point x="602" y="1098"/>
      <point x="475" y="1098" type="curve" smooth="yes"/>
      <point x="162" y="1098"/>
      <point x="57" y="528"/>
      <point x="57" y="281" type="curve" smooth="yes"/>
      <point x="57" y="68"/>
      <point x="139" y="-20"/>
    </contour>
    <contour>
      <point x="270" y="31" type="curve" smooth="yes"/>
      <point x="168" y="31"/>
      <point x="113" y="113"/>
      <point x="113" y="281" type="curve" smooth="yes"/>
      <point x="113" y="506"/>
      <point x="221" y="1047"/>
      <point x="471" y="1047" type="curve" smooth="yes"/>
      <point x="571" y="1047"/>
      <point x="623" y="963"/>
      <point x="623" y="795" type="curve" smooth="yes"/>
      <point x="623" y="526"/>
      <point x="512" y="31"/>
    </contour>
  </outline>
</glyph>
<glyph name="sterling" format="2">
  <advance width="707"/>
  <unicode hex="00A3"/>
  <outline>
    <contour>
      <point x="-68" y="0" type="line"/>
      <point x="514" y="0" type="line"/>
      <point x="524" y="51" type="line"/>
      <point x="47" y="51" type="line"/>
      <point x="102" y="84"/>
      <point x="166" y="156"/>
      <point x="211" y="371" type="curve" smooth="yes"/>
      <point x="281" y="696" type="line"/>
      <point x="502" y="696" type="line"/>
      <point x="512" y="748" type="line"/>
      <point x="291" y="748" type="line"/>
      <point x="381" y="1180" type="line" smooth="yes"/>
      <point x="414" y="1333"/>
      <point x="457" y="1432"/>
      <point x="598" y="1432" type="curve" smooth="yes"/>
      <point x="678" y="1432"/>
      <point x="725" y="1397"/>
      <point x="762" y="1362" type="curve"/>
      <point x="797" y="1401" type="line"/>
      <point x="756" y="1442"/>
      <point x="698" y="1483"/>
      <point x="602" y="1483" type="curve" smooth="yes"/>
      <point x="424" y="1483"/>
      <point x="367" y="1364"/>
      <point x="328" y="1180" type="curve" smooth="yes"/>
      <point x="236" y="748" type="line"/>
      <point x="90" y="748" type="line"/>
      <point x="80" y="696" type="line"/>
      <point x="227" y="696" type="line"/>
      <point x="158" y="371" type="line" smooth="yes"/>
      <point x="113" y="156"/>
      <point x="47" y="74"/>
      <point x="-57" y="45" type="curve"/>
    </contour>
  </outline>
</glyph>
<glyph name="currency" format="2">
  <advance width="1165"/>
  <unicode hex="00A4"/>
  <outline>
    <contour>
      <point x="1012" y="272" type="line"/>
      <point x="1044" y="303" type="line"/>
      <point x="889" y="459" type="line"/>
      <point x="956" y="539"/>
      <point x="989" y="635"/>
      <point x="989" y="725" type="curve" smooth="yes"/>
      <point x="989" y="817"/>
      <point x="956" y="913"/>
      <point x="889" y="989" type="curve"/>
      <point x="1042" y="1141" type="line"/>
      <point x="1010" y="1171" type="line"/>
      <point x="854" y="1020" type="line"/>
      <point x="774" y="1087"/>
      <point x="680" y="1120"/>
      <point x="592" y="1120" type="curve" smooth="yes"/>
      <point x="504" y="1120"/>
      <point x="410" y="1085"/>
      <point x="330" y="1018" type="curve"/>
      <point x="172" y="1174" type="line"/>
      <point x="141" y="1143" type="line"/>
      <point x="295" y="987" type="line"/>
      <point x="229" y="909"/>
      <point x="197" y="815"/>
      <point x="197" y="725" type="curve" smooth="yes"/>
      <point x="197" y="635"/>
      <point x="229" y="539"/>
      <point x="295" y="459" type="curve"/>
      <point x="143" y="307" type="line"/>
      <point x="174" y="274" type="line"/>
      <point x="330" y="428" type="line"/>
      <point x="406" y="360"/>
      <point x="500" y="328"/>
      <point x="592" y="328" type="curve" smooth="yes"/>
      <point x="682" y="328"/>
      <point x="778" y="360"/>
      <point x="854" y="426" type="curve"/>
    </contour>
    <contour>
      <point x="590" y="375" type="curve" smooth="yes"/>
      <point x="401" y="375"/>
      <point x="244" y="526"/>
      <point x="244" y="725" type="curve" smooth="yes"/>
      <point x="240" y="913"/>
      <point x="408" y="1079"/>
      <point x="594" y="1075" type="curve" smooth="yes"/>
      <point x="774" y="1079"/>
      <point x="950" y="909"/>
      <point x="944" y="727" type="curve" smooth="yes"/>
      <point x="944" y="543"/>
      <point x="788" y="375"/>
    </contour>
  </outline>
</glyph>
<glyph name="dieresis" format="2">
  <advance width="961"/>
  <unicode hex="00A8"/>
  <outline>
    <contour>
      <point x="688" y="1325" type="curve" smooth="yes"/>
      <point x="723" y="1325"/>
      <point x="741" y="1378"/>
      <point x="741" y="1411" type="curve" smooth="yes"/>
      <point x="741" y="1442"/>
      <point x="727" y="1458"/>
      <point x="705" y="1458" type="curve" smooth="yes"/>
      <point x="670" y="1458"/>
      <point x="651" y="1407"/>
      <point x="651" y="1372" type="curve" smooth="yes"/>
      <point x="651" y="1341"/>
      <point x="666" y="1325"/>
    </contour>
    <contour>
      <point x="430" y="1325" type="curve" smooth="yes"/>
      <point x="465" y="1325"/>
      <point x="483" y="1378"/>
      <point x="483" y="1411" type="curve" smooth="yes"/>
      <point x="483" y="1442"/>
      <point x="469" y="1458"/>
      <point x="446" y="1458" type="curve" smooth="yes"/>
      <point x="412" y="1458"/>
      <point x="393" y="1407"/>
      <point x="393" y="1372" type="curve" smooth="yes"/>
      <point x="393" y="1341"/>
      <point x="408" y="1325"/>
    </contour>
  </outline>
</glyph>
<glyph name="micro" format="2">
  <advance width="741"/>
  <unicode hex="00B5"/>
  <outline>
    <contour>
      <point x="-96" y="-492" type="line"/>
      <point x="-43" y="-492" type="line"/>
      <point x="55" y="-23" type="line" smooth="yes"/>
      <point x="63" y="18"/>
      <point x="72" y="59"/>
      <point x="78" y="100" type="curve"/>
      <point x="82" y="100" type="line"/>
      <point x="98" y="37"/>
      <point x="145" y="-20"/>
      <point x="246" y="-20" type="curve" smooth="yes"/>
      <point x="348" y="-20"/>
      <point x="414" y="37"/>
      <point x="459" y="133" type="curve"/>
      <point x="463" y="133" type="line"/>
      <point x="438" y="0" type="line"/>
      <point x="481" y="0" type="line"/>
      <point x="709" y="1077" type="line"/>
      <point x="655" y="1077" type="line"/>
      <point x="530" y="489" type="line" smooth="yes"/>
      <point x="467" y="184"/>
      <point x="401" y="31"/>
      <point x="254" y="31" type="curve" smooth="yes"/>
      <point x="162" y="31"/>
      <point x="115" y="92"/>
      <point x="115" y="186" type="curve" smooth="yes"/>
      <point x="115" y="238"/>
      <point x="127" y="303"/>
      <point x="143" y="383" type="curve" smooth="yes"/>
      <point x="289" y="1077" type="line"/>
      <point x="236" y="1077" type="line"/>
    </contour>
  </outline>
</glyph>
<glyph name="paragraph" format="2">
  <advance width="827"/>
  <unicode hex="00B6"/>
  <outline>
    <contour>
      <point x="434" y="-260" type="line"/>
      <point x="487" y="-260" type="line"/>
      <point x="487" y="1505" type="line"/>
      <point x="674" y="1505" type="line"/>
      <point x="674" y="-260" type="line"/>
      <point x="727" y="-260" type="line"/>
      <point x="727" y="1556" type="line"/>
      <point x="414" y="1556" type="line" smooth="yes"/>
      <point x="285" y="1556"/>
      <point x="197" y="1483"/>
      <point x="197" y="1227" type="curve" smooth="yes"/>
      <point x="197" y="985"/>
      <point x="285" y="918"/>
      <point x="373" y="918" type="curve" smooth="yes"/>
      <point x="397" y="918"/>
      <point x="416" y="922"/>
      <point x="434" y="932" type="curve"/>
    </contour>
  </outline>
</glyph>
<glyph name="ae" format="2">
  <advance width="1145"/>
  <unicode hex="00E6"/>
  <anchor x="459" y="0" name="bottom"/>
  <anchor x="688" y="1077" name="top"/>
  <outline>
    <contour>
      <point x="258" y="-20" type="curve" smooth="yes"/>
      <point x="375" y="-20"/>
      <point x="449" y="57"/>
      <point x="514" y="184" type="curve"/>
      <point x="518" y="184" type="line"/>
      <point x="485" y="0" type="line"/>
      <point x="528" y="0" type="line"/>
      <point x="573" y="211" type="line"/>
      <point x="592" y="53"/>
      <point x="668" y="-20"/>
      <point x="797" y="-20" type="curve" smooth="yes"/>
      <point x="877" y="-20"/>
      <point x="936" y="0"/>
      <point x="979" y="25" type="curve"/>
      <point x="979" y="84" type="line"/>
      <point x="928" y="53"/>
      <point x="870" y="31"/>
      <point x="807" y="31" type="curve" smooth="yes"/>
      <point x="678" y="31"/>
      <point x="621" y="113"/>
      <point x="621" y="301" type="curve" smooth="yes"/>
      <point x="621" y="381"/>
      <point x="627" y="451"/>
      <point x="639" y="514" type="curve"/>
      <point x="651" y="514" type="line" smooth="yes"/>
      <point x="1004" y="514"/>
      <point x="1143" y="725"/>
      <point x="1143" y="915" type="curve" smooth="yes"/>
      <point x="1143" y="1047"/>
      <point x="1077" y="1098"/>
      <point x="981" y="1098" type="curve" smooth="yes"/>
      <point x="881" y="1098"/>
      <point x="786" y="1014"/>
      <point x="715" y="885" type="curve"/>
      <point x="756" y="1077" type="line"/>
      <point x="713" y="1077" type="line"/>
      <point x="674" y="909" type="line"/>
      <point x="668" y="909" type="line"/>
      <point x="655" y="1014"/>
      <point x="602" y="1098"/>
      <point x="489" y="1098" type="curve" smooth="yes"/>
      <point x="205" y="1098"/>
      <point x="59" y="602"/>
      <point x="59" y="283" type="curve" smooth="yes"/>
      <point x="59" y="86"/>
      <point x="131" y="-20"/>
    </contour>
    <contour>
      <point x="264" y="31" type="curve" smooth="yes"/>
      <point x="176" y="31"/>
      <point x="115" y="104"/>
      <point x="115" y="287" type="curve" smooth="yes"/>
      <point x="115" y="573"/>
      <point x="248" y="1047"/>
      <point x="487" y="1047" type="curve" smooth="yes"/>
      <point x="578" y="1047"/>
      <point x="631" y="969"/>
      <point x="631" y="852" type="curve" smooth="yes"/>
      <point x="631" y="737"/>
      <point x="602" y="592"/>
      <point x="569" y="459" type="curve" smooth="yes"/>
      <point x="514" y="238"/>
      <point x="426" y="31"/>
    </contour>
    <contour>
      <point x="647" y="565" type="line"/>
      <point x="700" y="834"/>
      <point x="836" y="1047"/>
      <point x="979" y="1047" type="curve" smooth="yes"/>
      <point x="1053" y="1047"/>
      <point x="1087" y="997"/>
      <point x="1087" y="913" type="curve" smooth="yes"/>
      <point x="1087" y="750"/>
      <point x="971" y="565"/>
      <point x="657" y="565" type="curve" smooth="yes"/>
    </contour>
  </outline>
</glyph>
<glyph name="eth" format="2">
  <advance width="731"/>
  <unicode hex="00F0"/>
  <anchor x="252" y="0" name="bottom"/>
  <anchor x="586" y="1573" name="top"/>
  <outline>
    <contour>
      <point x="238" y="-20" type="curve" smooth="yes"/>
      <point x="569" y="-20"/>
      <point x="645" y="524"/>
      <point x="645" y="793" type="curve" smooth="yes"/>
      <point x="645" y="1016"/>
      <point x="588" y="1233"/>
      <point x="487" y="1378" type="curve"/>
      <point x="727" y="1507" type="line"/>
      <point x="705" y="1550" type="line"/>
      <point x="459" y="1419" type="line"/>
      <point x="395" y="1489"/>
      <point x="326" y="1540"/>
      <point x="254" y="1573" type="curve"/>
      <point x="229" y="1534" type="line"/>
      <point x="303" y="1497"/>
      <point x="383" y="1438"/>
      <point x="412" y="1395" type="curve"/>
      <point x="168" y="1264" type="line"/>
      <point x="188" y="1217" type="line"/>
      <point x="440" y="1356" type="line"/>
      <point x="545" y="1210"/>
      <point x="596" y="995"/>
      <point x="596" y="754" type="curve"/>
      <point x="592" y="754" type="line"/>
      <point x="578" y="852"/>
      <point x="528" y="944"/>
      <point x="410" y="944" type="curve" smooth="yes"/>
      <point x="147" y="944"/>
      <point x="16" y="575"/>
      <point x="16" y="283" type="curve" smooth="yes"/>
      <point x="16" y="88"/>
      <point x="94" y="-20"/>
    </contour>
    <contour>
      <point x="240" y="31" type="curve" smooth="yes"/>
      <point x="135" y="31"/>
      <point x="68" y="109"/>
      <point x="68" y="285" type="curve" smooth="yes"/>
      <point x="68" y="547"/>
      <point x="180" y="893"/>
      <point x="406" y="893" type="curve" smooth="yes"/>
      <point x="512" y="893"/>
      <point x="571" y="786"/>
      <point x="571" y="627" type="curve" smooth="yes"/>
      <point x="571" y="444"/>
      <point x="487" y="31"/>
    </contour>
  </outline>
</glyph>
<glyph name="oslash" format="2">
  <advance width="743"/>
  <unicode hex="00F8"/>
  <anchor x="258" y="0" name="bottom"/>
  <anchor x="487" y="1077" name="top"/>
  <outline>
    <contour>
      <point x="45" y="-127" type="line"/>
      <point x="129" y="33" type="line"/>
      <point x="166" y="-4"/>
      <point x="213" y="-20"/>
      <point x="268" y="-20" type="curve" smooth="yes"/>
      <point x="549" y="-20"/>
      <point x="678" y="481"/>
      <point x="678" y="795" type="curve" smooth="yes"/>
      <point x="678" y="881"/>
      <point x="666" y="946"/>
      <point x="643" y="993" type="curve"/>
      <point x="739" y="1176" type="line"/>
      <point x="694" y="1200" type="line"/>
      <point x="610" y="1042" type="line"/>
      <point x="575" y="1079"/>
      <point x="530" y="1098"/>
      <point x="475" y="1098" type="curve" smooth="yes"/>
      <point x="162" y="1098"/>
      <point x="57" y="528"/>
      <point x="57" y="281" type="curve" smooth="yes"/>
      <point x="57" y="193"/>
      <point x="72" y="127"/>
      <point x="96" y="78" type="curve"/>
      <point x="0" y="-102" type="line"/>
    </contour>
    <contour>
      <point x="270" y="31" type="curve" smooth="yes"/>
      <point x="223" y="31"/>
      <point x="184" y="49"/>
      <point x="158" y="86" type="curve"/>
      <point x="608" y="928" type="line"/>
      <point x="618" y="893"/>
      <point x="623" y="848"/>
      <point x="623" y="795" type="curve" smooth="yes"/>
      <point x="623" y="526"/>
      <point x="512" y="31"/>
    </contour>
    <contour>
      <point x="131" y="141" type="line"/>
      <point x="119" y="178"/>
      <point x="113" y="225"/>
      <point x="113" y="281" type="curve" smooth="yes"/>
      <point x="113" y="506"/>
      <point x="221" y="1047"/>
      <point x="471" y="1047" type="curve" smooth="yes"/>
      <point x="520" y="1047"/>
      <point x="557" y="1028"/>
      <point x="582" y="989" type="curve"/>
    </contour>
  </outline>
</glyph>
<glyph name="thorn" format="2">
  <advance width="766"/>
  <unicode hex="00FE"/>
  <anchor x="170" y="-467" name="bottom"/>
  <anchor x="600" y="1556" name="top"/>
  <outline>
    <contour>
      <point x="-84" y="-467" type="line"/>
      <point x="-31" y="-467" type="line"/>
      <point x="55" y="-66" type="line" smooth="yes"/>
      <point x="72" y="8"/>
      <point x="88" y="92"/>
      <point x="98" y="154" type="curve"/>
      <point x="102" y="154" type="line"/>
      <point x="117" y="55"/>
      <point x="172" y="-20"/>
      <point x="281" y="-20" type="curve" smooth="yes"/>
      <point x="565" y="-20"/>
      <point x="711" y="475"/>
      <point x="711" y="795" type="curve" smooth="yes"/>
      <point x="711" y="991"/>
      <point x="639" y="1098"/>
      <point x="512" y="1098" type="curve" smooth="yes"/>
      <point x="397" y="1098"/>
      <point x="319" y="1016"/>
      <point x="256" y="891" type="curve"/>
      <point x="252" y="891" type="line"/>
      <point x="258" y="918"/>
      <point x="264" y="942"/>
      <point x="276" y="995" type="curve" smooth="yes"/>
      <point x="395" y="1556" type="line"/>
      <point x="342" y="1556" type="line"/>
    </contour>
    <contour>
      <point x="283" y="31" type="curve" smooth="yes"/>
      <point x="193" y="31"/>
      <point x="139" y="109"/>
      <point x="139" y="225" type="curve" smooth="yes"/>
      <point x="139" y="293"/>
      <point x="160" y="467"/>
      <point x="205" y="637" type="curve" smooth="yes"/>
      <point x="262" y="844"/>
      <point x="358" y="1047"/>
      <point x="506" y="1047" type="curve" smooth="yes"/>
      <point x="594" y="1047"/>
      <point x="655" y="973"/>
      <point x="655" y="791" type="curve" smooth="yes"/>
      <point x="655" y="504"/>
      <point x="522" y="31"/>
    </contour>
  </outline>
</glyph>
<glyph name="Hbar" format="2">
  <advance width="881"/>
  <unicode hex="0126"/>
  <anchor x="326" y="0" name="bottom"/>
  <anchor x="637" y="1462" name="top"/>
  <outline>
    <contour>
      <point x="4" y="0" type="line"/>
      <point x="57" y="0" type="line"/>
      <point x="215" y="743" type="line"/>
      <point x="723" y="743" type="line"/>
      <point x="565" y="0" type="line"/>
      <point x="618" y="0" type="line"/>
      <point x="854" y="1110" type="line"/>
      <point x="973" y="1110" type="line"/>
      <point x="983" y="1161" type="line"/>
      <point x="866" y="1161" type="line"/>
      <point x="930" y="1462" type="line"/>
      <point x="877" y="1462" type="line"/>
      <point x="813" y="1161" type="line"/>
      <point x="305" y="1161" type="line"/>
      <point x="369" y="1462" type="line"/>
      <point x="315" y="1462" type="line"/>
      <point x="252" y="1161" type="line"/>
      <point x="100" y="1161" type="line"/>
      <point x="92" y="1110" type="line"/>
      <point x="240" y="1110" type="line"/>
    </contour>
    <contour>
      <point x="227" y="795" type="line"/>
      <point x="295" y="1110" type="line"/>
      <point x="803" y="1110" type="line"/>
      <point x="735" y="795" type="line"/>
    </contour>
  </outline>
</glyph>
<glyph name="oe" format="2">
  <advance width="1182"/>
  <unicode hex="0153"/>
  <anchor x="477" y="0" name="bottom"/>
  <anchor x="707" y="1077" name="top"/>
  <outline>
    <contour>
      <point x="268" y="-20" type="curve" smooth="yes"/>
      <point x="414" y="-20"/>
      <point x="516" y="115"/>
      <point x="582" y="289" type="curve"/>
      <point x="582" y="78"/>
      <point x="655" y="-20"/>
      <point x="805" y="-20" type="curve" smooth="yes"/>
      <point x="885" y="-20"/>
      <point x="944" y="0"/>
      <point x="987" y="25" type="curve"/>
      <point x="987" y="84" type="line"/>
      <point x="936" y="53"/>
      <point x="879" y="31"/>
      <point x="815" y="31" type="curve" smooth="yes"/>
      <point x="686" y="31"/>
      <point x="629" y="113"/>
      <point x="629" y="301" type="curve" smooth="yes"/>
      <point x="629" y="381"/>
      <point x="635" y="451"/>
      <point x="647" y="514" type="curve"/>
      <point x="659" y="514" type="line" smooth="yes"/>
      <point x="1012" y="514"/>
      <point x="1151" y="725"/>
      <point x="1151" y="915" type="curve" smooth="yes"/>
      <point x="1151" y="1047"/>
      <point x="1085" y="1098"/>
      <point x="989" y="1098" type="curve" smooth="yes"/>
      <point x="862" y="1098"/>
      <point x="745" y="973"/>
      <point x="670" y="784" type="curve"/>
      <point x="672" y="991"/>
      <point x="614" y="1098"/>
      <point x="475" y="1098" type="curve" smooth="yes"/>
      <point x="162" y="1098"/>
      <point x="57" y="528"/>
      <point x="57" y="301" type="curve" smooth="yes"/>
      <point x="57" y="68"/>
      <point x="139" y="-20"/>
    </contour>
    <contour>
      <point x="272" y="31" type="curve" smooth="yes"/>
      <point x="170" y="31"/>
      <point x="113" y="106"/>
      <point x="113" y="301" type="curve" smooth="yes"/>
      <point x="113" y="520"/>
      <point x="213" y="1047"/>
      <point x="471" y="1047" type="curve" smooth="yes"/>
      <point x="571" y="1047"/>
      <point x="623" y="963"/>
      <point x="623" y="795" type="curve" smooth="yes"/>
      <point x="623" y="526"/>
      <point x="514" y="31"/>
    </contour>
    <contour>
      <point x="655" y="565" type="line"/>
      <point x="709" y="834"/>
      <point x="844" y="1047"/>
      <point x="987" y="1047" type="curve" smooth="yes"/>
      <point x="1061" y="1047"/>
      <point x="1096" y="997"/>
      <point x="1096" y="913" type="curve" smooth="yes"/>
      <point x="1096" y="750"/>
      <point x="979" y="565"/>
      <point x="666" y="565" type="curve" smooth="yes"/>
    </contour>
  </outline>
</glyph>
<glyph name="longs" format="2">
  <advance width="293"/>
  <unicode hex="017F"/>
  <anchor x="-72" y="-492" name="bottom"/>
  <anchor x="367" y="1567" name="top"/>
  <outline>
    <contour>
      <point x="-219" y="-492" type="curve" smooth="yes"/>
      <point x="-78" y="-492"/>
      <point x="-31" y="-369"/>
      <point x="2" y="-219" type="curve"/>
      <point x="324" y="1284" type="line"/>
      <point x="356" y="1432"/>
      <point x="391" y="1516"/>
      <point x="487" y="1516" type="curve" smooth="yes"/>
      <point x="518" y="1516"/>
      <point x="549" y="1507"/>
      <point x="569" y="1497" type="curve"/>
      <point x="590" y="1546" type="line"/>
      <point x="571" y="1554"/>
      <point x="528" y="1567"/>
      <point x="496" y="1567" type="curve" smooth="yes"/>
      <point x="369" y="1567"/>
      <point x="315" y="1481"/>
      <point x="274" y="1300" type="curve"/>
      <point x="-51" y="-213" type="line"/>
      <point x="-80" y="-346"/>
      <point x="-115" y="-440"/>
      <point x="-219" y="-440" type="curve" smooth="yes"/>
      <point x="-256" y="-440"/>
      <point x="-274" y="-436"/>
      <point x="-297" y="-428" type="curve"/>
      <point x="-297" y="-479" type="line"/>
      <point x="-281" y="-485"/>
      <point x="-256" y="-492"/>
    </contour>
  </outline>
</glyph>
<glyph name="uni0187" format="2">
  <advance width="684"/>
  <unicode hex="0187"/>
  <anchor x="227" y="0" name="bottom"/>
  <anchor x="539" y="1462" name="top"/>
  <outline>
    <contour>
      <point x="375" y="-20" type="curve" smooth="yes"/>
      <point x="426" y="-20"/>
      <point x="473" y="-10"/>
      <point x="528" y="8" type="curve"/>
      <point x="528" y="63" type="line"/>
      <point x="469" y="41"/>
      <point x="422" y="31"/>
      <point x="379" y="31" type="curve" smooth="yes"/>
      <point x="211" y="31"/>
      <point x="131" y="156"/>
      <point x="131" y="459" type="curve" smooth="yes"/>
      <point x="131" y="809"/>
      <point x="311" y="1434"/>
      <point x="680" y="1434" type="curve" smooth="yes"/>
      <point x="750" y="1434"/>
      <point x="803" y="1409"/>
      <point x="840" y="1376" type="curve"/>
      <point x="891" y="1610" type="line" smooth="yes"/>
      <point x="905" y="1679"/>
      <point x="930" y="1714"/>
      <point x="991" y="1714" type="curve" smooth="yes"/>
      <point x="1024" y="1714"/>
      <point x="1047" y="1708"/>
      <point x="1069" y="1698" type="curve"/>
      <point x="1069" y="1751" type="line"/>
      <point x="1049" y="1759"/>
      <point x="1024" y="1765"/>
      <point x="989" y="1765" type="curve" smooth="yes"/>
      <point x="899" y="1765"/>
      <point x="860" y="1698"/>
      <point x="842" y="1622" type="curve" smooth="yes"/>
      <point x="803" y="1458" type="line"/>
      <point x="774" y="1475"/>
      <point x="735" y="1485"/>
      <point x="684" y="1485" type="curve" smooth="yes"/>
      <point x="256" y="1485"/>
      <point x="76" y="813"/>
      <point x="76" y="459" type="curve" smooth="yes"/>
      <point x="76" y="119"/>
      <point x="178" y="-20"/>
    </contour>
  </outline>
</glyph>
<glyph name="uni018E" format="2">
  <advance width="682"/>
  <unicode hex="018E"/>
  <anchor x="227" y="0" name="bottom"/>
  <anchor x="539" y="1462" name="top"/>
  <outline>
    <contour>
      <point x="-74" y="0" type="line"/>
      <point x="387" y="0" type="line"/>
      <point x="698" y="1462" type="line"/>
      <point x="238" y="1462" type="line"/>
      <point x="227" y="1411" type="line"/>
      <point x="635" y="1411" type="line"/>
      <point x="506" y="797" type="line"/>
      <point x="125" y="797" type="line"/>
      <point x="113" y="745" type="line"/>
      <point x="494" y="745" type="line"/>
      <point x="344" y="51" type="line"/>
      <point x="-63" y="51" type="line"/>
    </contour>
  </outline>
</glyph>
<glyph name="florin" format="2">
  <advance width="694"/>
  <unicode hex="0192"/>
  <anchor x="129" y="-489" name="bottom"/>
  <anchor x="549" y="1479" name="top"/>
  <outline>
    <contour>
      <point x="-12" y="-489" type="curve" smooth="yes"/>
      <point x="129" y="-489"/>
      <point x="176" y="-367"/>
      <point x="209" y="-217" type="curve" smooth="yes"/>
      <point x="440" y="858" type="line"/>
      <point x="616" y="858" type="line"/>
      <point x="627" y="909" type="line"/>
      <point x="451" y="909" type="line"/>
      <point x="512" y="1196" type="line" smooth="yes"/>
      <point x="543" y="1343"/>
      <point x="580" y="1427"/>
      <point x="676" y="1427" type="curve" smooth="yes"/>
      <point x="707" y="1427"/>
      <point x="737" y="1419"/>
      <point x="758" y="1409" type="curve"/>
      <point x="778" y="1458" type="line"/>
      <point x="760" y="1466"/>
      <point x="717" y="1479"/>
      <point x="684" y="1479" type="curve" smooth="yes"/>
      <point x="557" y="1479"/>
      <point x="502" y="1393"/>
      <point x="463" y="1212" type="curve" smooth="yes"/>
      <point x="397" y="911" type="line"/>
      <point x="233" y="899" type="line"/>
      <point x="225" y="858" type="line"/>
      <point x="387" y="858" type="line"/>
      <point x="156" y="-211" type="line" smooth="yes"/>
      <point x="127" y="-344"/>
      <point x="92" y="-438"/>
      <point x="-12" y="-438" type="curve" smooth="yes"/>
      <point x="-49" y="-438"/>
      <point x="-68" y="-434"/>
      <point x="-90" y="-426" type="curve"/>
      <point x="-90" y="-477" type="line"/>
      <point x="-74" y="-483"/>
      <point x="-49" y="-489"/>
    </contour>
  </outline>
</glyph>
<glyph name="uni0197" format="2">
  <advance width="412"/>
  <unicode hex="0197"/>
  <anchor x="92" y="0" name="bottom"/>
  <anchor x="403" y="1462" name="top"/>
  <outline>
    <contour>
      <point x="-119" y="0" type="line"/>
      <point x="172" y="0" type="line"/>
      <point x="180" y="39" type="line"/>
      <point x="63" y="45" type="line"/>
      <point x="211" y="741" type="line"/>
      <point x="340" y="741" type="line"/>
      <point x="350" y="793" type="line"/>
      <point x="221" y="793" type="line"/>
      <point x="354" y="1415" type="line"/>
      <point x="475" y="1423" type="line"/>
      <point x="483" y="1462" type="line"/>
      <point x="193" y="1462" type="line"/>
      <point x="184" y="1423" type="line"/>
      <point x="303" y="1415" type="line"/>
      <point x="170" y="793" type="line"/>
      <point x="35" y="793" type="line"/>
      <point x="25" y="741" type="line"/>
      <point x="160" y="741" type="line"/>
      <point x="12" y="45" type="line"/>
      <point x="-111" y="39" type="line"/>
    </contour>
  </outline>
</glyph>
<glyph name="uni0198" format="2">
  <advance width="791"/>
  <unicode hex="0198"/>
  <anchor x="240" y="0" name="bottom"/>
  <anchor x="551" y="1462" name="top"/>
  <outline>
    <contour>
      <point x="4" y="0" type="line"/>
      <point x="57" y="0" type="line"/>
      <point x="180" y="578" type="line"/>
      <point x="338" y="772" type="line"/>
      <point x="510" y="0" type="line"/>
      <point x="569" y="0" type="line"/>
      <point x="381" y="819" type="line"/>
      <point x="748" y="1319" type="line" smooth="yes"/>
      <point x="803" y="1395"/>
      <point x="834" y="1423"/>
      <point x="881" y="1423" type="curve" smooth="yes"/>
      <point x="897" y="1423"/>
      <point x="907" y="1421"/>
      <point x="920" y="1417" type="curve"/>
      <point x="920" y="1468" type="line"/>
      <point x="913" y="1470"/>
      <point x="899" y="1475"/>
      <point x="879" y="1475" type="curve" smooth="yes"/>
      <point x="803" y="1475"/>
      <point x="770" y="1432"/>
      <point x="698" y="1335" type="curve" smooth="yes"/>
      <point x="338" y="848" type="line"/>
      <point x="197" y="651" type="line"/>
      <point x="369" y="1462" type="line"/>
      <point x="315" y="1462" type="line"/>
    </contour>
  </outline>
</glyph>
<glyph name="uni0199" format="2">
  <advance width="606"/>
  <unicode hex="0199"/>
  <anchor x="188" y="0" name="bottom"/>
  <anchor x="522" y="1565" name="top"/>
  <outline>
    <contour>
      <point x="10" y="0" type="line"/>
      <point x="63" y="0" type="line"/>
      <point x="145" y="387" type="line"/>
      <point x="322" y="608" type="line"/>
      <point x="420" y="0" type="line"/>
      <point x="473" y="0" type="line"/>
      <point x="367" y="662" type="line"/>
      <point x="680" y="1077" type="line"/>
      <point x="621" y="1077" type="line"/>
      <point x="166" y="479" type="line"/>
      <point x="164" y="479" type="line"/>
      <point x="184" y="567"/>
      <point x="201" y="643"/>
      <point x="221" y="739" type="curve" smooth="yes"/>
      <point x="356" y="1374" type="line" smooth="yes"/>
      <point x="377" y="1470"/>
      <point x="412" y="1513"/>
      <point x="500" y="1513" type="curve" smooth="yes"/>
      <point x="528" y="1513"/>
      <point x="553" y="1507"/>
      <point x="569" y="1501" type="curve"/>
      <point x="569" y="1554" type="line"/>
      <point x="553" y="1561"/>
      <point x="528" y="1565"/>
      <point x="500" y="1565" type="curve" smooth="yes"/>
      <point x="375" y="1565"/>
      <point x="328" y="1493"/>
      <point x="303" y="1376" type="curve" smooth="yes"/>
    </contour>
  </outline>
</glyph>
<glyph name="Ohorn" format="2">
  <advance width="909"/>
  <unicode hex="01A0"/>
  <anchor x="340" y="0" name="bottom"/>
  <anchor x="651" y="1462" name="top"/>
  <outline>
    <contour>
      <point x="328" y="-20" type="curve" smooth="yes"/>
      <point x="719" y="-20"/>
      <point x="868" y="739"/>
      <point x="868" y="1110" type="curve" smooth="yes"/>
      <point x="868" y="1145"/>
      <point x="866" y="1178"/>
      <point x="864" y="1206" type="curve"/>
      <point x="1001" y="1233"/>
      <point x="1071" y="1335"/>
      <point x="1108" y="1542" type="curve"/>
      <point x="1100" y="1556" type="line"/>
      <point x="1061" y="1556" type="line"/>
      <point x="1024" y="1356"/>
      <point x="965" y="1272"/>
      <point x="858" y="1249" type="curve"/>
      <point x="829" y="1413"/>
      <point x="745" y="1483"/>
      <point x="614" y="1483" type="curve" smooth="yes"/>
      <point x="233" y="1483"/>
      <point x="70" y="758"/>
      <point x="70" y="381" type="curve" smooth="yes"/>
      <point x="70" y="106"/>
      <point x="160" y="-20"/>
    </contour>
    <contour>
      <point x="334" y="31" type="curve" smooth="yes"/>
      <point x="199" y="31"/>
      <point x="125" y="135"/>
      <point x="125" y="385" type="curve" smooth="yes"/>
      <point x="125" y="711"/>
      <point x="276" y="1432"/>
      <point x="610" y="1432" type="curve" smooth="yes"/>
      <point x="750" y="1432"/>
      <point x="813" y="1337"/>
      <point x="813" y="1106" type="curve" smooth="yes"/>
      <point x="813" y="756"/>
      <point x="666" y="31"/>
    </contour>
  </outline>
</glyph>
<glyph name="uni01AA" format="2">
  <advance width="330"/>
  <unicode hex="01AA"/>
  <anchor x="-53" y="-492" name="bottom"/>
  <anchor x="387" y="1577" name="top"/>
  <outline>
    <contour>
      <point x="68" y="-492" type="curve" smooth="yes"/>
      <point x="100" y="-492"/>
      <point x="127" y="-483"/>
      <point x="137" y="-479" type="curve"/>
      <point x="137" y="-428" type="line"/>
      <point x="121" y="-434"/>
      <point x="102" y="-440"/>
      <point x="72" y="-440" type="curve" smooth="yes"/>
      <point x="29" y="-440"/>
      <point x="6" y="-418"/>
      <point x="6" y="-373" type="curve" smooth="yes"/>
      <point x="6" y="-344"/>
      <point x="12" y="-307"/>
      <point x="18" y="-279" type="curve" smooth="yes"/>
      <point x="348" y="1282" type="line" smooth="yes"/>
      <point x="358" y="1333"/>
      <point x="362" y="1370"/>
      <point x="362" y="1415" type="curve" smooth="yes"/>
      <point x="362" y="1542"/>
      <point x="303" y="1577"/>
      <point x="221" y="1577" type="curve" smooth="yes"/>
      <point x="88" y="1577"/>
      <point x="25" y="1452"/>
      <point x="25" y="1315" type="curve" smooth="yes"/>
      <point x="25" y="1198"/>
      <point x="82" y="1128"/>
      <point x="205" y="1128" type="curve" smooth="yes"/>
      <point x="262" y="1128" type="line"/>
      <point x="-35" y="-279" type="line" smooth="yes"/>
      <point x="-41" y="-309"/>
      <point x="-47" y="-348"/>
      <point x="-47" y="-377" type="curve" smooth="yes"/>
      <point x="-47" y="-449"/>
      <point x="-12" y="-492"/>
    </contour>
    <contour>
      <point x="215" y="1180" type="line" smooth="yes"/>
      <point x="119" y="1180"/>
      <point x="80" y="1223"/>
      <point x="80" y="1317" type="curve" smooth="yes"/>
      <point x="80" y="1423"/>
      <point x="123" y="1526"/>
      <point x="219" y="1526" type="curve" smooth="yes"/>
      <point x="274" y="1526"/>
      <point x="309" y="1495"/>
      <point x="309" y="1407" type="curve" smooth="yes"/>
      <point x="309" y="1366"/>
      <point x="303" y="1321"/>
      <point x="295" y="1282" type="curve" smooth="yes"/>
      <point x="272" y="1180" type="line"/>
    </contour>
  </outline>
</glyph>
<glyph name="uni01AD" format="2">
  <advance width="371"/>
  <unicode hex="01AD"/>
  <anchor x="72" y="0" name="bottom"/>
  <anchor x="406" y="1565" name="top"/>
  <outline>
    <contour>
      <point x="150" y="-20" type="curve" smooth="yes"/>
      <point x="184" y="-20"/>
      <point x="209" y="-14"/>
      <point x="231" y="-6" type="curve"/>
      <point x="231" y="43" type="line"/>
      <point x="213" y="37"/>
      <point x="190" y="31"/>
      <point x="158" y="31" type="curve" smooth="yes"/>
      <point x="106" y="31"/>
      <point x="84" y="61"/>
      <point x="84" y="115" type="curve" smooth="yes"/>
      <point x="84" y="152"/>
      <point x="94" y="207"/>
      <point x="109" y="279" type="curve" smooth="yes"/>
      <point x="268" y="1026" type="line"/>
      <point x="399" y="1026" type="line"/>
      <point x="410" y="1077" type="line"/>
      <point x="279" y="1077" type="line"/>
      <point x="340" y="1372" type="line" smooth="yes"/>
      <point x="360" y="1468"/>
      <point x="395" y="1513"/>
      <point x="483" y="1513" type="curve" smooth="yes"/>
      <point x="512" y="1513"/>
      <point x="537" y="1507"/>
      <point x="553" y="1501" type="curve"/>
      <point x="553" y="1554" type="line"/>
      <point x="537" y="1561"/>
      <point x="512" y="1565"/>
      <point x="483" y="1565" type="curve" smooth="yes"/>
      <point x="358" y="1565"/>
      <point x="311" y="1491"/>
      <point x="287" y="1374" type="curve" smooth="yes"/>
      <point x="223" y="1079" type="line"/>
      <point x="129" y="1073" type="line"/>
      <point x="119" y="1026" type="line"/>
      <point x="215" y="1026" type="line"/>
      <point x="55" y="283" type="line" smooth="yes"/>
      <point x="41" y="217"/>
      <point x="31" y="152"/>
      <point x="31" y="109" type="curve" smooth="yes"/>
      <point x="31" y="25"/>
      <point x="76" y="-20"/>
    </contour>
  </outline>
</glyph>
<glyph name="uni01BB" format="2">
  <advance width="694"/>
  <unicode hex="01BB"/>
  <anchor x="233" y="0" name="bottom"/>
  <anchor x="567" y="1565" name="top"/>
  <outline>
    <contour>
      <point x="-94" y="0" type="line"/>
      <point x="451" y="0" type="line"/>
      <point x="459" y="51" type="line"/>
      <point x="-23" y="51" type="line"/>
      <point x="-23" y="57" type="line"/>
      <point x="483" y="752" type="line"/>
      <point x="657" y="752" type="line"/>
      <point x="670" y="799" type="line"/>
      <point x="518" y="799" type="line"/>
      <point x="584" y="885"/>
      <point x="711" y="1069"/>
      <point x="711" y="1284" type="curve" smooth="yes"/>
      <point x="711" y="1470"/>
      <point x="606" y="1565"/>
      <point x="453" y="1565" type="curve" smooth="yes"/>
      <point x="344" y="1565"/>
      <point x="268" y="1524"/>
      <point x="225" y="1491" type="curve"/>
      <point x="256" y="1446" type="line"/>
      <point x="305" y="1483"/>
      <point x="360" y="1513"/>
      <point x="446" y="1513" type="curve" smooth="yes"/>
      <point x="571" y="1513"/>
      <point x="655" y="1440"/>
      <point x="655" y="1282" type="curve" smooth="yes"/>
      <point x="655" y="1067"/>
      <point x="526" y="889"/>
      <point x="457" y="799" type="curve"/>
      <point x="193" y="799" type="line"/>
      <point x="180" y="752" type="line"/>
      <point x="420" y="752" type="line"/>
      <point x="-88" y="51" type="line"/>
    </contour>
  </outline>
</glyph>
<glyph name="uni01BE" format="2">
  <advance width="518"/>
  <unicode hex="01BE"/>
  <anchor x="145" y="0" name="bottom"/>
  <anchor x="430" y="1341" name="top"/>
  <outline>
    <contour>
      <point x="109" y="-20" type="curve" smooth="yes"/>
      <point x="279" y="-20"/>
      <point x="381" y="82"/>
      <point x="381" y="276" type="curve" smooth="yes"/>
      <point x="381" y="362"/>
      <point x="360" y="416"/>
      <point x="307" y="494" type="curve" smooth="yes"/>
      <point x="272" y="543"/>
      <point x="248" y="580"/>
      <point x="248" y="631" type="curve" smooth="yes"/>
      <point x="248" y="664"/>
      <point x="254" y="702"/>
      <point x="260" y="731" type="curve" smooth="yes"/>
      <point x="324" y="1026" type="line"/>
      <point x="455" y="1026" type="line"/>
      <point x="465" y="1077" type="line"/>
      <point x="334" y="1077" type="line"/>
      <point x="389" y="1341" type="line"/>
      <point x="346" y="1341" type="line"/>
      <point x="279" y="1079" type="line"/>
      <point x="184" y="1073" type="line"/>
      <point x="174" y="1026" type="line"/>
      <point x="270" y="1026" type="line"/>
      <point x="207" y="735" type="line" smooth="yes"/>
      <point x="199" y="700"/>
      <point x="195" y="662"/>
      <point x="195" y="625" type="curve" smooth="yes"/>
      <point x="195" y="565"/>
      <point x="217" y="524"/>
      <point x="260" y="465" type="curve" smooth="yes"/>
      <point x="307" y="399"/>
      <point x="326" y="348"/>
      <point x="326" y="274" type="curve" smooth="yes"/>
      <point x="326" y="119"/>
      <point x="258" y="31"/>
      <point x="109" y="31" type="curve" smooth="yes"/>
      <point x="27" y="31"/>
      <point x="-41" y="59"/>
      <point x="-80" y="88" type="curve"/>
      <point x="-80" y="25" type="line"/>
      <point x="-47" y="4"/>
      <point x="20" y="-20"/>
    </contour>
  </outline>
</glyph>
<glyph name="uni024E" format="2">
  <advance width="545"/>
  <unicode hex="024E"/>
  <anchor x="158" y="0" name="bottom"/>
  <anchor x="469" y="1462" name="top"/>
  <outline>
    <contour>
      <point x="129" y="0" type="line"/>
      <point x="182" y="0" type="line"/>
      <point x="303" y="569" type="line"/>
      <point x="545" y="1038" type="line"/>
      <point x="666" y="1038" type="line"/>
      <point x="676" y="1090" type="line"/>
      <point x="571" y="1090" type="line"/>
      <point x="764" y="1462" type="line"/>
      <point x="705" y="1462" type="line"/>
      <point x="514" y="1090" type="line"/>
      <point x="254" y="1090" type="line"/>
      <point x="221" y="1462" type="line"/>
      <point x="168" y="1462" type="line"/>
      <point x="203" y="1090" type="line"/>
      <point x="102" y="1090" type="line"/>
      <point x="92" y="1038" type="line"/>
      <point x="207" y="1038" type="line"/>
      <point x="250" y="569" type="line"/>
    </contour>
    <contour>
      <point x="291" y="653" type="line"/>
      <point x="258" y="1038" type="line"/>
      <point x="487" y="1038" type="line"/>
    </contour>
  </outline>
</glyph>
<glyph name="uni0260" format="2">
  <advance width="772"/>
  <unicode hex="0260"/>
  <anchor x="168" y="-492" name="bottom"/>
  <anchor x="606" y="1565" name="top"/>
  <outline>
    <contour>
      <point x="154" y="-492" type="curve" smooth="yes"/>
      <point x="365" y="-492"/>
      <point x="453" y="-348"/>
      <point x="506" y="-100" type="curve" smooth="yes"/>
      <point x="817" y="1372" type="line" smooth="yes"/>
      <point x="838" y="1468"/>
      <point x="872" y="1513"/>
      <point x="961" y="1513" type="curve" smooth="yes"/>
      <point x="989" y="1513"/>
      <point x="1014" y="1507"/>
      <point x="1030" y="1501" type="curve"/>
      <point x="1030" y="1554" type="line"/>
      <point x="1014" y="1561"/>
      <point x="989" y="1565"/>
      <point x="961" y="1565" type="curve" smooth="yes"/>
      <point x="836" y="1565"/>
      <point x="788" y="1491"/>
      <point x="764" y="1374" type="curve" smooth="yes"/>
      <point x="715" y="1143" type="line" smooth="yes"/>
      <point x="698" y="1069"/>
      <point x="684" y="989"/>
      <point x="672" y="924" type="curve"/>
      <point x="666" y="924" type="line"/>
      <point x="651" y="1022"/>
      <point x="596" y="1098"/>
      <point x="489" y="1098" type="curve"/>
      <point x="205" y="1098"/>
      <point x="59" y="602"/>
      <point x="59" y="283" type="curve" smooth="yes"/>
      <point x="59" y="86"/>
      <point x="131" y="-20"/>
      <point x="258" y="-20" type="curve" smooth="yes"/>
      <point x="375" y="-20"/>
      <point x="449" y="57"/>
      <point x="514" y="184" type="curve"/>
      <point x="518" y="184" type="line"/>
      <point x="506" y="131"/>
      <point x="494" y="76"/>
      <point x="487" y="49" type="curve" smooth="yes"/>
      <point x="459" y="-84" type="line" smooth="yes"/>
      <point x="408" y="-324"/>
      <point x="338" y="-440"/>
      <point x="154" y="-440" type="curve" smooth="yes"/>
      <point x="76" y="-440"/>
      <point x="0" y="-410"/>
      <point x="-37" y="-383" type="curve"/>
      <point x="-37" y="-442" type="line"/>
      <point x="-2" y="-463"/>
      <point x="74" y="-492"/>
    </contour>
    <contour>
      <point x="264" y="31" type="curve" smooth="yes"/>
      <point x="172" y="31"/>
      <point x="115" y="104"/>
      <point x="115" y="287" type="curve" smooth="yes"/>
      <point x="115" y="573"/>
      <point x="248" y="1047"/>
      <point x="487" y="1047" type="curve" smooth="yes"/>
      <point x="578" y="1047"/>
      <point x="631" y="969"/>
      <point x="631" y="852" type="curve" smooth="yes"/>
      <point x="631" y="717"/>
      <point x="535" y="31"/>
    </contour>
  </outline>
</glyph>
<glyph name="uni0272" format="2">
  <advance width="731"/>
  <unicode hex="0272"/>
  <anchor x="147" y="-492" name="bottom"/>
  <anchor x="481" y="1077" name="top"/>
  <anchor x="805" y="1077" name="topright"/>
  <outline>
    <contour>
      <point x="-197" y="-492" type="curve" smooth="yes"/>
      <point x="-55" y="-492"/>
      <point x="-12" y="-385"/>
      <point x="10" y="-274" type="curve" smooth="yes"/>
      <point x="190" y="588" type="line" smooth="yes"/>
      <point x="254" y="893"/>
      <point x="342" y="1047"/>
      <point x="496" y="1047" type="curve" smooth="yes"/>
      <point x="569" y="1047"/>
      <point x="616" y="1008"/>
      <point x="616" y="928" type="curve" smooth="yes"/>
      <point x="616" y="858"/>
      <point x="596" y="774"/>
      <point x="580" y="694" type="curve" smooth="yes"/>
      <point x="432" y="0" type="line"/>
      <point x="485" y="0" type="line"/>
      <point x="629" y="674" type="line" smooth="yes"/>
      <point x="647" y="758"/>
      <point x="670" y="868"/>
      <point x="670" y="932" type="curve" smooth="yes"/>
      <point x="670" y="1042"/>
      <point x="602" y="1098"/>
      <point x="502" y="1098" type="curve" smooth="yes"/>
      <point x="395" y="1098"/>
      <point x="305" y="1030"/>
      <point x="258" y="918" type="curve"/>
      <point x="254" y="918" type="line"/>
      <point x="283" y="1077" type="line"/>
      <point x="240" y="1077" type="line"/>
      <point x="-43" y="-274" type="line" smooth="yes"/>
      <point x="-66" y="-383"/>
      <point x="-104" y="-440"/>
      <point x="-197" y="-440" type="curve" smooth="yes"/>
      <point x="-227" y="-440"/>
      <point x="-246" y="-436"/>
      <point x="-266" y="-428" type="curve"/>
      <point x="-266" y="-483" type="line"/>
      <point x="-252" y="-487"/>
      <point x="-227" y="-492"/>
    </contour>
  </outline>
</glyph>
<glyph name="uni0276" format="2">
  <advance width="1049"/>
  <unicode hex="0276"/>
  <anchor x="410" y="0" name="bottom"/>
  <anchor x="639" y="1077" name="top"/>
  <outline>
    <contour>
      <point x="268" y="-20" type="curve" smooth="yes"/>
      <point x="362" y="-20"/>
      <point x="449" y="37"/>
      <point x="514" y="135" type="curve"/>
      <point x="481" y="0" type="line"/>
      <point x="858" y="0" type="line"/>
      <point x="868" y="55" type="line"/>
      <point x="549" y="55" type="line"/>
      <point x="651" y="541" type="line"/>
      <point x="938" y="541" type="line"/>
      <point x="950" y="596" type="line"/>
      <point x="664" y="596" type="line"/>
      <point x="754" y="1022" type="line"/>
      <point x="1055" y="1022" type="line"/>
      <point x="1067" y="1077" type="line"/>
      <point x="711" y="1077" type="line"/>
      <point x="676" y="915" type="line"/>
      <point x="653" y="1034"/>
      <point x="590" y="1098"/>
      <point x="485" y="1098" type="curve" smooth="yes"/>
      <point x="172" y="1098"/>
      <point x="61" y="549"/>
      <point x="61" y="270" type="curve" smooth="yes"/>
      <point x="61" y="84"/>
      <point x="129" y="-20"/>
    </contour>
    <contour>
      <point x="264" y="33" type="curve" smooth="yes"/>
      <point x="166" y="33"/>
      <point x="117" y="121"/>
      <point x="117" y="266" type="curve" smooth="yes"/>
      <point x="117" y="526"/>
      <point x="215" y="1044"/>
      <point x="473" y="1044" type="curve" smooth="yes"/>
      <point x="573" y="1044"/>
      <point x="627" y="952"/>
      <point x="627" y="803" type="curve" smooth="yes"/>
      <point x="627" y="475"/>
      <point x="496" y="33"/>
    </contour>
  </outline>
</glyph>
<glyph name="uni0281" format="2">
  <advance width="666"/>
  <unicode hex="0281"/>
  <anchor x="219" y="0" name="bottom"/>
  <anchor x="449" y="1077" name="top"/>
  <outline>
    <contour>
      <point x="14" y="0" type="line"/>
      <point x="186" y="0" type="line" smooth="yes"/>
      <point x="395" y="0"/>
      <point x="535" y="143"/>
      <point x="535" y="342" type="curve" smooth="yes"/>
      <point x="535" y="459"/>
      <point x="473" y="555"/>
      <point x="375" y="580" type="curve"/>
      <point x="723" y="1077" type="line"/>
      <point x="657" y="1077" type="line"/>
      <point x="315" y="588" type="line"/>
      <point x="190" y="588" type="line"/>
      <point x="295" y="1077" type="line"/>
      <point x="244" y="1077" type="line"/>
    </contour>
    <contour>
      <point x="78" y="59" type="line"/>
      <point x="176" y="524" type="line"/>
      <point x="279" y="524" type="line"/>
      <point x="416" y="524"/>
      <point x="479" y="471"/>
      <point x="479" y="350" type="curve" smooth="yes"/>
      <point x="479" y="162"/>
      <point x="373" y="59"/>
      <point x="207" y="59" type="curve" smooth="yes"/>
    </contour>
  </outline>
</glyph>
<glyph name="kturned" format="2">
  <advance width="573"/>
  <unicode hex="029E"/>
  <anchor x="70" y="-479" name="bottom"/>
  <anchor x="401" y="1077" name="top"/>
  <outline>
    <contour>
      <point x="201" y="-479" type="line"/>
      <point x="254" y="-479" type="line"/>
      <point x="586" y="1077" type="line"/>
      <point x="532" y="1077" type="line"/>
      <point x="451" y="690" type="line"/>
      <point x="274" y="469" type="line"/>
      <point x="176" y="1077" type="line"/>
      <point x="123" y="1077" type="line"/>
      <point x="229" y="416" type="line"/>
      <point x="-84" y="0" type="line"/>
      <point x="-25" y="0" type="line"/>
      <point x="430" y="598" type="line"/>
      <point x="432" y="598" type="line"/>
      <point x="412" y="510"/>
      <point x="395" y="434"/>
      <point x="375" y="338" type="curve" smooth="yes"/>
    </contour>
  </outline>
</glyph>
<glyph name="uni02A1" format="2">
  <advance width="481"/>
  <unicode hex="02A1"/>
  <anchor x="127" y="0" name="bottom"/>
  <anchor x="461" y="1567" name="top"/>
  <anchor x="686" y="1567" name="topright"/>
  <outline>
    <contour>
      <point x="10" y="0" type="line"/>
      <point x="63" y="0" type="line"/>
      <point x="137" y="334" type="line"/>
      <point x="305" y="334" type="line"/>
      <point x="317" y="385" type="line"/>
      <point x="150" y="385" type="line"/>
      <point x="201" y="614" type="line"/>
      <point x="477" y="899"/>
      <point x="586" y="1128"/>
      <point x="586" y="1329" type="curve" smooth="yes"/>
      <point x="586" y="1483"/>
      <point x="502" y="1567"/>
      <point x="358" y="1567" type="curve" smooth="yes"/>
      <point x="272" y="1567"/>
      <point x="205" y="1538"/>
      <point x="158" y="1501" type="curve"/>
      <point x="184" y="1458" type="line"/>
      <point x="238" y="1495"/>
      <point x="287" y="1516"/>
      <point x="356" y="1516" type="curve" smooth="yes"/>
      <point x="475" y="1516"/>
      <point x="530" y="1444"/>
      <point x="530" y="1323" type="curve" smooth="yes"/>
      <point x="530" y="1143"/>
      <point x="434" y="926"/>
      <point x="152" y="641" type="curve"/>
      <point x="94" y="385" type="line"/>
      <point x="-20" y="385" type="line"/>
      <point x="-33" y="334" type="line"/>
      <point x="84" y="334" type="line"/>
    </contour>
  </outline>
</glyph>
<glyph name="uni02AD" format="2">
  <advance width="942"/>
  <unicode hex="02AD"/>
  <anchor x="356" y="0" name="bottom"/>
  <anchor x="668" y="1462" name="top"/>
  <outline>
    <contour>
      <point x="236" y="991" type="line"/>
      <point x="289" y="991" type="line"/>
      <point x="377" y="1411" type="line"/>
      <point x="891" y="1411" type="line"/>
      <point x="801" y="991" type="line"/>
      <point x="854" y="991" type="line"/>
      <point x="956" y="1462" type="line"/>
      <point x="336" y="1462" type="line"/>
    </contour>
    <contour>
      <point x="25" y="0" type="line"/>
      <point x="78" y="0" type="line"/>
      <point x="166" y="420" type="line"/>
      <point x="680" y="420" type="line"/>
      <point x="590" y="0" type="line"/>
      <point x="643" y="0" type="line"/>
      <point x="745" y="471" type="line"/>
      <point x="125" y="471" type="line"/>
    </contour>
  </outline>
</glyph>
<glyph name="uni02C8" format="2">
  <advance width="221"/>
  <unicode hex="02C8"/>
  <outline>
    <contour>
      <point x="184" y="1016" type="line"/>
      <point x="238" y="1016" type="line"/>
      <point x="354" y="1552" type="line"/>
      <point x="301" y="1552" type="line"/>
    </contour>
  </outline>
</glyph>
<glyph name="uni02D1" format="2">
  <advance width="457"/>
  <unicode hex="02D1"/>
  <outline>
    <contour>
      <point x="289" y="840" type="line"/>
      <point x="457" y="1077" type="line"/>
      <point x="221" y="1077" type="line"/>
    </contour>
  </outline>
</glyph>
<glyph name="uni02DF" format="2">
  <advance width="475"/>
  <unicode hex="02DF"/>
  <outline>
    <contour>
      <point x="279" y="1206" type="line"/>
      <point x="403" y="1321" type="line"/>
      <point x="483" y="1206" type="line"/>
      <point x="541" y="1249" type="line"/>
      <point x="457" y="1370" type="line"/>
      <point x="596" y="1491" type="line"/>
      <point x="551" y="1540" type="line"/>
      <point x="420" y="1425" type="line"/>
      <point x="342" y="1540" type="line"/>
      <point x="285" y="1497" type="line"/>
      <point x="367" y="1378" type="line"/>
      <point x="233" y="1255" type="line"/>
    </contour>
  </outline>
</glyph>
<glyph name="uni02F0" format="2">
  <advance width="547"/>
  <unicode hex="02F0"/>
  <outline>
    <contour>
      <point x="-123" y="-426" type="line"/>
      <point x="-59" y="-426" type="line"/>
      <point x="129" y="-152" type="line"/>
      <point x="205" y="-426" type="line"/>
      <point x="260" y="-426" type="line"/>
      <point x="162" y="-72" type="line"/>
      <point x="125" y="-72" type="line"/>
    </contour>
  </outline>
</glyph>
<glyph name="uni02FE" format="2">
  <advance width="627"/>
  <unicode hex="02FE"/>
  <outline>
    <contour>
      <point x="-55" y="-385" type="line"/>
      <point x="348" y="-385" type="line"/>
      <point x="348" y="-305" type="line"/>
      <point x="25" y="-305" type="line"/>
      <point x="25" y="-102" type="line"/>
      <point x="-55" y="-102" type="line"/>
    </contour>
  </outline>
</glyph>
<glyph name="dblverticallineabovecomb" format="2">
  <unicode hex="030E"/>
  <anchor x="117" y="1077" name="_top"/>
  <anchor x="106" y="1552" name="top"/>
  <outline>
    <contour>
      <point x="233" y="1221" type="line"/>
      <point x="287" y="1221" type="line"/>
      <point x="360" y="1552" type="line"/>
      <point x="307" y="1552" type="line"/>
    </contour>
    <contour>
      <point x="8" y="1221" type="line"/>
      <point x="61" y="1221" type="line"/>
      <point x="135" y="1552" type="line"/>
      <point x="82" y="1552" type="line"/>
    </contour>
  </outline>
</glyph>
<glyph name="lefttackbelowcomb" format="2">
  <unicode hex="0318"/>
  <anchor x="-100" y="0" name="_bottom"/>
  <anchor x="-193" y="-428" name="bottom"/>
  <outline>
    <contour>
      <point x="-176" y="-428" type="line"/>
      <point x="-96" y="-428" type="line"/>
      <point x="-25" y="-76" type="line"/>
      <point x="-104" y="-76" type="line"/>
      <point x="-133" y="-211" type="line"/>
      <point x="-268" y="-211" type="line"/>
      <point x="-285" y="-293" type="line"/>
      <point x="-147" y="-293" type="line"/>
    </contour>
  </outline>
</glyph>
<glyph name="uptackbelowcomb" format="2">
  <unicode hex="031D"/>
  <anchor x="-139" y="0" name="_bottom"/>
  <anchor x="-225" y="-401" name="bottom"/>
  <outline>
    <contour>
      <point x="-326" y="-401" type="line"/>
      <point x="-76" y="-401" type="line"/>
      <point x="-59" y="-322" type="line"/>
      <point x="-141" y="-322" type="line"/>
      <point x="-94" y="-98" type="line"/>
      <point x="-178" y="-98" type="line"/>
      <point x="-225" y="-322" type="line"/>
      <point x="-307" y="-322" type="line"/>
    </contour>
  </outline>
</glyph>
<glyph name="dblarchinvertedbelowcomb" format="2">
  <unicode hex="032B"/>
  <anchor x="-98" y="0" name="_bottom"/>
  <anchor x="-170" y="-342" name="bottom"/>
  <outline>
    <contour>
      <point x="-287" y="-342" type="curve"/>
      <point x="-227" y="-342"/>
      <point x="-195" y="-309"/>
      <point x="-168" y="-248" type="curve"/>
      <point x="-160" y="-305"/>
      <point x="-123" y="-342"/>
      <point x="-72" y="-342" type="curve"/>
      <point x="-2" y="-342"/>
      <point x="61" y="-299"/>
      <point x="98" y="-125" type="curve"/>
      <point x="25" y="-125" type="line"/>
      <point x="6" y="-217"/>
      <point x="-25" y="-260"/>
      <point x="-68" y="-260" type="curve"/>
      <point x="-102" y="-260"/>
      <point x="-115" y="-244"/>
      <point x="-115" y="-205" type="curve" smooth="yes"/>
      <point x="-115" y="-182"/>
      <point x="-111" y="-158"/>
      <point x="-102" y="-125" type="curve"/>
      <point x="-180" y="-125" type="line"/>
      <point x="-199" y="-217"/>
      <point x="-229" y="-260"/>
      <point x="-274" y="-260" type="curve"/>
      <point x="-305" y="-260"/>
      <point x="-319" y="-244"/>
      <point x="-319" y="-203" type="curve" smooth="yes"/>
      <point x="-319" y="-182"/>
      <point x="-315" y="-158"/>
      <point x="-307" y="-125" type="curve"/>
      <point x="-381" y="-125" type="line"/>
      <point x="-387" y="-162"/>
      <point x="-393" y="-190"/>
      <point x="-393" y="-215" type="curve" smooth="yes"/>
      <point x="-393" y="-307"/>
      <point x="-342" y="-342"/>
    </contour>
  </outline>
</glyph>
<glyph name="slashshortoverlaycomb" format="2">
  <unicode hex="0337"/>
  <anchor x="10" y="584" name="_center"/>
  <outline>
    <contour>
      <point x="-172" y="385" type="line"/>
      <point x="221" y="743" type="line"/>
      <point x="188" y="780" type="line"/>
      <point x="-203" y="422" type="line"/>
    </contour>
  </outline>
</glyph>
<glyph name="squarebelowcomb" format="2">
  <unicode hex="033B"/>
  <anchor x="-115" y="0" name="_bottom"/>
  <anchor x="-215" y="-465" name="bottom"/>
  <outline>
    <contour>
      <point x="-512" y="-465" type="line"/>
      <point x="84" y="-465" type="line"/>
      <point x="170" y="-59" type="line"/>
      <point x="-426" y="-59" type="line"/>
    </contour>
    <contour>
      <point x="-412" y="-383" type="line"/>
      <point x="-360" y="-141" type="line"/>
      <point x="70" y="-141" type="line"/>
      <point x="18" y="-383" type="line"/>
    </contour>
  </outline>
</glyph>
<glyph name="xabovecomb" format="2">
  <unicode hex="033D"/>
  <anchor x="113" y="1077" name="_top"/>
  <anchor x="215" y="1563" name="top"/>
  <outline>
    <contour>
      <point x="16" y="1194" type="line"/>
      <point x="164" y="1315" type="line"/>
      <point x="254" y="1194" type="line"/>
      <point x="332" y="1255" type="line"/>
      <point x="236" y="1378" type="line"/>
      <point x="385" y="1499" type="line"/>
      <point x="336" y="1563" type="line"/>
      <point x="190" y="1440" type="line"/>
      <point x="96" y="1563" type="line"/>
      <point x="20" y="1499" type="line"/>
      <point x="113" y="1378" type="line"/>
      <point x="-33" y="1255" type="line"/>
    </contour>
  </outline>
</glyph>
<glyph name="nottildeabovecomb" format="2">
  <unicode hex="034A"/>
  <anchor x="102" y="1077" name="_top"/>
  <anchor x="197" y="1526" name="top"/>
  <outline>
    <contour>
      <point x="45" y="1149" type="line"/>
      <point x="162" y="1294" type="line"/>
      <point x="190" y="1268"/>
      <point x="221" y="1243"/>
      <point x="268" y="1243" type="curve" smooth="yes"/>
      <point x="354" y="1243"/>
      <point x="410" y="1307"/>
      <point x="428" y="1430" type="curve"/>
      <point x="377" y="1430" type="line"/>
      <point x="360" y="1333"/>
      <point x="326" y="1294"/>
      <point x="272" y="1294" type="curve" smooth="yes"/>
      <point x="242" y="1294"/>
      <point x="219" y="1313"/>
      <point x="197" y="1337" type="curve"/>
      <point x="326" y="1497" type="line"/>
      <point x="287" y="1526" type="line"/>
      <point x="162" y="1372" type="line"/>
      <point x="133" y="1403"/>
      <point x="100" y="1430"/>
      <point x="51" y="1430" type="curve" smooth="yes"/>
      <point x="-39" y="1430"/>
      <point x="-96" y="1370"/>
      <point x="-115" y="1241" type="curve"/>
      <point x="-63" y="1241" type="line"/>
      <point x="-49" y="1327"/>
      <point x="-20" y="1378"/>
      <point x="45" y="1378" type="curve" smooth="yes"/>
      <point x="80" y="1378"/>
      <point x="104" y="1356"/>
      <point x="129" y="1331" type="curve"/>
      <point x="6" y="1180" type="line"/>
    </contour>
  </outline>
</glyph>
<glyph name="homotheticabovecomb" format="2">
  <unicode hex="034B"/>
  <anchor x="111" y="1077" name="_top"/>
  <anchor x="250" y="1733" name="top"/>
  <outline>
    <contour>
      <point x="-78" y="1372" type="curve"/>
      <point x="-27" y="1372" type="line"/>
      <point x="-12" y="1458"/>
      <point x="16" y="1509"/>
      <point x="82" y="1509" type="curve" smooth="yes"/>
      <point x="168" y="1509"/>
      <point x="195" y="1374"/>
      <point x="305" y="1374" type="curve" smooth="yes"/>
      <point x="391" y="1374"/>
      <point x="446" y="1438"/>
      <point x="465" y="1561" type="curve"/>
      <point x="414" y="1561" type="line"/>
      <point x="397" y="1464"/>
      <point x="362" y="1425"/>
      <point x="309" y="1425" type="curve" smooth="yes"/>
      <point x="229" y="1425"/>
      <point x="197" y="1561"/>
      <point x="88" y="1561" type="curve" smooth="yes"/>
      <point x="-2" y="1561"/>
      <point x="-59" y="1501"/>
    </contour>
    <contour>
      <point x="150" y="1204" type="curve" smooth="yes"/>
      <point x="184" y="1204"/>
      <point x="203" y="1257"/>
      <point x="203" y="1290" type="curve" smooth="yes"/>
      <point x="203" y="1321"/>
      <point x="188" y="1337"/>
      <point x="166" y="1337" type="curve" smooth="yes"/>
      <point x="131" y="1337"/>
      <point x="113" y="1286"/>
      <point x="113" y="1251" type="curve" smooth="yes"/>
      <point x="113" y="1221"/>
      <point x="127" y="1204"/>
    </contour>
    <contour>
      <point x="233" y="1599" type="curve" smooth="yes"/>
      <point x="268" y="1599"/>
      <point x="287" y="1653"/>
      <point x="287" y="1686" type="curve" smooth="yes"/>
      <point x="287" y="1716"/>
      <point x="272" y="1733"/>
      <point x="250" y="1733" type="curve" smooth="yes"/>
      <point x="215" y="1733"/>
      <point x="197" y="1681"/>
      <point x="197" y="1647" type="curve" smooth="yes"/>
      <point x="197" y="1616"/>
      <point x="211" y="1599"/>
    </contour>
  </outline>
</glyph>
<glyph name="arrowleftrightbelowcomb" format="2">
  <unicode hex="034D"/>
  <anchor x="-115" y="0" name="_bottom"/>
  <anchor x="-197" y="-379" name="bottom"/>
  <outline>
    <contour>
      <point x="-266" y="-379" type="line"/>
      <point x="-246" y="-285" type="line"/>
      <point x="-109" y="-285" type="line"/>
      <point x="-129" y="-379" type="line"/>
      <point x="8" y="-264" type="line"/>
      <point x="-80" y="-143" type="line"/>
      <point x="-98" y="-236" type="line"/>
      <point x="-236" y="-236" type="line"/>
      <point x="-217" y="-143" type="line"/>
      <point x="-350" y="-260" type="line"/>
    </contour>
  </outline>
</glyph>
<glyph name="xbelowcomb" format="2">
  <unicode hex="0353"/>
  <anchor x="-115" y="0" name="_bottom"/>
  <anchor x="-199" y="-395" name="bottom"/>
  <outline>
    <contour>
      <point x="-82" y="-395" type="line"/>
      <point x="-39" y="-352" type="line"/>
      <point x="-131" y="-260" type="line"/>
      <point x="-39" y="-170" type="line"/>
      <point x="-82" y="-129" type="line"/>
      <point x="-170" y="-221" type="line"/>
      <point x="-260" y="-129" type="line"/>
      <point x="-301" y="-172" type="line"/>
      <point x="-213" y="-262" type="line"/>
      <point x="-301" y="-354" type="line"/>
      <point x="-260" y="-395" type="line"/>
      <point x="-170" y="-305" type="line"/>
    </contour>
  </outline>
</glyph>
<glyph name="doublemacroncomb" format="2">
  <unicode hex="035E"/>
  <anchor x="326" y="1077" name="_top"/>
  <anchor x="371" y="1290" name="top"/>
  <outline>
    <contour>
      <point x="-14" y="1239" type="line"/>
      <point x="733" y="1239" type="line"/>
      <point x="745" y="1290" type="line"/>
      <point x="-2" y="1290" type="line"/>
    </contour>
  </outline>
</glyph>
<glyph name="uni0375" format="2">
  <advance width="965"/>
  <unicode hex="0375"/>
  <outline>
    <contour>
      <point x="154" y="-453" type="line"/>
      <point x="207" y="-453" type="line"/>
      <point x="238" y="-360"/>
      <point x="330" y="-211"/>
      <point x="387" y="-156" type="curve"/>
      <point x="387" y="-125" type="line"/>
      <point x="367" y="-125" type="line"/>
      <point x="291" y="-197"/>
      <point x="188" y="-344"/>
      <point x="154" y="-430" type="curve"/>
    </contour>
  </outline>
</glyph>
<glyph name="Delta" format="2">
  <advance width="657"/>
  <unicode hex="0394"/>
  <anchor x="215" y="0" name="bottom"/>
  <anchor x="526" y="1462" name="top"/>
  <outline>
    <contour>
      <point x="-100" y="0" type="line"/>
      <point x="571" y="0" type="line"/>
      <point x="582" y="51" type="line"/>
      <point x="582" y="1462" type="line"/>
      <point x="512" y="1462" type="line"/>
      <point x="-90" y="51" type="line"/>
    </contour>
    <contour>
      <point x="-35" y="51" type="line"/>
      <point x="440" y="1174" type="line" smooth="yes"/>
      <point x="469" y="1239"/>
      <point x="504" y="1323"/>
      <point x="535" y="1399" type="curve"/>
      <point x="532" y="1341"/>
      <point x="532" y="1286"/>
      <point x="532" y="1210" type="curve" smooth="yes"/>
      <point x="530" y="51" type="line"/>
    </contour>
  </outline>
</glyph>
<glyph name="Phi" format="2">
  <advance width="1024"/>
  <unicode hex="03A6"/>
  <anchor x="397" y="0" name="bottom"/>
  <anchor x="709" y="1462" name="top"/>
  <outline>
    <contour>
      <point x="328" y="-20" type="line"/>
      <point x="381" y="-20" type="line"/>
      <point x="430" y="207" type="line"/>
      <point x="737" y="211"/>
      <point x="950" y="494"/>
      <point x="950" y="926" type="curve" smooth="yes"/>
      <point x="950" y="1178"/>
      <point x="829" y="1284"/>
      <point x="664" y="1303" type="curve"/>
      <point x="700" y="1483" type="line"/>
      <point x="647" y="1483" type="line"/>
      <point x="610" y="1303" type="line"/>
      <point x="293" y="1300"/>
      <point x="90" y="1026"/>
      <point x="90" y="600" type="curve" smooth="yes"/>
      <point x="90" y="350"/>
      <point x="201" y="233"/>
      <point x="377" y="207" type="curve"/>
    </contour>
    <contour>
      <point x="387" y="258" type="line"/>
      <point x="248" y="279"/>
      <point x="145" y="367"/>
      <point x="145" y="600" type="curve" smooth="yes"/>
      <point x="145" y="864"/>
      <point x="240" y="1239"/>
      <point x="600" y="1251" type="curve"/>
    </contour>
    <contour>
      <point x="440" y="258" type="curve"/>
      <point x="653" y="1251" type="line"/>
      <point x="788" y="1239"/>
      <point x="895" y="1161"/>
      <point x="895" y="926" type="curve" smooth="yes"/>
      <point x="895" y="588"/>
      <point x="748" y="266"/>
    </contour>
  </outline>
</glyph>
<glyph name="Psi" format="2">
  <advance width="971"/>
  <unicode hex="03A8"/>
  <anchor x="371" y="0" name="bottom"/>
  <anchor x="682" y="1462" name="top"/>
  <outline>
    <contour>
      <point x="307" y="0" type="line"/>
      <point x="362" y="0" type="line"/>
      <point x="459" y="465" type="line"/>
      <point x="463" y="465" type="line" smooth="yes"/>
      <point x="752" y="465"/>
      <point x="836" y="664"/>
      <point x="887" y="903" type="curve" smooth="yes"/>
      <point x="1004" y="1462" type="line"/>
      <point x="950" y="1462" type="line"/>
      <point x="838" y="922" type="line" smooth="yes"/>
      <point x="786" y="682"/>
      <point x="721" y="516"/>
      <point x="473" y="516" type="curve" smooth="yes"/>
      <point x="469" y="516" type="line"/>
      <point x="672" y="1462" type="line"/>
      <point x="616" y="1462" type="line"/>
      <point x="416" y="516" type="line"/>
      <point x="412" y="516" type="line" smooth="yes"/>
      <point x="332" y="516"/>
      <point x="203" y="553"/>
      <point x="203" y="737" type="curve" smooth="yes"/>
      <point x="203" y="811"/>
      <point x="213" y="901"/>
      <point x="240" y="1022" type="curve" smooth="yes"/>
      <point x="334" y="1462" type="line"/>
      <point x="281" y="1462" type="line"/>
      <point x="184" y="1012" type="line" smooth="yes"/>
      <point x="162" y="903"/>
      <point x="150" y="815"/>
      <point x="150" y="735" type="curve" smooth="yes"/>
      <point x="150" y="520"/>
      <point x="301" y="465"/>
      <point x="403" y="465" type="curve" smooth="yes"/>
      <point x="406" y="465" type="line"/>
    </contour>
  </outline>
</glyph>
<glyph name="delta" format="2">
  <advance width="788"/>
  <unicode hex="03B4"/>
  <anchor x="281" y="0" name="bottom"/>
  <anchor x="610" y="1550" name="top"/>
  <outline>
    <contour>
      <point x="309" y="-20" type="curve" smooth="yes"/>
      <point x="575" y="-20"/>
      <point x="676" y="260"/>
      <point x="676" y="506" type="curve" smooth="yes"/>
      <point x="676" y="686"/>
      <point x="639" y="817"/>
      <point x="545" y="965" type="curve" smooth="yes"/>
      <point x="469" y="1083"/>
      <point x="422" y="1161"/>
      <point x="422" y="1282" type="curve" smooth="yes"/>
      <point x="422" y="1419"/>
      <point x="502" y="1499"/>
      <point x="631" y="1499" type="curve" smooth="yes"/>
      <point x="715" y="1499"/>
      <point x="772" y="1468"/>
      <point x="805" y="1444" type="curve"/>
      <point x="836" y="1489" type="line"/>
      <point x="805" y="1511"/>
      <point x="737" y="1550"/>
      <point x="639" y="1550" type="curve" smooth="yes"/>
      <point x="469" y="1550"/>
      <point x="367" y="1446"/>
      <point x="367" y="1280" type="curve" smooth="yes"/>
      <point x="367" y="1147"/>
      <point x="418" y="1059"/>
      <point x="483" y="956" type="curve"/>
      <point x="219" y="838"/>
      <point x="61" y="584"/>
      <point x="61" y="281" type="curve" smooth="yes"/>
      <point x="61" y="80"/>
      <point x="164" y="-20"/>
    </contour>
    <contour>
      <point x="315" y="31" type="curve" smooth="yes"/>
      <point x="197" y="31"/>
      <point x="117" y="115"/>
      <point x="117" y="285" type="curve" smooth="yes"/>
      <point x="117" y="563"/>
      <point x="256" y="799"/>
      <point x="510" y="913" type="curve"/>
      <point x="588" y="797"/>
      <point x="621" y="668"/>
      <point x="621" y="508" type="curve" smooth="yes"/>
      <point x="621" y="311"/>
      <point x="549" y="31"/>
    </contour>
  </outline>
</glyph>
<glyph name="uni03D1" format="2">
  <advance width="829"/>
  <unicode hex="03D1"/>
  <outline>
    <contour>
      <point x="238" y="-20" type="curve" smooth="yes"/>
      <point x="498" y="-20"/>
      <point x="645" y="354"/>
      <point x="719" y="895" type="curve"/>
      <point x="846" y="895" type="line"/>
      <point x="858" y="946" type="line"/>
      <point x="725" y="946" type="line"/>
      <point x="733" y="1036"/>
      <point x="741" y="1124"/>
      <point x="741" y="1229" type="curve" smooth="yes"/>
      <point x="741" y="1491"/>
      <point x="668" y="1579"/>
      <point x="545" y="1579" type="curve" smooth="yes"/>
      <point x="375" y="1579"/>
      <point x="291" y="1413"/>
      <point x="291" y="1225" type="curve" smooth="yes"/>
      <point x="291" y="969"/>
      <point x="455" y="893"/>
      <point x="664" y="895" type="curve"/>
      <point x="594" y="381"/>
      <point x="449" y="31"/>
      <point x="246" y="31" type="curve" smooth="yes"/>
      <point x="162" y="31"/>
      <point x="115" y="80"/>
      <point x="115" y="188" type="curve" smooth="yes"/>
      <point x="115" y="285"/>
      <point x="137" y="393"/>
      <point x="176" y="508" type="curve" smooth="yes"/>
      <point x="213" y="614"/>
      <point x="248" y="711"/>
      <point x="248" y="784" type="curve" smooth="yes"/>
      <point x="248" y="868"/>
      <point x="201" y="905"/>
      <point x="143" y="905" type="curve" smooth="yes"/>
      <point x="102" y="905"/>
      <point x="72" y="893"/>
      <point x="49" y="881" type="curve"/>
      <point x="49" y="827" type="line"/>
      <point x="68" y="840"/>
      <point x="98" y="854"/>
      <point x="133" y="854" type="curve" smooth="yes"/>
      <point x="172" y="854"/>
      <point x="193" y="827"/>
      <point x="193" y="778" type="curve" smooth="yes"/>
      <point x="193" y="713"/>
      <point x="160" y="621"/>
      <point x="127" y="526" type="curve" smooth="yes"/>
      <point x="88" y="412"/>
      <point x="59" y="307"/>
      <point x="59" y="188" type="curve" smooth="yes"/>
      <point x="59" y="41"/>
      <point x="131" y="-20"/>
    </contour>
    <contour>
      <point x="670" y="946" type="curve"/>
      <point x="481" y="946"/>
      <point x="346" y="1008"/>
      <point x="346" y="1229" type="curve" smooth="yes"/>
      <point x="346" y="1401"/>
      <point x="422" y="1528"/>
      <point x="541" y="1528" type="curve" smooth="yes"/>
      <point x="645" y="1528"/>
      <point x="686" y="1423"/>
      <point x="686" y="1225" type="curve" smooth="yes"/>
      <point x="686" y="1126"/>
      <point x="680" y="1040"/>
    </contour>
  </outline>
</glyph>
<glyph name="uni03D8" format="2">
  <advance width="774"/>
  <unicode hex="03D8"/>
  <anchor x="272" y="0" name="bottom"/>
  <anchor x="584" y="1462" name="top"/>
  <outline>
    <contour>
      <point x="223" y="0" type="line"/>
      <point x="276" y="0" type="line"/>
      <point x="354" y="371" type="line"/>
      <point x="639" y="389"/>
      <point x="784" y="797"/>
      <point x="784" y="1163" type="curve" smooth="yes"/>
      <point x="784" y="1389"/>
      <point x="696" y="1483"/>
      <point x="549" y="1483" type="curve" smooth="yes"/>
      <point x="215" y="1483"/>
      <point x="98" y="971"/>
      <point x="98" y="700" type="curve" smooth="yes"/>
      <point x="98" y="473"/>
      <point x="182" y="389"/>
      <point x="301" y="371" type="curve"/>
    </contour>
    <contour>
      <point x="340" y="424" type="curve" smooth="yes"/>
      <point x="221" y="424"/>
      <point x="154" y="502"/>
      <point x="154" y="705" type="curve" smooth="yes"/>
      <point x="154" y="954"/>
      <point x="270" y="1432"/>
      <point x="545" y="1432" type="curve" smooth="yes"/>
      <point x="664" y="1432"/>
      <point x="729" y="1354"/>
      <point x="729" y="1157" type="curve" smooth="yes"/>
      <point x="729" y="844"/>
      <point x="606" y="424"/>
    </contour>
  </outline>
</glyph>
<glyph name="uni03DB" format="2">
  <advance width="530"/>
  <unicode hex="03DB"/>
  <anchor x="76" y="-360" name="bottom"/>
  <anchor x="381" y="1077" name="top"/>
  <outline>
    <contour>
      <point x="84" y="-360" type="curve" smooth="yes"/>
      <point x="281" y="-360"/>
      <point x="356" y="-246"/>
      <point x="356" y="-121" type="curve" smooth="yes"/>
      <point x="356" y="-35"/>
      <point x="311" y="6"/>
      <point x="248" y="55" type="curve" smooth="yes"/>
      <point x="152" y="131"/>
      <point x="109" y="186"/>
      <point x="109" y="362" type="curve" smooth="yes"/>
      <point x="109" y="616"/>
      <point x="248" y="1047"/>
      <point x="483" y="1047" type="curve" smooth="yes"/>
      <point x="532" y="1047"/>
      <point x="563" y="1036"/>
      <point x="592" y="1024" type="curve"/>
      <point x="610" y="1075" type="line"/>
      <point x="580" y="1087"/>
      <point x="541" y="1098"/>
      <point x="485" y="1098" type="curve" smooth="yes"/>
      <point x="205" y="1098"/>
      <point x="53" y="666"/>
      <point x="53" y="362" type="curve" smooth="yes"/>
      <point x="53" y="160"/>
      <point x="113" y="90"/>
      <point x="207" y="18" type="curve" smooth="yes"/>
      <point x="270" y="-29"/>
      <point x="301" y="-66"/>
      <point x="301" y="-127" type="curve" smooth="yes"/>
      <point x="301" y="-219"/>
      <point x="246" y="-309"/>
      <point x="86" y="-309" type="curve" smooth="yes"/>
      <point x="35" y="-309"/>
      <point x="-12" y="-301"/>
      <point x="-39" y="-289" type="curve"/>
      <point x="-39" y="-346" type="line"/>
      <point x="-12" y="-354"/>
      <point x="35" y="-360"/>
    </contour>
  </outline>
</glyph>
<glyph name="afii10051" format="2">
  <advance width="774"/>
  <unicode hex="0402"/>
  <anchor x="272" y="0" name="bottom"/>
  <anchor x="584" y="1462" name="top"/>
  <outline>
    <contour>
      <point x="365" y="-20" type="curve" smooth="yes"/>
      <point x="522" y="-20"/>
      <point x="578" y="96"/>
      <point x="606" y="227" type="curve" smooth="yes"/>
      <point x="676" y="549" type="line" smooth="yes"/>
      <point x="684" y="590"/>
      <point x="692" y="633"/>
      <point x="692" y="680" type="curve" smooth="yes"/>
      <point x="692" y="793"/>
      <point x="629" y="856"/>
      <point x="465" y="856" type="curve" smooth="yes"/>
      <point x="328" y="856" type="line"/>
      <point x="446" y="1411" type="line"/>
      <point x="709" y="1411" type="line"/>
      <point x="719" y="1462" type="line"/>
      <point x="205" y="1462" type="line"/>
      <point x="195" y="1411" type="line"/>
      <point x="393" y="1411" type="line"/>
      <point x="92" y="0" type="line"/>
      <point x="145" y="0" type="line"/>
      <point x="317" y="805" type="line"/>
      <point x="453" y="805" type="line" smooth="yes"/>
      <point x="596" y="805"/>
      <point x="637" y="756"/>
      <point x="637" y="678" type="curve" smooth="yes"/>
      <point x="637" y="633"/>
      <point x="629" y="584"/>
      <point x="621" y="543" type="curve" smooth="yes"/>
      <point x="553" y="231" type="line" smooth="yes"/>
      <point x="532" y="135"/>
      <point x="494" y="31"/>
      <point x="369" y="31" type="curve" smooth="yes"/>
      <point x="319" y="31"/>
      <point x="283" y="43"/>
      <point x="256" y="55" type="curve"/>
      <point x="246" y="2" type="line"/>
      <point x="274" y="-10"/>
      <point x="313" y="-20"/>
    </contour>
  </outline>
</glyph>
<glyph name="afii10145" format="2">
  <advance width="887"/>
  <unicode hex="040F"/>
  <anchor x="254" y="-352" name="bottom"/>
  <anchor x="641" y="1462" name="top"/>
  <outline>
    <contour>
      <point x="215" y="-352" type="line"/>
      <point x="268" y="-352" type="line"/>
      <point x="342" y="0" type="line"/>
      <point x="614" y="0" type="line"/>
      <point x="928" y="1462" type="line"/>
      <point x="874" y="1462" type="line"/>
      <point x="571" y="51" type="line"/>
      <point x="72" y="51" type="line"/>
      <point x="373" y="1462" type="line"/>
      <point x="319" y="1462" type="line"/>
      <point x="8" y="0" type="line"/>
      <point x="289" y="0" type="line"/>
    </contour>
  </outline>
</glyph>
<glyph name="afii10044" format="2">
  <advance width="856"/>
  <unicode hex="042A"/>
  <anchor x="330" y="0" name="bottom"/>
  <anchor x="641" y="1462" name="top"/>
  <outline>
    <contour>
      <point x="111" y="0" type="line"/>
      <point x="338" y="0" type="line" smooth="yes"/>
      <point x="569" y="0"/>
      <point x="739" y="180"/>
      <point x="739" y="483" type="curve" smooth="yes"/>
      <point x="739" y="688"/>
      <point x="631" y="788"/>
      <point x="424" y="788" type="curve" smooth="yes"/>
      <point x="330" y="788" type="line"/>
      <point x="473" y="1462" type="line"/>
      <point x="154" y="1462" type="line"/>
      <point x="139" y="1403" type="line"/>
      <point x="408" y="1403" type="line"/>
    </contour>
    <contour>
      <point x="174" y="51" type="line"/>
      <point x="322" y="737" type="line"/>
      <point x="428" y="737" type="line" smooth="yes"/>
      <point x="592" y="737"/>
      <point x="684" y="659"/>
      <point x="684" y="487" type="curve" smooth="yes"/>
      <point x="684" y="219"/>
      <point x="559" y="51"/>
      <point x="330" y="51" type="curve" smooth="yes"/>
    </contour>
  </outline>
</glyph>
<glyph name="afii10047" format="2">
  <advance width="737"/>
  <unicode hex="042D"/>
  <anchor x="252" y="0" name="bottom"/>
  <anchor x="563" y="1462" name="top"/>
  <outline>
    <contour>
      <point x="117" y="-20" type="curve" smooth="yes"/>
      <point x="551" y="-20"/>
      <point x="676" y="600"/>
      <point x="676" y="1063" type="curve" smooth="yes"/>
      <point x="676" y="1346"/>
      <point x="588" y="1485"/>
      <point x="397" y="1485" type="curve" smooth="yes"/>
      <point x="313" y="1485"/>
      <point x="250" y="1462"/>
      <point x="197" y="1430" type="curve"/>
      <point x="223" y="1384" type="line"/>
      <point x="274" y="1419"/>
      <point x="338" y="1434"/>
      <point x="391" y="1434" type="curve" smooth="yes"/>
      <point x="547" y="1434"/>
      <point x="621" y="1321"/>
      <point x="621" y="1059" type="curve" smooth="yes"/>
      <point x="621" y="971"/>
      <point x="616" y="881"/>
      <point x="606" y="793" type="curve"/>
      <point x="182" y="793" type="line"/>
      <point x="172" y="741" type="line"/>
      <point x="600" y="741" type="line"/>
      <point x="537" y="289"/>
      <point x="371" y="31"/>
      <point x="117" y="31" type="curve" smooth="yes"/>
      <point x="45" y="31"/>
      <point x="-10" y="47"/>
      <point x="-57" y="68" type="curve"/>
      <point x="-57" y="12" type="line"/>
      <point x="-12" y="-6"/>
      <point x="39" y="-20"/>
    </contour>
  </outline>
</glyph>
<glyph name="afii10073" format="2">
  <advance width="535"/>
  <unicode hex="0437"/>
  <anchor x="154" y="0" name="bottom"/>
  <anchor x="383" y="1077" name="top"/>
  <outline>
    <contour>
      <point x="106" y="-23" type="curve" smooth="yes"/>
      <point x="330" y="-23"/>
      <point x="406" y="174"/>
      <point x="406" y="356" type="curve" smooth="yes"/>
      <point x="406" y="483"/>
      <point x="348" y="549"/>
      <point x="281" y="571" type="curve"/>
      <point x="281" y="575" type="line"/>
      <point x="395" y="598"/>
      <point x="485" y="743"/>
      <point x="485" y="893" type="curve" smooth="yes"/>
      <point x="485" y="1020"/>
      <point x="424" y="1098"/>
      <point x="297" y="1098" type="curve" smooth="yes"/>
      <point x="233" y="1098"/>
      <point x="180" y="1077"/>
      <point x="143" y="1055" type="curve"/>
      <point x="164" y="1010" type="line"/>
      <point x="195" y="1030"/>
      <point x="240" y="1047"/>
      <point x="293" y="1047" type="curve" smooth="yes"/>
      <point x="385" y="1047"/>
      <point x="430" y="991"/>
      <point x="430" y="891" type="curve" smooth="yes"/>
      <point x="430" y="752"/>
      <point x="348" y="600"/>
      <point x="195" y="600" type="curve" smooth="yes"/>
      <point x="137" y="600" type="line"/>
      <point x="125" y="549" type="line"/>
      <point x="178" y="549" type="line" smooth="yes"/>
      <point x="281" y="549"/>
      <point x="350" y="489"/>
      <point x="350" y="354" type="curve" smooth="yes"/>
      <point x="350" y="180"/>
      <point x="287" y="29"/>
      <point x="106" y="29" type="curve" smooth="yes"/>
      <point x="37" y="29"/>
      <point x="-23" y="55"/>
      <point x="-59" y="88" type="curve"/>
      <point x="-59" y="27" type="line"/>
      <point x="-27" y="2"/>
      <point x="29" y="-23"/>
    </contour>
  </outline>
</glyph>
<glyph name="afii10092" format="2">
  <advance width="739"/>
  <unicode hex="044A"/>
  <anchor x="256" y="0" name="bottom"/>
  <anchor x="485" y="1077" name="top"/>
  <outline>
    <contour>
      <point x="340" y="-20" type="curve" smooth="yes"/>
      <point x="543" y="-20"/>
      <point x="631" y="186"/>
      <point x="631" y="346" type="curve" smooth="yes"/>
      <point x="631" y="489"/>
      <point x="559" y="580"/>
      <point x="406" y="580" type="curve" smooth="yes"/>
      <point x="348" y="580"/>
      <point x="295" y="569"/>
      <point x="266" y="561" type="curve"/>
      <point x="377" y="1077" type="line"/>
      <point x="111" y="1077" type="line"/>
      <point x="100" y="1026" type="line"/>
      <point x="313" y="1026" type="line"/>
      <point x="166" y="350" type="line" smooth="yes"/>
      <point x="156" y="305"/>
      <point x="143" y="238"/>
      <point x="143" y="178" type="curve" smooth="yes"/>
      <point x="143" y="55"/>
      <point x="205" y="-20"/>
    </contour>
    <contour>
      <point x="342" y="31" type="curve" smooth="yes"/>
      <point x="244" y="31"/>
      <point x="199" y="86"/>
      <point x="199" y="180" type="curve" smooth="yes"/>
      <point x="199" y="246"/>
      <point x="213" y="322"/>
      <point x="256" y="510" type="curve"/>
      <point x="295" y="520"/>
      <point x="344" y="528"/>
      <point x="397" y="528" type="curve" smooth="yes"/>
      <point x="516" y="528"/>
      <point x="575" y="473"/>
      <point x="575" y="344" type="curve" smooth="yes"/>
      <point x="575" y="221"/>
      <point x="516" y="31"/>
    </contour>
  </outline>
</glyph>
<glyph name="afii10095" format="2">
  <advance width="575"/>
  <unicode hex="044D"/>
  <anchor x="174" y="0" name="bottom"/>
  <anchor x="403" y="1077" name="top"/>
  <outline>
    <contour>
      <point x="70" y="-20" type="curve" smooth="yes"/>
      <point x="412" y="-20"/>
      <point x="512" y="514"/>
      <point x="512" y="803" type="curve" smooth="yes"/>
      <point x="512" y="991"/>
      <point x="446" y="1098"/>
      <point x="289" y="1098" type="curve" smooth="yes"/>
      <point x="236" y="1098"/>
      <point x="180" y="1083"/>
      <point x="143" y="1065" type="curve"/>
      <point x="152" y="1014" type="line"/>
      <point x="184" y="1030"/>
      <point x="225" y="1047"/>
      <point x="283" y="1047" type="curve" smooth="yes"/>
      <point x="401" y="1047"/>
      <point x="457" y="971"/>
      <point x="457" y="797" type="curve" smooth="yes"/>
      <point x="457" y="715"/>
      <point x="451" y="643"/>
      <point x="442" y="592" type="curve"/>
      <point x="182" y="592" type="line"/>
      <point x="170" y="541" type="line"/>
      <point x="434" y="541" type="line"/>
      <point x="383" y="266"/>
      <point x="266" y="31"/>
      <point x="72" y="31" type="curve" smooth="yes"/>
      <point x="12" y="31"/>
      <point x="-39" y="43"/>
      <point x="-76" y="57" type="curve"/>
      <point x="-76" y="0" type="line"/>
      <point x="-37" y="-10"/>
      <point x="8" y="-20"/>
    </contour>
  </outline>
</glyph>
<glyph name="afii10099" format="2">
  <advance width="741"/>
  <unicode hex="0452"/>
  <anchor x="152" y="-492" name="bottom"/>
  <anchor x="588" y="1556" name="top"/>
  <outline>
    <contour>
      <point x="207" y="-492" type="curve" smooth="yes"/>
      <point x="362" y="-492"/>
      <point x="406" y="-385"/>
      <point x="465" y="-109" type="curve" smooth="yes"/>
      <point x="631" y="674" type="line" smooth="yes"/>
      <point x="649" y="758"/>
      <point x="672" y="868"/>
      <point x="672" y="932" type="curve" smooth="yes"/>
      <point x="672" y="1042"/>
      <point x="604" y="1098"/>
      <point x="504" y="1098" type="curve" smooth="yes"/>
      <point x="397" y="1098"/>
      <point x="307" y="1030"/>
      <point x="260" y="918" type="curve"/>
      <point x="256" y="918" type="line"/>
      <point x="268" y="967"/>
      <point x="285" y="1032"/>
      <point x="299" y="1102" type="curve" smooth="yes"/>
      <point x="342" y="1303" type="line"/>
      <point x="557" y="1303" type="line"/>
      <point x="567" y="1354" type="line"/>
      <point x="352" y="1354" type="line"/>
      <point x="397" y="1556" type="line"/>
      <point x="344" y="1556" type="line"/>
      <point x="301" y="1354" type="line"/>
      <point x="170" y="1354" type="line"/>
      <point x="160" y="1303" type="line"/>
      <point x="291" y="1303" type="line"/>
      <point x="14" y="0" type="line"/>
      <point x="68" y="0" type="line"/>
      <point x="193" y="588" type="line" smooth="yes"/>
      <point x="256" y="893"/>
      <point x="344" y="1047"/>
      <point x="498" y="1047" type="curve" smooth="yes"/>
      <point x="571" y="1047"/>
      <point x="618" y="1008"/>
      <point x="618" y="928" type="curve" smooth="yes"/>
      <point x="618" y="858"/>
      <point x="598" y="774"/>
      <point x="582" y="694" type="curve" smooth="yes"/>
      <point x="412" y="-106" type="line" smooth="yes"/>
      <point x="360" y="-367"/>
      <point x="317" y="-440"/>
      <point x="207" y="-440" type="curve" smooth="yes"/>
      <point x="176" y="-440"/>
      <point x="158" y="-436"/>
      <point x="137" y="-428" type="curve"/>
      <point x="137" y="-483" type="line"/>
      <point x="152" y="-487"/>
      <point x="176" y="-492"/>
    </contour>
  </outline>
</glyph>
<glyph name="uni047B" format="2">
  <advance width="809"/>
  <unicode hex="047B"/>
  <outline>
    <contour>
      <point x="276" y="-86" type="curve" smooth="yes"/>
      <point x="303" y="-86"/>
      <point x="326" y="-61"/>
      <point x="342" y="-12" type="curve"/>
      <point x="623" y="-4"/>
      <point x="745" y="471"/>
      <point x="745" y="799" type="curve" smooth="yes"/>
      <point x="745" y="965"/>
      <point x="686" y="1073"/>
      <point x="571" y="1096" type="curve"/>
      <point x="571" y="1135"/>
      <point x="569" y="1159"/>
      <point x="530" y="1159" type="curve" smooth="yes"/>
      <point x="502" y="1159"/>
      <point x="483" y="1153"/>
      <point x="463" y="1100" type="curve"/>
      <point x="158" y="1077"/>
      <point x="53" y="588"/>
      <point x="53" y="283" type="curve" smooth="yes"/>
      <point x="53" y="102"/>
      <point x="119" y="4"/>
      <point x="225" y="-16" type="curve"/>
      <point x="225" y="-53"/>
      <point x="236" y="-86"/>
    </contour>
    <contour>
      <point x="229" y="35" type="curve"/>
      <point x="160" y="55"/>
      <point x="109" y="119"/>
      <point x="109" y="283" type="curve" smooth="yes"/>
      <point x="109" y="580"/>
      <point x="213" y="1026"/>
      <point x="453" y="1049" type="curve"/>
      <point x="449" y="1014"/>
      <point x="455" y="977"/>
      <point x="494" y="977" type="curve" smooth="yes"/>
      <point x="528" y="977"/>
      <point x="549" y="1001"/>
      <point x="563" y="1047" type="curve"/>
      <point x="639" y="1028"/>
      <point x="690" y="956"/>
      <point x="690" y="799" type="curve" smooth="yes"/>
      <point x="690" y="541"/>
      <point x="588" y="51"/>
      <point x="346" y="33" type="curve"/>
      <point x="348" y="61"/>
      <point x="340" y="104"/>
      <point x="301" y="104" type="curve" smooth="yes"/>
      <point x="262" y="104"/>
      <point x="246" y="86"/>
    </contour>
  </outline>
</glyph>
<glyph name="uni0488" format="2">
  <advance width="1946"/>
  <unicode hex="0488"/>
  <outline>
    <contour>
      <point x="1270" y="948" type="curve"/>
      <point x="1329" y="948" type="line"/>
      <point x="1341" y="1032"/>
      <point x="1382" y="1067"/>
      <point x="1462" y="1067" type="curve" smooth="yes"/>
      <point x="1540" y="1067"/>
      <point x="1587" y="1028"/>
      <point x="1597" y="948" type="curve"/>
      <point x="1657" y="948" type="line"/>
      <point x="1651" y="1077"/>
      <point x="1593" y="1141"/>
      <point x="1468" y="1141" type="curve" smooth="yes"/>
      <point x="1337" y="1141"/>
      <point x="1274" y="1069"/>
    </contour>
    <contour>
      <point x="197" y="-41" type="curve"/>
      <point x="254" y="-41" type="line"/>
      <point x="268" y="47"/>
      <point x="309" y="78"/>
      <point x="389" y="78" type="curve" smooth="yes"/>
      <point x="467" y="78"/>
      <point x="512" y="39"/>
      <point x="524" y="-41" type="curve"/>
      <point x="584" y="-41" type="line"/>
      <point x="578" y="88"/>
      <point x="516" y="152"/>
      <point x="395" y="152" type="curve" smooth="yes"/>
      <point x="264" y="152"/>
      <point x="201" y="80"/>
    </contour>
    <contour>
      <point x="725" y="-319" type="curve"/>
      <point x="782" y="-319" type="line"/>
      <point x="797" y="-236"/>
      <point x="842" y="-201"/>
      <point x="918" y="-201" type="curve" smooth="yes"/>
      <point x="993" y="-201"/>
      <point x="1042" y="-240"/>
      <point x="1053" y="-319" type="curve"/>
      <point x="1112" y="-319" type="line"/>
      <point x="1106" y="-190"/>
      <point x="1049" y="-127"/>
      <point x="924" y="-127" type="curve" smooth="yes"/>
      <point x="793" y="-127"/>
      <point x="729" y="-203"/>
    </contour>
    <contour>
      <point x="-2" y="457" type="curve"/>
      <point x="55" y="457" type="line"/>
      <point x="70" y="545"/>
      <point x="113" y="575"/>
      <point x="190" y="575" type="curve" smooth="yes"/>
      <point x="268" y="575"/>
      <point x="313" y="537"/>
      <point x="326" y="457" type="curve"/>
      <point x="385" y="457" type="line"/>
      <point x="379" y="588"/>
      <point x="317" y="649"/>
      <point x="195" y="649" type="curve" smooth="yes"/>
      <point x="68" y="649"/>
      <point x="0" y="575"/>
    </contour>
    <contour>
      <point x="197" y="948" type="curve"/>
      <point x="254" y="948" type="line"/>
      <point x="268" y="1032"/>
      <point x="309" y="1067"/>
      <point x="389" y="1067" type="curve" smooth="yes"/>
      <point x="467" y="1067"/>
      <point x="512" y="1028"/>
      <point x="524" y="948" type="curve"/>
      <point x="584" y="948" type="line"/>
      <point x="578" y="1077"/>
      <point x="516" y="1141"/>
      <point x="395" y="1141" type="curve" smooth="yes"/>
      <point x="264" y="1141"/>
      <point x="201" y="1067"/>
    </contour>
    <contour>
      <point x="1270" y="-41" type="curve"/>
      <point x="1329" y="-41" type="line"/>
      <point x="1341" y="47"/>
      <point x="1382" y="78"/>
      <point x="1462" y="78" type="curve" smooth="yes"/>
      <point x="1540" y="78"/>
      <point x="1587" y="39"/>
      <point x="1597" y="-41" type="curve"/>
      <point x="1657" y="-41" type="line"/>
      <point x="1651" y="86"/>
      <point x="1593" y="152"/>
      <point x="1468" y="152" type="curve" smooth="yes"/>
      <point x="1337" y="152"/>
      <point x="1274" y="80"/>
    </contour>
    <contour>
      <point x="1470" y="457" type="curve"/>
      <point x="1528" y="457" type="line"/>
      <point x="1542" y="545"/>
      <point x="1585" y="575"/>
      <point x="1663" y="575" type="curve" smooth="yes"/>
      <point x="1741" y="575"/>
      <point x="1786" y="537"/>
      <point x="1798" y="457" type="curve"/>
      <point x="1858" y="457" type="line"/>
      <point x="1851" y="588"/>
      <point x="1790" y="649"/>
      <point x="1669" y="649" type="curve" smooth="yes"/>
      <point x="1542" y="649"/>
      <point x="1475" y="575"/>
    </contour>
    <contour>
      <point x="725" y="1233" type="curve"/>
      <point x="782" y="1233" type="line"/>
      <point x="797" y="1319"/>
      <point x="840" y="1352"/>
      <point x="918" y="1352" type="curve" smooth="yes"/>
      <point x="993" y="1352"/>
      <point x="1042" y="1313"/>
      <point x="1053" y="1233" type="curve"/>
      <point x="1112" y="1233" type="line"/>
      <point x="1106" y="1362"/>
      <point x="1047" y="1425"/>
      <point x="924" y="1425" type="curve" smooth="yes"/>
      <point x="793" y="1425"/>
      <point x="727" y="1352"/>
    </contour>
  </outline>
</glyph>
<glyph name="uni0496" format="2">
  <advance width="997"/>
  <unicode hex="0496"/>
  <anchor x="264" y="-352" name="bottom"/>
  <anchor x="651" y="1462" name="top"/>
  <outline>
    <contour>
      <point x="688" y="-352" type="line"/>
      <point x="741" y="-352" type="line"/>
      <point x="831" y="51" type="line"/>
      <point x="745" y="51" type="line"/>
      <point x="555" y="748" type="line"/>
      <point x="1063" y="1462" type="line"/>
      <point x="997" y="1462" type="line"/>
      <point x="500" y="756" type="line"/>
      <point x="649" y="1462" type="line"/>
      <point x="594" y="1462" type="line"/>
      <point x="444" y="754" type="line"/>
      <point x="233" y="1462" type="line"/>
      <point x="178" y="1462" type="line"/>
      <point x="389" y="758" type="line"/>
      <point x="-137" y="0" type="line"/>
      <point x="-72" y="0" type="line"/>
      <point x="442" y="748" type="line"/>
      <point x="285" y="0" type="line"/>
      <point x="340" y="0" type="line"/>
      <point x="498" y="752" type="line"/>
      <point x="702" y="0" type="line"/>
      <point x="766" y="0" type="line"/>
    </contour>
  </outline>
</glyph>
<glyph name="uni0497" format="2">
  <advance width="1055"/>
  <unicode hex="0497"/>
  <anchor x="299" y="-360" name="bottom"/>
  <anchor x="604" y="1077" name="top"/>
  <outline>
    <contour>
      <point x="754" y="-360" type="line"/>
      <point x="807" y="-360" type="line"/>
      <point x="889" y="37" type="line"/>
      <point x="872" y="33"/>
      <point x="856" y="31"/>
      <point x="836" y="31" type="curve" smooth="yes"/>
      <point x="733" y="31"/>
      <point x="678" y="102"/>
      <point x="678" y="270" type="curve" smooth="yes"/>
      <point x="678" y="516"/>
      <point x="799" y="1047"/>
      <point x="1036" y="1047" type="curve" smooth="yes"/>
      <point x="1055" y="1047"/>
      <point x="1069" y="1044"/>
      <point x="1085" y="1038" type="curve"/>
      <point x="1098" y="1092" type="line"/>
      <point x="1079" y="1096"/>
      <point x="1061" y="1098"/>
      <point x="1040" y="1098" type="curve" smooth="yes"/>
      <point x="829" y="1098"/>
      <point x="713" y="823"/>
      <point x="659" y="571" type="curve"/>
      <point x="518" y="571" type="line"/>
      <point x="627" y="1077" type="line"/>
      <point x="573" y="1077" type="line"/>
      <point x="465" y="571" type="line"/>
      <point x="328" y="571" type="line"/>
      <point x="342" y="653"/>
      <point x="348" y="735"/>
      <point x="348" y="805" type="curve" smooth="yes"/>
      <point x="348" y="1016"/>
      <point x="274" y="1098"/>
      <point x="147" y="1098" type="curve" smooth="yes"/>
      <point x="135" y="1098"/>
      <point x="123" y="1098"/>
      <point x="111" y="1096" type="curve"/>
      <point x="111" y="1042" type="line"/>
      <point x="121" y="1044"/>
      <point x="133" y="1047"/>
      <point x="143" y="1047" type="curve" smooth="yes"/>
      <point x="244" y="1047"/>
      <point x="295" y="973"/>
      <point x="295" y="805" type="curve" smooth="yes"/>
      <point x="295" y="516"/>
      <point x="172" y="31"/>
      <point x="-57" y="31" type="curve" smooth="yes"/>
      <point x="-84" y="31"/>
      <point x="-106" y="37"/>
      <point x="-127" y="47" type="curve"/>
      <point x="-137" y="-6" type="line"/>
      <point x="-115" y="-16"/>
      <point x="-88" y="-20"/>
      <point x="-59" y="-20" type="curve" smooth="yes"/>
      <point x="141" y="-20"/>
      <point x="266" y="252"/>
      <point x="319" y="520" type="curve"/>
      <point x="455" y="520" type="line"/>
      <point x="344" y="0" type="line"/>
      <point x="397" y="0" type="line"/>
      <point x="508" y="520" type="line"/>
      <point x="649" y="520" type="line"/>
      <point x="633" y="424"/>
      <point x="625" y="336"/>
      <point x="625" y="270" type="curve" smooth="yes"/>
      <point x="625" y="59"/>
      <point x="702" y="-18"/>
      <point x="823" y="-20" type="curve"/>
    </contour>
  </outline>
</glyph>
<glyph name="uni049A" format="2">
  <advance width="762"/>
  <unicode hex="049A"/>
  <anchor x="143" y="-352" name="bottom"/>
  <anchor x="530" y="1462" name="top"/>
  <outline>
    <contour>
      <point x="453" y="-352" type="line"/>
      <point x="506" y="-352" type="line"/>
      <point x="596" y="51" type="line"/>
      <point x="516" y="51" type="line"/>
      <point x="279" y="748" type="line"/>
      <point x="834" y="1462" type="line"/>
      <point x="764" y="1462" type="line"/>
      <point x="219" y="754" type="line"/>
      <point x="369" y="1462" type="line"/>
      <point x="315" y="1462" type="line"/>
      <point x="6" y="0" type="line"/>
      <point x="59" y="0" type="line"/>
      <point x="217" y="748" type="line"/>
      <point x="475" y="0" type="line"/>
      <point x="530" y="0" type="line"/>
    </contour>
  </outline>
</glyph>
<glyph name="uni04AF" format="2">
  <advance width="524"/>
  <unicode hex="04AF"/>
  <anchor x="43" y="-492" name="bottom"/>
  <anchor x="377" y="1077" name="top"/>
  <outline>
    <contour>
      <point x="23" y="-492" type="line"/>
      <point x="74" y="-492" type="line"/>
      <point x="176" y="-6" type="line"/>
      <point x="655" y="1077" type="line"/>
      <point x="600" y="1077" type="line"/>
      <point x="270" y="330" type="line" smooth="yes"/>
      <point x="238" y="254"/>
      <point x="205" y="178"/>
      <point x="176" y="100" type="curve"/>
      <point x="170" y="100" type="line"/>
      <point x="172" y="190"/>
      <point x="172" y="262"/>
      <point x="172" y="338" type="curve"/>
      <point x="168" y="1077" type="line"/>
      <point x="117" y="1077" type="line"/>
      <point x="125" y="-10" type="line"/>
    </contour>
  </outline>
</glyph>
<glyph name="uni04B4" format="2">
  <advance width="969"/>
  <unicode hex="04B4"/>
  <anchor x="307" y="-352" name="bottom"/>
  <anchor x="694" y="1462" name="top"/>
  <outline>
    <contour>
      <point x="662" y="-352" type="line"/>
      <point x="715" y="-352" type="line"/>
      <point x="803" y="51" type="line"/>
      <point x="717" y="51" type="line"/>
      <point x="1016" y="1462" type="line"/>
      <point x="963" y="1462" type="line"/>
      <point x="664" y="51" type="line"/>
      <point x="190" y="51" type="line"/>
      <point x="479" y="1409" type="line"/>
      <point x="752" y="1409" type="line"/>
      <point x="762" y="1462" type="line"/>
      <point x="168" y="1462" type="line"/>
      <point x="158" y="1409" type="line"/>
      <point x="426" y="1409" type="line"/>
      <point x="125" y="0" type="line"/>
      <point x="737" y="0" type="line"/>
    </contour>
  </outline>
</glyph>
<glyph name="uni04B6" format="2">
  <advance width="838"/>
  <unicode hex="04B6"/>
  <anchor x="236" y="-352" name="bottom"/>
  <anchor x="623" y="1462" name="top"/>
  <outline>
    <contour>
      <point x="528" y="-352" type="line"/>
      <point x="582" y="-352" type="line"/>
      <point x="672" y="51" type="line"/>
      <point x="575" y="51" type="line"/>
      <point x="872" y="1462" type="line"/>
      <point x="819" y="1462" type="line"/>
      <point x="657" y="698" type="line"/>
      <point x="573" y="647"/>
      <point x="473" y="602"/>
      <point x="377" y="602" type="curve" smooth="yes"/>
      <point x="260" y="602"/>
      <point x="199" y="662"/>
      <point x="199" y="772" type="curve" smooth="yes"/>
      <point x="199" y="823"/>
      <point x="207" y="862"/>
      <point x="221" y="934" type="curve" smooth="yes"/>
      <point x="336" y="1462" type="line"/>
      <point x="283" y="1462" type="line"/>
      <point x="168" y="934" type="line" smooth="yes"/>
      <point x="154" y="870"/>
      <point x="145" y="817"/>
      <point x="145" y="766" type="curve" smooth="yes"/>
      <point x="145" y="637"/>
      <point x="219" y="551"/>
      <point x="373" y="551" type="curve" smooth="yes"/>
      <point x="465" y="551"/>
      <point x="571" y="596"/>
      <point x="647" y="647" type="curve"/>
      <point x="512" y="0" type="line"/>
      <point x="606" y="0" type="line"/>
    </contour>
  </outline>
</glyph>
<glyph name="uni04C6" format="2">
  <advance width="635"/>
  <unicode hex="04C6"/>
  <anchor x="127" y="-352" name="bottom"/>
  <anchor x="432" y="1077" name="top"/>
  <outline>
    <contour>
      <point x="311" y="-352" type="line"/>
      <point x="371" y="-352" type="line"/>
      <point x="588" y="51" type="line"/>
      <point x="465" y="51" type="line"/>
      <point x="678" y="1061" type="line"/>
      <point x="643" y="1069"/>
      <point x="592" y="1077"/>
      <point x="541" y="1077" type="curve" smooth="yes"/>
      <point x="313" y="1077"/>
      <point x="238" y="899"/>
      <point x="160" y="492" type="curve" smooth="yes"/>
      <point x="86" y="102"/>
      <point x="27" y="43"/>
      <point x="-70" y="43" type="curve" smooth="yes"/>
      <point x="-92" y="43"/>
      <point x="-109" y="47"/>
      <point x="-121" y="51" type="curve"/>
      <point x="-121" y="0" type="line"/>
      <point x="-109" y="-4"/>
      <point x="-92" y="-8"/>
      <point x="-66" y="-8" type="curve" smooth="yes"/>
      <point x="76" y="-8"/>
      <point x="133" y="96"/>
      <point x="215" y="502" type="curve" smooth="yes"/>
      <point x="291" y="879"/>
      <point x="354" y="1026"/>
      <point x="535" y="1026" type="curve" smooth="yes"/>
      <point x="567" y="1026"/>
      <point x="594" y="1022"/>
      <point x="614" y="1018" type="curve"/>
      <point x="401" y="0" type="line"/>
      <point x="500" y="0" type="line"/>
    </contour>
  </outline>
</glyph>
<glyph name="uni04FE" format="2">
  <advance width="621"/>
  <unicode hex="04FE"/>
  <anchor x="197" y="0" name="bottom"/>
  <anchor x="508" y="1462" name="top"/>
  <outline>
    <contour>
      <point x="-119" y="0" type="line"/>
      <point x="-61" y="0" type="line"/>
      <point x="338" y="707" type="line"/>
      <point x="401" y="0" type="line"/>
      <point x="455" y="0" type="line"/>
      <point x="385" y="743" type="line"/>
      <point x="569" y="743" type="line"/>
      <point x="580" y="795" type="line"/>
      <point x="401" y="795" type="line"/>
      <point x="766" y="1462" type="line"/>
      <point x="709" y="1462" type="line"/>
      <point x="362" y="825" type="line"/>
      <point x="295" y="1462" type="line"/>
      <point x="242" y="1462" type="line"/>
      <point x="317" y="795" type="line"/>
      <point x="139" y="795" type="line"/>
      <point x="129" y="743" type="line"/>
      <point x="301" y="743" type="line"/>
    </contour>
  </outline>
</glyph>
<glyph name="uni050B" format="2">
  <advance width="1071"/>
  <unicode hex="050B"/>
  <anchor x="426" y="0" name="bottom"/>
  <anchor x="655" y="1077" name="top"/>
  <outline>
    <contour>
      <point x="674" y="-20" type="curve" smooth="yes"/>
      <point x="823" y="-20"/>
      <point x="879" y="115"/>
      <point x="915" y="291" type="curve" smooth="yes"/>
      <point x="1001" y="700" type="line"/>
      <point x="948" y="700" type="line"/>
      <point x="860" y="291" type="line" smooth="yes"/>
      <point x="827" y="135"/>
      <point x="793" y="31"/>
      <point x="674" y="31" type="curve" smooth="yes"/>
      <point x="590" y="31"/>
      <point x="543" y="80"/>
      <point x="543" y="176" type="curve" smooth="yes"/>
      <point x="543" y="215"/>
      <point x="555" y="274"/>
      <point x="565" y="326" type="curve" smooth="yes"/>
      <point x="725" y="1077" type="line"/>
      <point x="672" y="1077" type="line"/>
      <point x="569" y="590" type="line"/>
      <point x="195" y="590" type="line"/>
      <point x="297" y="1077" type="line"/>
      <point x="244" y="1077" type="line"/>
      <point x="14" y="0" type="line"/>
      <point x="68" y="0" type="line"/>
      <point x="184" y="539" type="line"/>
      <point x="557" y="539" type="line"/>
      <point x="512" y="330" type="line" smooth="yes"/>
      <point x="500" y="274"/>
      <point x="489" y="221"/>
      <point x="489" y="174" type="curve" smooth="yes"/>
      <point x="489" y="51"/>
      <point x="555" y="-20"/>
    </contour>
  </outline>
</glyph>
<glyph name="uni050F" format="2">
  <advance width="680"/>
  <unicode hex="050F"/>
  <anchor x="223" y="0" name="bottom"/>
  <anchor x="453" y="1077" name="top"/>
  <outline>
    <contour>
      <point x="283" y="-20" type="curve" smooth="yes"/>
      <point x="432" y="-20"/>
      <point x="487" y="115"/>
      <point x="524" y="291" type="curve" smooth="yes"/>
      <point x="610" y="700" type="line"/>
      <point x="557" y="700" type="line"/>
      <point x="469" y="291" type="line" smooth="yes"/>
      <point x="436" y="135"/>
      <point x="401" y="31"/>
      <point x="283" y="31" type="curve" smooth="yes"/>
      <point x="199" y="31"/>
      <point x="152" y="80"/>
      <point x="152" y="176" type="curve" smooth="yes"/>
      <point x="152" y="215"/>
      <point x="164" y="274"/>
      <point x="174" y="326" type="curve" smooth="yes"/>
      <point x="322" y="1026" type="line"/>
      <point x="479" y="1026" type="line"/>
      <point x="489" y="1077" type="line"/>
      <point x="119" y="1077" type="line"/>
      <point x="109" y="1026" type="line"/>
      <point x="268" y="1026" type="line"/>
      <point x="121" y="330" type="line" smooth="yes"/>
      <point x="109" y="274"/>
      <point x="98" y="221"/>
      <point x="98" y="174" type="curve" smooth="yes"/>
      <point x="98" y="51"/>
      <point x="164" y="-20"/>
    </contour>
  </outline>
</glyph>
<glyph name="uni0515" format="2">
  <advance width="981"/>
  <unicode hex="0515"/>
  <anchor x="354" y="0" name="bottom"/>
  <anchor x="584" y="1077" name="top"/>
  <outline>
    <contour>
      <point x="-66" y="-8" type="curve" smooth="yes"/>
      <point x="76" y="-8"/>
      <point x="133" y="96"/>
      <point x="215" y="502" type="curve" smooth="yes"/>
      <point x="291" y="879"/>
      <point x="354" y="1026"/>
      <point x="535" y="1026" type="curve" smooth="yes"/>
      <point x="547" y="1026"/>
      <point x="561" y="1026"/>
      <point x="573" y="1024" type="curve"/>
      <point x="662" y="563" type="line"/>
      <point x="311" y="0" type="line"/>
      <point x="371" y="0" type="line"/>
      <point x="682" y="506" type="line"/>
      <point x="776" y="0" type="line"/>
      <point x="829" y="0" type="line"/>
      <point x="723" y="549" type="line"/>
      <point x="1049" y="1077" type="line"/>
      <point x="989" y="1077" type="line"/>
      <point x="702" y="604" type="line"/>
      <point x="616" y="1071" type="line"/>
      <point x="600" y="1073"/>
      <point x="573" y="1077"/>
      <point x="541" y="1077" type="curve" smooth="yes"/>
      <point x="313" y="1077"/>
      <point x="238" y="899"/>
      <point x="160" y="492" type="curve" smooth="yes"/>
      <point x="86" y="102"/>
      <point x="27" y="43"/>
      <point x="-70" y="43" type="curve" smooth="yes"/>
      <point x="-92" y="43"/>
      <point x="-109" y="47"/>
      <point x="-121" y="51" type="curve"/>
      <point x="-121" y="0" type="line"/>
      <point x="-109" y="-4"/>
      <point x="-92" y="-8"/>
    </contour>
  </outline>
</glyph>
<glyph name="uni051E" format="2">
  <advance width="666"/>
  <unicode hex="051E"/>
  <anchor x="219" y="0" name="bottom"/>
  <anchor x="530" y="1462" name="top"/>
  <outline>
    <contour>
      <point x="6" y="0" type="line"/>
      <point x="59" y="0" type="line"/>
      <point x="217" y="748" type="line"/>
      <point x="475" y="0" type="line"/>
      <point x="532" y="0" type="line"/>
      <point x="279" y="748" type="line"/>
      <point x="573" y="1128" type="line"/>
      <point x="696" y="954" type="line"/>
      <point x="739" y="983" type="line"/>
      <point x="608" y="1171" type="line"/>
      <point x="834" y="1462" type="line"/>
      <point x="764" y="1462" type="line"/>
      <point x="575" y="1217" type="line"/>
      <point x="461" y="1380" type="line"/>
      <point x="418" y="1352" type="line"/>
      <point x="543" y="1174" type="line"/>
      <point x="219" y="754" type="line"/>
      <point x="369" y="1462" type="line"/>
      <point x="315" y="1462" type="line"/>
    </contour>
  </outline>
</glyph>
<glyph name="uni0520" format="2">
  <advance width="1182"/>
  <unicode hex="0520"/>
  <anchor x="371" y="-504" name="bottom"/>
  <anchor x="788" y="1462" name="top"/>
  <outline>
    <contour>
      <point x="573" y="-504" type="curve" smooth="yes"/>
      <point x="934" y="-504"/>
      <point x="1036" y="121"/>
      <point x="1036" y="430" type="curve" smooth="yes"/>
      <point x="1036" y="702"/>
      <point x="958" y="801"/>
      <point x="809" y="801" type="curve" smooth="yes"/>
      <point x="764" y="801"/>
      <point x="719" y="793"/>
      <point x="682" y="782" type="curve"/>
      <point x="827" y="1462" type="line"/>
      <point x="487" y="1462" type="line"/>
      <point x="352" y="997"/>
      <point x="176" y="424"/>
      <point x="82" y="193" type="curve" smooth="yes"/>
      <point x="43" y="96"/>
      <point x="0" y="43"/>
      <point x="-82" y="43" type="curve" smooth="yes"/>
      <point x="-115" y="43"/>
      <point x="-137" y="49"/>
      <point x="-156" y="55" type="curve"/>
      <point x="-156" y="2" type="line"/>
      <point x="-141" y="-2"/>
      <point x="-113" y="-8"/>
      <point x="-80" y="-8" type="curve" smooth="yes"/>
      <point x="33" y="-8"/>
      <point x="88" y="68"/>
      <point x="133" y="180" type="curve" smooth="yes"/>
      <point x="223" y="408"/>
      <point x="399" y="981"/>
      <point x="522" y="1411" type="curve"/>
      <point x="764" y="1411" type="line"/>
      <point x="463" y="0" type="line"/>
      <point x="516" y="0" type="line"/>
      <point x="670" y="727" type="line"/>
      <point x="711" y="741"/>
      <point x="758" y="750"/>
      <point x="801" y="750" type="curve" smooth="yes"/>
      <point x="924" y="750"/>
      <point x="981" y="670"/>
      <point x="981" y="430" type="curve" smooth="yes"/>
      <point x="981" y="152"/>
      <point x="889" y="-453"/>
      <point x="578" y="-453" type="curve" smooth="yes"/>
      <point x="522" y="-453"/>
      <point x="475" y="-442"/>
      <point x="434" y="-422" type="curve"/>
      <point x="434" y="-477" type="line"/>
      <point x="471" y="-494"/>
      <point x="514" y="-504"/>
    </contour>
  </outline>
</glyph>
<glyph name="uni052C" format="2">
  <advance width="846"/>
  <unicode hex="052C"/>
  <anchor x="233" y="-352" name="bottom"/>
  <anchor x="621" y="1462" name="top"/>
  <outline>
    <contour>
      <point x="-127" y="-352" type="line"/>
      <point x="-74" y="-352" type="line"/>
      <point x="2" y="0" type="line"/>
      <point x="631" y="0" type="line"/>
      <point x="555" y="-352" type="line"/>
      <point x="608" y="-352" type="line"/>
      <point x="694" y="51" type="line"/>
      <point x="588" y="51" type="line"/>
      <point x="893" y="1462" type="line"/>
      <point x="549" y="1462" type="line"/>
      <point x="487" y="1165"/>
      <point x="399" y="868"/>
      <point x="299" y="606" type="curve"/>
      <point x="223" y="616"/>
      <point x="180" y="684"/>
      <point x="180" y="772" type="curve" smooth="yes"/>
      <point x="180" y="823"/>
      <point x="188" y="862"/>
      <point x="203" y="934" type="curve" smooth="yes"/>
      <point x="317" y="1462" type="line"/>
      <point x="264" y="1462" type="line"/>
      <point x="150" y="934" type="line" smooth="yes"/>
      <point x="135" y="870"/>
      <point x="127" y="817"/>
      <point x="127" y="766" type="curve" smooth="yes"/>
      <point x="127" y="662"/>
      <point x="182" y="575"/>
      <point x="281" y="561" type="curve"/>
      <point x="207" y="369"/>
      <point x="123" y="195"/>
      <point x="41" y="51" type="curve"/>
      <point x="-39" y="51" type="line"/>
    </contour>
    <contour>
      <point x="102" y="51" type="line"/>
      <point x="180" y="188"/>
      <point x="260" y="362"/>
      <point x="334" y="553" type="curve"/>
      <point x="449" y="553"/>
      <point x="567" y="588"/>
      <point x="662" y="643" type="curve"/>
      <point x="535" y="51" type="line"/>
    </contour>
    <contour>
      <point x="352" y="602" type="curve"/>
      <point x="449" y="856"/>
      <point x="532" y="1139"/>
      <point x="590" y="1411" type="curve"/>
      <point x="827" y="1411" type="line"/>
      <point x="674" y="696" type="line"/>
      <point x="553" y="631"/>
      <point x="467" y="602"/>
    </contour>
  </outline>
</glyph>
<glyph name="uni1AB5" format="2">
  <unicode hex="1AB5"/>
  <anchor x="-117" y="0" name="_bottom"/>
  <anchor x="-221" y="-492" name="bottom"/>
  <outline>
    <contour>
      <point x="-553" y="-492" type="line"/>
      <point x="-406" y="-371" type="line"/>
      <point x="-315" y="-492" type="line"/>
      <point x="-238" y="-430" type="line"/>
      <point x="-334" y="-307" type="line"/>
      <point x="-184" y="-186" type="line"/>
      <point x="-233" y="-123" type="line"/>
      <point x="-379" y="-246" type="line"/>
      <point x="-473" y="-123" type="line"/>
      <point x="-549" y="-186" type="line"/>
      <point x="-457" y="-307" type="line"/>
      <point x="-602" y="-430" type="line"/>
    </contour>
    <contour>
      <point x="-131" y="-492" type="line"/>
      <point x="16" y="-371" type="line"/>
      <point x="109" y="-492" type="line"/>
      <point x="186" y="-430" type="line"/>
      <point x="90" y="-307" type="line"/>
      <point x="240" y="-186" type="line"/>
      <point x="188" y="-123" type="line"/>
      <point x="43" y="-246" type="line"/>
      <point x="-49" y="-123" type="line"/>
      <point x="-125" y="-186" type="line"/>
      <point x="-33" y="-307" type="line"/>
      <point x="-178" y="-430" type="line"/>
    </contour>
  </outline>
</glyph>
<glyph name="uni1C81" format="2">
  <advance width="713"/>
  <unicode hex="1C81"/>
  <anchor x="137" y="-492" name="bottom"/>
  <anchor x="471" y="1077" name="top"/>
  <outline>
    <contour>
      <point x="680" y="1077" type="line"/>
      <point x="342" y="1077" type="line"/>
      <point x="285" y="754"/>
      <point x="170" y="424"/>
      <point x="12" y="137" type="curve"/>
      <point x="-49" y="137" type="line"/>
      <point x="-180" y="-492" type="line"/>
      <point x="-127" y="-492" type="line"/>
      <point x="-6" y="86" type="line"/>
      <point x="508" y="86" type="line"/>
      <point x="387" y="-492" type="line"/>
      <point x="440" y="-492" type="line"/>
      <point x="571" y="137" type="line"/>
      <point x="477" y="137" type="line"/>
    </contour>
    <contour>
      <point x="616" y="1026" type="line"/>
      <point x="424" y="137" type="line"/>
      <point x="68" y="137" type="line"/>
      <point x="219" y="406"/>
      <point x="326" y="729"/>
      <point x="383" y="1026" type="curve"/>
    </contour>
  </outline>
</glyph>
<glyph name="uni1C86" format="2">
  <advance width="707"/>
  <unicode hex="1C86"/>
  <anchor x="240" y="0" name="bottom"/>
  <anchor x="571" y="1556" name="top"/>
  <outline>
    <contour>
      <point x="70" y="0" type="line"/>
      <point x="299" y="0" type="line" smooth="yes"/>
      <point x="535" y="0"/>
      <point x="604" y="190"/>
      <point x="604" y="354" type="curve" smooth="yes"/>
      <point x="604" y="528"/>
      <point x="512" y="596"/>
      <point x="360" y="596" type="curve" smooth="yes"/>
      <point x="248" y="596" type="line"/>
      <point x="449" y="1556" type="line"/>
      <point x="188" y="1556" type="line"/>
      <point x="178" y="1505" type="line"/>
      <point x="383" y="1505" type="line"/>
    </contour>
    <contour>
      <point x="133" y="51" type="line"/>
      <point x="238" y="545" type="line"/>
      <point x="354" y="545" type="line" smooth="yes"/>
      <point x="485" y="545"/>
      <point x="549" y="487"/>
      <point x="549" y="352" type="curve" smooth="yes"/>
      <point x="549" y="215"/>
      <point x="498" y="51"/>
      <point x="299" y="51" type="curve" smooth="yes"/>
    </contour>
  </outline>
</glyph>
<glyph name="uni1D05" format="2">
  <advance width="631"/>
  <unicode hex="1D05"/>
  <anchor x="201" y="0" name="bottom"/>
  <anchor x="430" y="1077" name="top"/>
  <outline>
    <contour>
      <point x="4" y="0" type="line"/>
      <point x="133" y="0" type="line" smooth="yes"/>
      <point x="485" y="0"/>
      <point x="604" y="465"/>
      <point x="604" y="768" type="curve" smooth="yes"/>
      <point x="604" y="981"/>
      <point x="514" y="1075"/>
      <point x="360" y="1075" type="curve" smooth="yes"/>
      <point x="231" y="1075" type="line"/>
    </contour>
    <contour>
      <point x="68" y="51" type="line"/>
      <point x="274" y="1024" type="line"/>
      <point x="350" y="1024" type="line" smooth="yes"/>
      <point x="479" y="1024"/>
      <point x="549" y="956"/>
      <point x="549" y="768" type="curve" smooth="yes"/>
      <point x="549" y="469"/>
      <point x="434" y="51"/>
      <point x="135" y="51" type="curve" smooth="yes"/>
    </contour>
  </outline>
</glyph>
<glyph name="uni1D09" format="2">
  <advance width="289"/>
  <unicode hex="1D09"/>
  <anchor x="-39" y="-326" name="bottom"/>
  <anchor x="260" y="1077" name="top"/>
  <outline>
    <contour>
      <point x="14" y="0" type="line"/>
      <point x="68" y="0" type="line"/>
      <point x="301" y="1073" type="line"/>
      <point x="248" y="1073" type="line"/>
    </contour>
    <contour>
      <point x="-31" y="-326" type="curve" smooth="yes"/>
      <point x="8" y="-326"/>
      <point x="27" y="-276"/>
      <point x="27" y="-213" type="curve" smooth="yes"/>
      <point x="27" y="-182"/>
      <point x="16" y="-168"/>
      <point x="0" y="-168" type="curve" smooth="yes"/>
      <point x="-35" y="-168"/>
      <point x="-59" y="-215"/>
      <point x="-59" y="-274" type="curve" smooth="yes"/>
      <point x="-59" y="-309"/>
      <point x="-49" y="-326"/>
    </contour>
  </outline>
</glyph>
<glyph name="uni1D17" format="2">
  <advance width="750"/>
  <unicode hex="1D17"/>
  <anchor x="260" y="0" name="bottom"/>
  <anchor x="377" y="553" name="top"/>
  <outline>
    <contour>
      <point x="268" y="-20" type="curve" smooth="yes"/>
      <point x="483" y="-20"/>
      <point x="610" y="274"/>
      <point x="657" y="553" type="curve"/>
      <point x="600" y="553" type="line"/>
      <point x="557" y="303"/>
      <point x="449" y="31"/>
      <point x="270" y="31" type="curve" smooth="yes"/>
      <point x="168" y="31"/>
      <point x="113" y="113"/>
      <point x="113" y="281" type="curve" smooth="yes"/>
      <point x="113" y="350"/>
      <point x="123" y="449"/>
      <point x="145" y="553" type="curve"/>
      <point x="86" y="553" type="line"/>
      <point x="66" y="451"/>
      <point x="57" y="352"/>
      <point x="57" y="281" type="curve" smooth="yes"/>
      <point x="57" y="68"/>
      <point x="139" y="-20"/>
    </contour>
  </outline>
</glyph>
<glyph name="uni1D22" format="2">
  <advance width="449"/>
  <unicode hex="1D22"/>
  <anchor x="111" y="0" name="bottom"/>
  <anchor x="340" y="1077" name="top"/>
  <outline>
    <contour>
      <point x="-63" y="0" type="line"/>
      <point x="319" y="0" type="line"/>
      <point x="328" y="51" type="line"/>
      <point x="4" y="51" type="line"/>
      <point x="528" y="1026" type="line"/>
      <point x="537" y="1075" type="line"/>
      <point x="178" y="1075" type="line"/>
      <point x="168" y="1024" type="line"/>
      <point x="469" y="1024" type="line"/>
      <point x="-53" y="47" type="line"/>
    </contour>
  </outline>
</glyph>
<glyph name="uni1D83" format="2">
  <advance width="772"/>
  <unicode hex="1D83"/>
  <outline>
    <contour>
      <point x="154" y="-492" type="curve" smooth="yes"/>
      <point x="365" y="-492"/>
      <point x="453" y="-348"/>
      <point x="506" y="-100" type="curve" smooth="yes"/>
      <point x="526" y="0" type="line"/>
      <point x="758" y="0" type="line"/>
      <point x="721" y="-170" type="line" smooth="yes"/>
      <point x="705" y="-240"/>
      <point x="682" y="-274"/>
      <point x="621" y="-274" type="curve" smooth="yes"/>
      <point x="588" y="-274"/>
      <point x="565" y="-268"/>
      <point x="543" y="-258" type="curve"/>
      <point x="543" y="-311" type="line"/>
      <point x="563" y="-319"/>
      <point x="588" y="-326"/>
      <point x="623" y="-326" type="curve" smooth="yes"/>
      <point x="713" y="-326"/>
      <point x="754" y="-258"/>
      <point x="770" y="-182" type="curve" smooth="yes"/>
      <point x="823" y="51" type="line"/>
      <point x="539" y="51" type="line"/>
      <point x="756" y="1077" type="line"/>
      <point x="713" y="1077" type="line"/>
      <point x="674" y="909" type="line"/>
      <point x="668" y="909" type="line"/>
      <point x="655" y="1014"/>
      <point x="602" y="1098"/>
      <point x="489" y="1098" type="curve" smooth="yes"/>
      <point x="205" y="1098"/>
      <point x="59" y="602"/>
      <point x="59" y="283" type="curve" smooth="yes"/>
      <point x="59" y="86"/>
      <point x="131" y="-20"/>
      <point x="258" y="-20" type="curve" smooth="yes"/>
      <point x="375" y="-20"/>
      <point x="449" y="57"/>
      <point x="514" y="184" type="curve"/>
      <point x="518" y="184" type="line"/>
      <point x="508" y="139"/>
      <point x="498" y="94"/>
      <point x="487" y="49" type="curve"/>
      <point x="459" y="-84" type="line" smooth="yes"/>
      <point x="408" y="-324"/>
      <point x="338" y="-440"/>
      <point x="154" y="-440" type="curve" smooth="yes"/>
      <point x="76" y="-440"/>
      <point x="0" y="-410"/>
      <point x="-37" y="-383" type="curve"/>
      <point x="-37" y="-442" type="line"/>
      <point x="-2" y="-463"/>
      <point x="74" y="-492"/>
    </contour>
    <contour>
      <point x="264" y="31" type="curve" smooth="yes"/>
      <point x="172" y="31"/>
      <point x="115" y="104"/>
      <point x="115" y="287" type="curve" smooth="yes"/>
      <point x="115" y="573"/>
      <point x="248" y="1047"/>
      <point x="487" y="1047" type="curve" smooth="yes"/>
      <point x="578" y="1047"/>
      <point x="631" y="969"/>
      <point x="631" y="852" type="curve" smooth="yes"/>
      <point x="631" y="717"/>
      <point x="535" y="31"/>
    </contour>
  </outline>
</glyph>
<glyph name="uni1D86" format="2">
  <advance width="1116"/>
  <unicode hex="1D86"/>
  <outline>
    <contour>
      <point x="731" y="-326" type="curve" smooth="yes"/>
      <point x="821" y="-326"/>
      <point x="862" y="-258"/>
      <point x="879" y="-182" type="curve" smooth="yes"/>
      <point x="932" y="51" type="line"/>
      <point x="879" y="51" type="line"/>
      <point x="1036" y="788" type="line" smooth="yes"/>
      <point x="1044" y="827"/>
      <point x="1055" y="891"/>
      <point x="1055" y="928" type="curve" smooth="yes"/>
      <point x="1055" y="1044"/>
      <point x="973" y="1098"/>
      <point x="877" y="1098" type="curve" smooth="yes"/>
      <point x="772" y="1098"/>
      <point x="696" y="1042"/>
      <point x="653" y="952" type="curve"/>
      <point x="649" y="952" type="line"/>
      <point x="643" y="1044"/>
      <point x="586" y="1098"/>
      <point x="485" y="1098" type="curve" smooth="yes"/>
      <point x="389" y="1098"/>
      <point x="311" y="1038"/>
      <point x="262" y="932" type="curve"/>
      <point x="258" y="932" type="line"/>
      <point x="285" y="1077" type="line"/>
      <point x="240" y="1077" type="line"/>
      <point x="12" y="0" type="line"/>
      <point x="66" y="0" type="line"/>
      <point x="193" y="596" type="line" smooth="yes"/>
      <point x="246" y="846"/>
      <point x="309" y="1047"/>
      <point x="481" y="1047" type="curve" smooth="yes"/>
      <point x="561" y="1047"/>
      <point x="604" y="1001"/>
      <point x="604" y="924" type="curve" smooth="yes"/>
      <point x="604" y="899"/>
      <point x="602" y="864"/>
      <point x="594" y="829" type="curve" smooth="yes"/>
      <point x="414" y="0" type="line"/>
      <point x="467" y="0" type="line"/>
      <point x="637" y="776" type="line" smooth="yes"/>
      <point x="670" y="922"/>
      <point x="731" y="1047"/>
      <point x="868" y="1047" type="curve" smooth="yes"/>
      <point x="946" y="1047"/>
      <point x="1001" y="1006"/>
      <point x="1001" y="922" type="curve" smooth="yes"/>
      <point x="1001" y="889"/>
      <point x="995" y="848"/>
      <point x="983" y="791" type="curve" smooth="yes"/>
      <point x="815" y="0" type="line"/>
      <point x="866" y="0" type="line"/>
      <point x="829" y="-170" type="line" smooth="yes"/>
      <point x="813" y="-240"/>
      <point x="791" y="-274"/>
      <point x="729" y="-274" type="curve" smooth="yes"/>
      <point x="696" y="-274"/>
      <point x="674" y="-268"/>
      <point x="651" y="-258" type="curve"/>
      <point x="651" y="-311" type="line"/>
      <point x="672" y="-319"/>
      <point x="696" y="-326"/>
    </contour>
  </outline>
</glyph>
<glyph name="uni1D87" format="2">
  <advance width="731"/>
  <unicode hex="1D87"/>
  <outline>
    <contour>
      <point x="348" y="-326" type="curve" smooth="yes"/>
      <point x="438" y="-326"/>
      <point x="479" y="-258"/>
      <point x="496" y="-182" type="curve" smooth="yes"/>
      <point x="549" y="51" type="line"/>
      <point x="496" y="51" type="line"/>
      <point x="629" y="674" type="line" smooth="yes"/>
      <point x="647" y="758"/>
      <point x="670" y="868"/>
      <point x="670" y="932" type="curve" smooth="yes"/>
      <point x="670" y="1042"/>
      <point x="602" y="1098"/>
      <point x="502" y="1098" type="curve" smooth="yes"/>
      <point x="395" y="1098"/>
      <point x="305" y="1030"/>
      <point x="258" y="918" type="curve"/>
      <point x="254" y="918" type="line"/>
      <point x="283" y="1077" type="line"/>
      <point x="240" y="1077" type="line"/>
      <point x="12" y="0" type="line"/>
      <point x="66" y="0" type="line"/>
      <point x="190" y="588" type="line" smooth="yes"/>
      <point x="254" y="893"/>
      <point x="342" y="1047"/>
      <point x="496" y="1047" type="curve" smooth="yes"/>
      <point x="569" y="1047"/>
      <point x="616" y="1008"/>
      <point x="616" y="928" type="curve" smooth="yes"/>
      <point x="616" y="858"/>
      <point x="596" y="774"/>
      <point x="580" y="694" type="curve" smooth="yes"/>
      <point x="432" y="0" type="line"/>
      <point x="483" y="0" type="line"/>
      <point x="446" y="-170" type="line" smooth="yes"/>
      <point x="430" y="-240"/>
      <point x="408" y="-274"/>
      <point x="346" y="-274" type="curve" smooth="yes"/>
      <point x="313" y="-274"/>
      <point x="291" y="-268"/>
      <point x="268" y="-258" type="curve"/>
      <point x="268" y="-311" type="line"/>
      <point x="289" y="-319"/>
      <point x="313" y="-326"/>
    </contour>
  </outline>
</glyph>
<glyph name="dottedgrave" format="2">
  <unicode hex="1DC0"/>
  <anchor x="117" y="1077" name="_top"/>
  <anchor x="221" y="1575" name="top"/>
  <outline>
    <contour>
      <point x="272" y="1241" type="curve"/>
      <point x="299" y="1241" type="line"/>
      <point x="299" y="1260" type="line"/>
      <point x="244" y="1348"/>
      <point x="184" y="1499"/>
      <point x="172" y="1575" type="curve"/>
      <point x="106" y="1575" type="line"/>
      <point x="106" y="1552" type="line"/>
      <point x="135" y="1464"/>
      <point x="205" y="1321"/>
    </contour>
    <contour>
      <point x="-86" y="1272" type="curve"/>
      <point x="-43" y="1272"/>
      <point x="-14" y="1313"/>
      <point x="-16" y="1378" type="curve" smooth="yes"/>
      <point x="-16" y="1415"/>
      <point x="-33" y="1432"/>
      <point x="-57" y="1432" type="curve"/>
      <point x="-98" y="1432"/>
      <point x="-125" y="1389"/>
      <point x="-125" y="1329" type="curve"/>
      <point x="-125" y="1290"/>
      <point x="-111" y="1272"/>
    </contour>
    <contour>
      <point x="428" y="1401" type="curve"/>
      <point x="469" y="1401"/>
      <point x="498" y="1442"/>
      <point x="498" y="1509" type="curve" smooth="yes"/>
      <point x="498" y="1544"/>
      <point x="481" y="1561"/>
      <point x="455" y="1561" type="curve"/>
      <point x="418" y="1561"/>
      <point x="389" y="1518"/>
      <point x="389" y="1458" type="curve"/>
      <point x="389" y="1419"/>
      <point x="403" y="1401"/>
    </contour>
  </outline>
</glyph>
<glyph name="zigzagbelow" format="2">
  <unicode hex="1DCF"/>
  <anchor x="-467" y="0" name="_bottom"/>
  <anchor x="-561" y="-449" name="bottom"/>
  <outline>
    <contour>
      <point x="-535" y="-449" type="line"/>
      <point x="-459" y="-449" type="line"/>
      <point x="-371" y="-238" type="line"/>
      <point x="-571" y="-238" type="line"/>
      <point x="-514" y="-106" type="line"/>
      <point x="-592" y="-106" type="line"/>
      <point x="-680" y="-317" type="line"/>
      <point x="-479" y="-317" type="line"/>
    </contour>
  </outline>
</glyph>
<glyph name="usabove" format="2">
  <unicode hex="1DD2"/>
  <anchor x="-135" y="819" name="_top"/>
  <anchor x="43" y="1655" name="top"/>
  <outline>
    <contour>
      <point x="90" y="1094" type="line"/>
      <point x="242" y="1114"/>
      <point x="354" y="1300"/>
      <point x="354" y="1475" type="curve" smooth="yes"/>
      <point x="354" y="1602"/>
      <point x="279" y="1655"/>
      <point x="184" y="1655" type="curve" smooth="yes"/>
      <point x="39" y="1655"/>
      <point x="-59" y="1554"/>
      <point x="-59" y="1401" type="curve" smooth="yes"/>
      <point x="-59" y="1311"/>
      <point x="8" y="1241"/>
      <point x="94" y="1241" type="curve" smooth="yes"/>
      <point x="125" y="1241"/>
      <point x="147" y="1245"/>
      <point x="164" y="1253" type="curve"/>
      <point x="174" y="1309" type="line"/>
      <point x="154" y="1298"/>
      <point x="127" y="1296"/>
      <point x="100" y="1296" type="curve" smooth="yes"/>
      <point x="43" y="1296"/>
      <point x="2" y="1337"/>
      <point x="2" y="1407" type="curve" smooth="yes"/>
      <point x="2" y="1520"/>
      <point x="82" y="1599"/>
      <point x="180" y="1599" type="curve" smooth="yes"/>
      <point x="248" y="1599"/>
      <point x="291" y="1563"/>
      <point x="291" y="1477" type="curve" smooth="yes"/>
      <point x="291" y="1321"/>
      <point x="201" y="1157"/>
      <point x="104" y="1151" type="curve"/>
    </contour>
  </outline>
</glyph>
<glyph name="uni1E11" format="2">
  <advance width="776"/>
  <unicode hex="1E11"/>
  <anchor x="166" y="-492" name="bottom"/>
  <anchor x="606" y="1556" name="top"/>
  <outline>
    <contour>
      <point x="168" y="-492" type="curve" smooth="yes"/>
      <point x="305" y="-492"/>
      <point x="406" y="-399"/>
      <point x="406" y="-283" type="curve" smooth="yes"/>
      <point x="406" y="-197"/>
      <point x="346" y="-150"/>
      <point x="256" y="-133" type="curve"/>
      <point x="365" y="20" type="line"/>
      <point x="313" y="20" type="line"/>
      <point x="182" y="-162" type="line"/>
      <point x="291" y="-172"/>
      <point x="354" y="-205"/>
      <point x="354" y="-289" type="curve" smooth="yes"/>
      <point x="354" y="-373"/>
      <point x="281" y="-442"/>
      <point x="172" y="-442" type="curve" smooth="yes"/>
      <point x="109" y="-442"/>
      <point x="70" y="-434"/>
      <point x="49" y="-426" type="curve"/>
      <point x="49" y="-477" type="line"/>
      <point x="78" y="-483"/>
      <point x="109" y="-492"/>
    </contour>
    <component base="d"/>
  </outline>
</glyph>
<glyph name="Yloop" format="2">
  <advance width="598"/>
  <unicode hex="1EFE"/>
  <anchor x="184" y="0" name="bottom"/>
  <anchor x="496" y="1462" name="top"/>
  <outline>
    <contour>
      <point x="-4" y="-12" type="curve" smooth="yes"/>
      <point x="102" y="-12"/>
      <point x="172" y="106"/>
      <point x="303" y="408" type="curve" smooth="yes"/>
      <point x="764" y="1462" type="line"/>
      <point x="711" y="1462" type="line"/>
      <point x="408" y="770" type="line" smooth="yes"/>
      <point x="379" y="705"/>
      <point x="354" y="653"/>
      <point x="334" y="588" type="curve"/>
      <point x="334" y="627"/>
      <point x="330" y="690"/>
      <point x="324" y="766" type="curve" smooth="yes"/>
      <point x="264" y="1462" type="line"/>
      <point x="213" y="1462" type="line"/>
      <point x="297" y="530" type="line"/>
      <point x="125" y="106"/>
      <point x="68" y="39"/>
      <point x="-6" y="39" type="curve" smooth="yes"/>
      <point x="-51" y="39"/>
      <point x="-68" y="74"/>
      <point x="-66" y="125" type="curve" smooth="yes"/>
      <point x="-61" y="272"/>
      <point x="59" y="426"/>
      <point x="336" y="547" type="curve"/>
      <point x="309" y="588" type="line"/>
      <point x="-12" y="442"/>
      <point x="-115" y="266"/>
      <point x="-119" y="121" type="curve" smooth="yes"/>
      <point x="-121" y="33"/>
      <point x="-76" y="-12"/>
    </contour>
  </outline>
</glyph>
<glyph name="uni1FDD" format="2">
  <advance width="838"/>
  <unicode hex="1FDD"/>
  <anchor x="481" y="1077" name="_top"/>
  <anchor x="571" y="1497" name="top"/>
  <outline>
    <contour>
      <point x="498" y="1202" type="curve"/>
      <point x="506" y="1241" type="line"/>
      <point x="477" y="1253"/>
      <point x="451" y="1290"/>
      <point x="451" y="1337" type="curve" smooth="yes"/>
      <point x="451" y="1346"/>
      <point x="451" y="1354"/>
      <point x="453" y="1360" type="curve"/>
      <point x="504" y="1360"/>
      <point x="541" y="1401"/>
      <point x="541" y="1450" type="curve" smooth="yes"/>
      <point x="541" y="1483"/>
      <point x="522" y="1497"/>
      <point x="496" y="1497" type="curve" smooth="yes"/>
      <point x="442" y="1497"/>
      <point x="414" y="1427"/>
      <point x="414" y="1352" type="curve" smooth="yes"/>
      <point x="414" y="1266"/>
      <point x="449" y="1217"/>
    </contour>
    <contour>
      <point x="633" y="1204" type="curve"/>
      <point x="659" y="1204" type="line"/>
      <point x="666" y="1223" type="line"/>
      <point x="655" y="1296"/>
      <point x="647" y="1397"/>
      <point x="651" y="1489" type="curve"/>
      <point x="592" y="1489" type="line"/>
      <point x="590" y="1468" type="line"/>
      <point x="592" y="1397"/>
      <point x="608" y="1290"/>
    </contour>
  </outline>
</glyph>
<glyph name="underscoredbl" format="2">
  <advance width="721"/>
  <unicode hex="2017"/>
  <outline>
    <contour>
      <point x="-176" y="-272" type="line"/>
      <point x="551" y="-272" type="line"/>
      <point x="563" y="-221" type="line"/>
      <point x="-166" y="-221" type="line"/>
    </contour>
    <contour>
      <point x="-221" y="-489" type="line"/>
      <point x="506" y="-489" type="line"/>
      <point x="518" y="-438" type="line"/>
      <point x="-209" y="-438" type="line"/>
    </contour>
  </outline>
</glyph>
<glyph name="quotedblleft" format="2">
  <advance width="449"/>
  <unicode hex="201C"/>
  <outline>
    <contour>
      <point x="362" y="1014" type="line"/>
      <point x="412" y="1014" type="line"/>
      <point x="446" y="1155"/>
      <point x="524" y="1335"/>
      <point x="604" y="1462" type="curve"/>
      <point x="563" y="1462" type="line"/>
      <point x="477" y="1341"/>
      <point x="395" y="1163"/>
      <point x="354" y="1038" type="curve"/>
    </contour>
    <contour>
      <point x="152" y="1014" type="line"/>
      <point x="201" y="1014" type="line"/>
      <point x="236" y="1155"/>
      <point x="313" y="1335"/>
      <point x="393" y="1462" type="curve"/>
      <point x="352" y="1462" type="line"/>
      <point x="266" y="1341"/>
      <point x="184" y="1163"/>
      <point x="143" y="1038" type="curve"/>
    </contour>
  </outline>
</glyph>
<glyph name="bracketrightwithquill" format="2">
  <advance width="578"/>
  <unicode hex="2046"/>
  <outline>
    <contour>
      <point x="53" y="547" type="line"/>
      <point x="381" y="547" type="line"/>
      <point x="391" y="598" type="line"/>
      <point x="63" y="598" type="line"/>
    </contour>
    <component base="bracketright"/>
  </outline>
</glyph>
<glyph name="swungdash" format="2">
  <advance width="2048"/>
  <unicode hex="2053"/>
  <outline>
    <contour>
      <point x="229" y="401" type="curve"/>
      <point x="285" y="401" type="line"/>
      <point x="328" y="530"/>
      <point x="408" y="596"/>
      <point x="621" y="596" type="curve" smooth="yes"/>
      <point x="946" y="596"/>
      <point x="1090" y="401"/>
      <point x="1417" y="401" type="curve"/>
      <point x="1659" y="401"/>
      <point x="1767" y="487"/>
      <point x="1808" y="651" type="curve"/>
      <point x="1755" y="651" type="line"/>
      <point x="1714" y="526"/>
      <point x="1630" y="459"/>
      <point x="1427" y="459" type="curve" smooth="yes"/>
      <point x="1104" y="459"/>
      <point x="963" y="653"/>
      <point x="621" y="653" type="curve" smooth="yes"/>
      <point x="395" y="653"/>
      <point x="272" y="567"/>
    </contour>
  </outline>
</glyph>
<glyph name="ninesuperior" format="2">
  <advance width="541"/>
  <unicode hex="2079"/>
  <outline>
    <contour>
      <point x="244" y="838" type="curve" smooth="yes"/>
      <point x="510" y="838"/>
      <point x="618" y="1206"/>
      <point x="618" y="1501" type="curve" smooth="yes"/>
      <point x="618" y="1679"/>
      <point x="549" y="1749"/>
      <point x="446" y="1749" type="curve" smooth="yes"/>
      <point x="268" y="1749"/>
      <point x="199" y="1526"/>
      <point x="199" y="1380" type="curve" smooth="yes"/>
      <point x="199" y="1270"/>
      <point x="258" y="1178"/>
      <point x="373" y="1178" type="curve" smooth="yes"/>
      <point x="446" y="1178"/>
      <point x="506" y="1227"/>
      <point x="545" y="1288" type="curve"/>
      <point x="549" y="1288" type="line"/>
      <point x="508" y="1053"/>
      <point x="399" y="889"/>
      <point x="248" y="889" type="curve" smooth="yes"/>
      <point x="207" y="889"/>
      <point x="166" y="899"/>
      <point x="143" y="913" type="curve"/>
      <point x="135" y="858" type="line"/>
      <point x="156" y="848"/>
      <point x="199" y="838"/>
    </contour>
    <contour>
      <point x="379" y="1229" type="curve" smooth="yes"/>
      <point x="297" y="1229"/>
      <point x="254" y="1282"/>
      <point x="254" y="1382" type="curve" smooth="yes"/>
      <point x="254" y="1516"/>
      <point x="309" y="1698"/>
      <point x="446" y="1698" type="curve" smooth="yes"/>
      <point x="514" y="1698"/>
      <point x="563" y="1649"/>
      <point x="563" y="1503" type="curve" smooth="yes"/>
      <point x="563" y="1370"/>
      <point x="506" y="1229"/>
    </contour>
  </outline>
</glyph>
<glyph name="parenleftsuperior" format="2">
  <advance width="330"/>
  <unicode hex="207D"/>
  <outline>
    <contour>
      <point x="205" y="500" type="curve"/>
      <point x="252" y="500" type="line"/>
      <point x="217" y="582"/>
      <point x="197" y="705"/>
      <point x="197" y="805" type="curve" smooth="yes"/>
      <point x="197" y="1059"/>
      <point x="299" y="1333"/>
      <point x="477" y="1559" type="curve"/>
      <point x="430" y="1559" type="line"/>
      <point x="246" y="1358"/>
      <point x="141" y="1071"/>
      <point x="141" y="801" type="curve" smooth="yes"/>
      <point x="141" y="702"/>
      <point x="166" y="580"/>
    </contour>
  </outline>
</glyph>
<glyph name="uni20AE" format="2">
  <advance width="602"/>
  <unicode hex="20AE"/>
  <outline>
    <contour>
      <point x="133" y="0" type="line"/>
      <point x="186" y="0" type="line"/>
      <point x="317" y="614" type="line"/>
      <point x="569" y="727" type="line"/>
      <point x="549" y="774" type="line"/>
      <point x="330" y="676" type="line"/>
      <point x="389" y="948" type="line"/>
      <point x="637" y="1059" type="line"/>
      <point x="616" y="1106" type="line"/>
      <point x="401" y="1010" type="line"/>
      <point x="487" y="1411" type="line"/>
      <point x="750" y="1411" type="line"/>
      <point x="760" y="1462" type="line"/>
      <point x="184" y="1462" type="line"/>
      <point x="174" y="1411" type="line"/>
      <point x="434" y="1411" type="line"/>
      <point x="342" y="983" type="line"/>
      <point x="90" y="868" type="line"/>
      <point x="111" y="823" type="line"/>
      <point x="330" y="922" type="line"/>
      <point x="272" y="649" type="line"/>
      <point x="23" y="537" type="line"/>
      <point x="43" y="492" type="line"/>
      <point x="258" y="588" type="line"/>
    </contour>
  </outline>
</glyph>
<glyph name="uni20B2" format="2">
  <advance width="938"/>
  <unicode hex="20B2"/>
  <outline>
    <contour>
      <point x="360" y="-125" type="line"/>
      <point x="414" y="-125" type="line"/>
      <point x="436" y="-20" type="line"/>
      <point x="543" y="-20"/>
      <point x="616" y="-2"/>
      <point x="686" y="25" type="curve"/>
      <point x="834" y="721" type="line"/>
      <point x="594" y="721" type="line"/>
      <point x="745" y="1432" type="line"/>
      <point x="825" y="1425"/>
      <point x="885" y="1397"/>
      <point x="938" y="1356" type="curve"/>
      <point x="971" y="1399" type="line"/>
      <point x="918" y="1438"/>
      <point x="852" y="1475"/>
      <point x="756" y="1483" type="curve"/>
      <point x="774" y="1567" type="line"/>
      <point x="721" y="1567" type="line"/>
      <point x="702" y="1485" type="line"/>
      <point x="297" y="1475"/>
      <point x="74" y="950"/>
      <point x="74" y="440" type="curve" smooth="yes"/>
      <point x="74" y="150"/>
      <point x="182" y="0"/>
      <point x="383" y="-18" type="curve"/>
    </contour>
    <contour>
      <point x="446" y="31" type="curve"/>
      <point x="584" y="670" type="line"/>
      <point x="768" y="670" type="line"/>
      <point x="641" y="66" type="line"/>
      <point x="584" y="43"/>
      <point x="522" y="31"/>
    </contour>
    <contour>
      <point x="393" y="33" type="line"/>
      <point x="221" y="51"/>
      <point x="129" y="176"/>
      <point x="129" y="446" type="curve" smooth="yes"/>
      <point x="129" y="915"/>
      <point x="332" y="1413"/>
      <point x="692" y="1434" type="curve"/>
    </contour>
  </outline>
</glyph>
<glyph name="uni20B3" format="2">
  <advance width="705"/>
  <unicode hex="20B3"/>
  <outline>
    <contour>
      <point x="-113" y="0" type="line"/>
      <point x="-55" y="0" type="line"/>
      <point x="180" y="553" type="line"/>
      <point x="530" y="553" type="line"/>
      <point x="528" y="0" type="line"/>
      <point x="582" y="0" type="line"/>
      <point x="582" y="553" type="line"/>
      <point x="707" y="553" type="line"/>
      <point x="719" y="604" type="line"/>
      <point x="582" y="604" type="line"/>
      <point x="582" y="850" type="line"/>
      <point x="766" y="850" type="line"/>
      <point x="778" y="901" type="line"/>
      <point x="582" y="901" type="line"/>
      <point x="582" y="1462" type="line"/>
      <point x="510" y="1462" type="line"/>
      <point x="270" y="901" type="line"/>
      <point x="76" y="901" type="line"/>
      <point x="63" y="850" type="line"/>
      <point x="250" y="850" type="line"/>
      <point x="145" y="604" type="line"/>
      <point x="16" y="604" type="line"/>
      <point x="4" y="553" type="line"/>
      <point x="123" y="553" type="line"/>
    </contour>
    <contour>
      <point x="201" y="604" type="line"/>
      <point x="305" y="850" type="line"/>
      <point x="530" y="850" type="line"/>
      <point x="530" y="604" type="line"/>
    </contour>
    <contour>
      <point x="328" y="901" type="line"/>
      <point x="475" y="1253"/>
      <point x="510" y="1335"/>
      <point x="535" y="1405" type="curve"/>
      <point x="530" y="1329"/>
      <point x="532" y="1249"/>
      <point x="530" y="901" type="curve"/>
    </contour>
  </outline>
</glyph>
<glyph name="livreTournois" format="2">
  <advance width="678"/>
  <unicode hex="20B6"/>
  <outline>
    <contour>
      <point x="457" y="-20" type="curve" smooth="yes"/>
      <point x="492" y="-20"/>
      <point x="516" y="-14"/>
      <point x="539" y="-6" type="curve"/>
      <point x="539" y="43" type="line"/>
      <point x="520" y="37"/>
      <point x="498" y="31"/>
      <point x="465" y="31" type="curve" smooth="yes"/>
      <point x="414" y="31"/>
      <point x="391" y="61"/>
      <point x="391" y="115" type="curve" smooth="yes"/>
      <point x="391" y="152"/>
      <point x="401" y="207"/>
      <point x="416" y="279" type="curve" smooth="yes"/>
      <point x="575" y="1026" type="line"/>
      <point x="707" y="1026" type="line"/>
      <point x="717" y="1077" type="line"/>
      <point x="586" y="1077" type="line"/>
      <point x="641" y="1341" type="line"/>
      <point x="598" y="1341" type="line"/>
      <point x="530" y="1077" type="line"/>
      <point x="279" y="1077" type="line"/>
      <point x="334" y="1341" type="line"/>
      <point x="291" y="1341" type="line"/>
      <point x="223" y="1079" type="line"/>
      <point x="129" y="1073" type="line"/>
      <point x="119" y="1026" type="line"/>
      <point x="215" y="1026" type="line"/>
      <point x="-4" y="0" type="line"/>
      <point x="49" y="0" type="line"/>
      <point x="268" y="1026" type="line"/>
      <point x="522" y="1026" type="line"/>
      <point x="362" y="283" type="line" smooth="yes"/>
      <point x="348" y="217"/>
      <point x="338" y="152"/>
      <point x="338" y="109" type="curve" smooth="yes"/>
      <point x="338" y="25"/>
      <point x="383" y="-20"/>
    </contour>
  </outline>
</glyph>
<glyph name="uni20BB" format="2">
  <advance width="1079"/>
  <unicode hex="20BB"/>
  <outline>
    <contour>
      <point x="537" y="-8" type="curve" smooth="yes"/>
      <point x="598" y="-8"/>
      <point x="653" y="4"/>
      <point x="698" y="20" type="curve"/>
      <point x="707" y="74" type="line"/>
      <point x="651" y="53"/>
      <point x="598" y="43"/>
      <point x="537" y="43" type="curve" smooth="yes"/>
      <point x="385" y="43"/>
      <point x="313" y="123"/>
      <point x="313" y="322" type="curve" smooth="yes"/>
      <point x="313" y="397"/>
      <point x="332" y="489"/>
      <point x="354" y="590" type="curve" smooth="yes"/>
      <point x="436" y="956" type="line"/>
      <point x="784" y="956" type="line" smooth="yes"/>
      <point x="934" y="956"/>
      <point x="1018" y="891"/>
      <point x="1018" y="725" type="curve" smooth="yes"/>
      <point x="1018" y="618"/>
      <point x="975" y="473"/>
      <point x="879" y="473" type="curve" smooth="yes"/>
      <point x="825" y="473"/>
      <point x="805" y="522"/>
      <point x="774" y="608" type="curve" smooth="yes"/>
      <point x="743" y="696" type="line"/>
      <point x="606" y="520" type="line"/>
      <point x="528" y="692" type="line"/>
      <point x="104" y="227" type="line"/>
      <point x="137" y="190" type="line"/>
      <point x="512" y="606" type="line"/>
      <point x="594" y="430" type="line"/>
      <point x="727" y="600" type="line"/>
      <point x="750" y="541" type="line" smooth="yes"/>
      <point x="774" y="473"/>
      <point x="801" y="422"/>
      <point x="879" y="422" type="curve" smooth="yes"/>
      <point x="999" y="422"/>
      <point x="1073" y="557"/>
      <point x="1073" y="725" type="curve" smooth="yes"/>
      <point x="1073" y="915"/>
      <point x="977" y="1008"/>
      <point x="784" y="1008" type="curve" smooth="yes"/>
      <point x="446" y="1008" type="line"/>
      <point x="471" y="1124"/>
      <point x="479" y="1200"/>
      <point x="479" y="1257" type="curve" smooth="yes"/>
      <point x="479" y="1382"/>
      <point x="428" y="1432"/>
      <point x="340" y="1432" type="curve" smooth="yes"/>
      <point x="197" y="1432"/>
      <point x="127" y="1290"/>
      <point x="127" y="1155" type="curve" smooth="yes"/>
      <point x="127" y="1016"/>
      <point x="203" y="956"/>
      <point x="348" y="956" type="curve" smooth="yes"/>
      <point x="381" y="956" type="line"/>
      <point x="299" y="590" type="line" smooth="yes"/>
      <point x="276" y="489"/>
      <point x="258" y="387"/>
      <point x="258" y="319" type="curve" smooth="yes"/>
      <point x="258" y="90"/>
      <point x="342" y="-8"/>
    </contour>
    <contour>
      <point x="354" y="1008" type="line" smooth="yes"/>
      <point x="233" y="1008"/>
      <point x="182" y="1053"/>
      <point x="182" y="1155" type="curve" smooth="yes"/>
      <point x="182" y="1262"/>
      <point x="229" y="1380"/>
      <point x="336" y="1380" type="curve" smooth="yes"/>
      <point x="399" y="1380"/>
      <point x="426" y="1341"/>
      <point x="426" y="1257" type="curve" smooth="yes"/>
      <point x="426" y="1198"/>
      <point x="418" y="1139"/>
      <point x="406" y="1077" type="curve" smooth="yes"/>
      <point x="391" y="1008" type="line"/>
    </contour>
  </outline>
</glyph>
<glyph name="addressedtothesubject" format="2">
  <advance width="1192"/>
  <unicode hex="2101"/>
  <anchor x="918" y="674" name="top"/>
  <outline>
    <contour>
      <point x="336" y="821" type="curve" smooth="yes"/>
      <point x="403" y="821"/>
      <point x="451" y="860"/>
      <point x="487" y="930" type="curve"/>
      <point x="492" y="930" type="line"/>
      <point x="477" y="834" type="line"/>
      <point x="520" y="834" type="line"/>
      <point x="651" y="1466" type="line"/>
      <point x="608" y="1466" type="line"/>
      <point x="580" y="1372" type="line"/>
      <point x="575" y="1372" type="line"/>
      <point x="561" y="1425"/>
      <point x="528" y="1479"/>
      <point x="442" y="1479" type="curve" smooth="yes"/>
      <point x="260" y="1479"/>
      <point x="176" y="1241"/>
      <point x="176" y="1049" type="curve" smooth="yes"/>
      <point x="176" y="889"/>
      <point x="238" y="821"/>
    </contour>
    <contour>
      <point x="342" y="872" type="curve" smooth="yes"/>
      <point x="272" y="872"/>
      <point x="231" y="924"/>
      <point x="231" y="1053" type="curve" smooth="yes"/>
      <point x="231" y="1206"/>
      <point x="299" y="1427"/>
      <point x="438" y="1427" type="curve" smooth="yes"/>
      <point x="518" y="1427"/>
      <point x="547" y="1368"/>
      <point x="547" y="1268" type="curve" smooth="yes"/>
      <point x="547" y="1200"/>
      <point x="502" y="872"/>
    </contour>
    <contour>
      <point x="68" y="0" type="line"/>
      <point x="137" y="0" type="line"/>
      <point x="1288" y="1462" type="line"/>
      <point x="1221" y="1462" type="line"/>
    </contour>
    <contour>
      <point x="760" y="-20" type="curve" smooth="yes"/>
      <point x="872" y="-20"/>
      <point x="944" y="51"/>
      <point x="944" y="168" type="curve" smooth="yes"/>
      <point x="944" y="248"/>
      <point x="913" y="293"/>
      <point x="854" y="360" type="curve" smooth="yes"/>
      <point x="807" y="414"/>
      <point x="791" y="453"/>
      <point x="791" y="502" type="curve" smooth="yes"/>
      <point x="791" y="569"/>
      <point x="831" y="623"/>
      <point x="903" y="623" type="curve" smooth="yes"/>
      <point x="946" y="623"/>
      <point x="979" y="608"/>
      <point x="1010" y="586" type="curve"/>
      <point x="1038" y="633" type="line"/>
      <point x="1010" y="653"/>
      <point x="971" y="674"/>
      <point x="905" y="674" type="curve" smooth="yes"/>
      <point x="803" y="674"/>
      <point x="735" y="598"/>
      <point x="735" y="498" type="curve" smooth="yes"/>
      <point x="735" y="422"/>
      <point x="764" y="377"/>
      <point x="815" y="319" type="curve" smooth="yes"/>
      <point x="868" y="260"/>
      <point x="889" y="217"/>
      <point x="889" y="166" type="curve" smooth="yes"/>
      <point x="889" y="80"/>
      <point x="846" y="31"/>
      <point x="760" y="31" type="curve" smooth="yes"/>
      <point x="711" y="31"/>
      <point x="670" y="53"/>
      <point x="647" y="70" type="curve"/>
      <point x="647" y="6" type="line"/>
      <point x="668" y="-6"/>
      <point x="713" y="-20"/>
    </contour>
  </outline>
</glyph>
<glyph name="Hscript" format="2">
  <advance width="2167"/>
  <unicode hex="210B"/>
  <outline>
    <contour>
      <point x="262" y="-20" type="curve" smooth="yes"/>
      <point x="678" y="-20"/>
      <point x="920" y="334"/>
      <point x="1001" y="610" type="curve" smooth="yes"/>
      <point x="1006" y="623"/>
      <point x="1010" y="633"/>
      <point x="1012" y="645" type="curve"/>
      <point x="1235" y="715" type="line"/>
      <point x="1137" y="526"/>
      <point x="1073" y="348"/>
      <point x="1073" y="238" type="curve" smooth="yes"/>
      <point x="1073" y="57"/>
      <point x="1169" y="-18"/>
      <point x="1260" y="-18" type="curve" smooth="yes"/>
      <point x="1403" y="-18"/>
      <point x="1645" y="270"/>
      <point x="1696" y="336" type="curve"/>
      <point x="1655" y="336" type="line"/>
      <point x="1608" y="283"/>
      <point x="1370" y="18"/>
      <point x="1266" y="18" type="curve" smooth="yes"/>
      <point x="1227" y="18"/>
      <point x="1214" y="41"/>
      <point x="1217" y="57" type="curve"/>
      <point x="1217" y="117"/>
      <point x="1315" y="455"/>
      <point x="1466" y="791" type="curve"/>
      <point x="1538" y="815"/>
      <point x="1602" y="838"/>
      <point x="1655" y="860" type="curve" smooth="yes"/>
      <point x="2013" y="1012"/>
      <point x="2165" y="1268"/>
      <point x="2165" y="1380" type="curve" smooth="yes"/>
      <point x="2165" y="1470"/>
      <point x="2111" y="1520"/>
      <point x="2019" y="1520" type="curve" smooth="yes"/>
      <point x="1786" y="1520"/>
      <point x="1462" y="1133"/>
      <point x="1262" y="762" type="curve"/>
      <point x="1174" y="733"/>
      <point x="1126" y="719"/>
      <point x="1026" y="688" type="curve"/>
      <point x="1133" y="1042"/>
      <point x="1184" y="1212"/>
      <point x="1360" y="1397" type="curve"/>
      <point x="1339" y="1423" type="line"/>
      <point x="1137" y="1235"/>
      <point x="788" y="950"/>
      <point x="719" y="950" type="curve" smooth="yes"/>
      <point x="702" y="950"/>
      <point x="698" y="961"/>
      <point x="698" y="971" type="curve" smooth="yes"/>
      <point x="698" y="991"/>
      <point x="739" y="1036"/>
      <point x="784" y="1100" type="curve" smooth="yes"/>
      <point x="829" y="1163"/>
      <point x="829" y="1200"/>
      <point x="829" y="1229" type="curve" smooth="yes"/>
      <point x="829" y="1245"/>
      <point x="831" y="1327"/>
      <point x="729" y="1327" type="curve" smooth="yes"/>
      <point x="598" y="1327"/>
      <point x="395" y="1114"/>
      <point x="276" y="952" type="curve"/>
      <point x="305" y="930" type="line"/>
      <point x="457" y="1139"/>
      <point x="629" y="1290"/>
      <point x="713" y="1290" type="curve" smooth="yes"/>
      <point x="737" y="1290"/>
      <point x="739" y="1282"/>
      <point x="739" y="1276" type="curve" smooth="yes"/>
      <point x="739" y="1249"/>
      <point x="592" y="1073"/>
      <point x="592" y="1004" type="curve" smooth="yes"/>
      <point x="592" y="948"/>
      <point x="629" y="907"/>
      <point x="686" y="907" type="curve" smooth="yes"/>
      <point x="774" y="907"/>
      <point x="983" y="1069"/>
      <point x="1114" y="1190" type="curve"/>
      <point x="942" y="979"/>
      <point x="846" y="786"/>
      <point x="758" y="604" type="curve"/>
      <point x="735" y="596" type="line" smooth="yes"/>
      <point x="571" y="541"/>
      <point x="426" y="422"/>
      <point x="360" y="346" type="curve"/>
      <point x="389" y="317" type="line"/>
      <point x="457" y="393"/>
      <point x="561" y="492"/>
      <point x="733" y="555" type="curve"/>
      <point x="584" y="238"/>
      <point x="496" y="16"/>
      <point x="266" y="16" type="curve" smooth="yes"/>
      <point x="33" y="16"/>
      <point x="16" y="160"/>
      <point x="16" y="182" type="curve" smooth="yes"/>
      <point x="16" y="246"/>
      <point x="82" y="233"/>
      <point x="129" y="240" type="curve" smooth="yes"/>
      <point x="188" y="248"/>
      <point x="240" y="281"/>
      <point x="240" y="369" type="curve" smooth="yes"/>
      <point x="240" y="410"/>
      <point x="209" y="479"/>
      <point x="111" y="479" type="curve" smooth="yes"/>
      <point x="18" y="479"/>
      <point x="-59" y="393"/>
      <point x="-59" y="285" type="curve" smooth="yes"/>
      <point x="-59" y="238"/>
      <point x="-51" y="-20"/>
    </contour>
    <contour>
      <point x="1489" y="836" type="curve"/>
      <point x="1542" y="950"/>
      <point x="1599" y="1061"/>
      <point x="1663" y="1159" type="curve" smooth="yes"/>
      <point x="1849" y="1450"/>
      <point x="1978" y="1481"/>
      <point x="2019" y="1481" type="curve" smooth="yes"/>
      <point x="2060" y="1481"/>
      <point x="2097" y="1460"/>
      <point x="2097" y="1413" type="curve" smooth="yes"/>
      <point x="2097" y="1278"/>
      <point x="1823" y="975"/>
      <point x="1634" y="893" type="curve" smooth="yes"/>
      <point x="1559" y="860"/>
      <point x="1526" y="848"/>
    </contour>
  </outline>
</glyph>
<glyph name="Hfraktur" format="2">
  <advance width="1503"/>
  <unicode hex="210C"/>
  <outline>
    <contour>
      <point x="963" y="-254" type="curve" smooth="yes"/>
      <point x="969" y="-254"/>
      <point x="1001" y="-252"/>
      <point x="1319" y="8" type="curve"/>
      <point x="1360" y="129"/>
      <point x="1395" y="301"/>
      <point x="1399" y="485" type="curve" smooth="yes"/>
      <point x="1403" y="584"/>
      <point x="1384" y="817"/>
      <point x="1343" y="932" type="curve"/>
      <point x="1196" y="1040"/>
      <point x="979" y="1051"/>
      <point x="942" y="1051" type="curve" smooth="yes"/>
      <point x="909" y="1051"/>
      <point x="627" y="811"/>
      <point x="557" y="752" type="curve"/>
      <point x="494" y="877"/>
      <point x="453" y="975"/>
      <point x="453" y="1034" type="curve" smooth="yes"/>
      <point x="453" y="1153"/>
      <point x="528" y="1255"/>
      <point x="575" y="1300" type="curve"/>
      <point x="668" y="1251"/>
      <point x="815" y="1186"/>
      <point x="887" y="1186" type="curve" smooth="yes"/>
      <point x="901" y="1186"/>
      <point x="1026" y="1251"/>
      <point x="1192" y="1425" type="curve"/>
      <point x="1159" y="1456" type="line"/>
      <point x="1122" y="1423"/>
      <point x="1059" y="1352"/>
      <point x="981" y="1352" type="curve" smooth="yes"/>
      <point x="915" y="1352"/>
      <point x="778" y="1419"/>
      <point x="694" y="1470" type="curve" smooth="yes"/>
      <point x="510" y="1356"/>
      <point x="266" y="1143"/>
      <point x="266" y="977" type="curve" smooth="yes"/>
      <point x="266" y="750"/>
      <point x="524" y="467"/>
      <point x="524" y="324" type="curve" smooth="yes"/>
      <point x="524" y="244"/>
      <point x="492" y="195"/>
      <point x="473" y="172" type="curve" smooth="yes"/>
      <point x="459" y="156" type="line"/>
      <point x="399" y="211"/>
      <point x="352" y="262"/>
      <point x="289" y="262" type="curve" smooth="yes"/>
      <point x="225" y="262"/>
      <point x="88" y="131"/>
      <point x="2" y="31" type="curve"/>
      <point x="33" y="-4" type="line"/>
      <point x="76" y="41"/>
      <point x="150" y="98"/>
      <point x="197" y="98" type="curve" smooth="yes"/>
      <point x="244" y="98"/>
      <point x="324" y="29"/>
      <point x="371" y="-25" type="curve"/>
      <point x="664" y="330" type="line"/>
      <point x="668" y="348"/>
      <point x="672" y="403"/>
      <point x="670" y="428" type="curve" smooth="yes"/>
      <point x="664" y="498"/>
      <point x="639" y="580"/>
      <point x="602" y="662" type="curve"/>
      <point x="690" y="813"/>
      <point x="774" y="899"/>
      <point x="924" y="901" type="curve" smooth="yes"/>
      <point x="1116" y="903"/>
      <point x="1204" y="801"/>
      <point x="1210" y="418" type="curve" smooth="yes"/>
      <point x="1217" y="35"/>
      <point x="1124" y="-133"/>
      <point x="1028" y="-133" type="curve" smooth="yes"/>
      <point x="967" y="-133"/>
      <point x="944" y="-98"/>
      <point x="905" y="-51" type="curve"/>
      <point x="799" y="-193" type="line"/>
      <point x="852" y="-236"/>
      <point x="911" y="-254"/>
    </contour>
  </outline>
</glyph>
<glyph name="Lscript" format="2">
  <advance width="1706"/>
  <unicode hex="2112"/>
  <outline>
    <contour>
      <point x="238" y="-20" type="curve" smooth="yes"/>
      <point x="346" y="-20"/>
      <point x="469" y="2"/>
      <point x="586" y="68" type="curve"/>
      <point x="674" y="18"/>
      <point x="766" y="-20"/>
      <point x="870" y="-20" type="curve" smooth="yes"/>
      <point x="1073" y="-20"/>
      <point x="1243" y="170"/>
      <point x="1317" y="315" type="curve"/>
      <point x="1282" y="330" type="line"/>
      <point x="1182" y="145"/>
      <point x="1018" y="20"/>
      <point x="883" y="20" type="curve" smooth="yes"/>
      <point x="817" y="20"/>
      <point x="733" y="57"/>
      <point x="643" y="104" type="curve"/>
      <point x="752" y="182"/>
      <point x="852" y="301"/>
      <point x="922" y="483" type="curve" smooth="yes"/>
      <point x="961" y="588" type="line"/>
      <point x="1325" y="725"/>
      <point x="1599" y="1137"/>
      <point x="1599" y="1333" type="curve" smooth="yes"/>
      <point x="1599" y="1417"/>
      <point x="1550" y="1483"/>
      <point x="1434" y="1483" type="curve" smooth="yes"/>
      <point x="1124" y="1483"/>
      <point x="877" y="993"/>
      <point x="694" y="582" type="curve"/>
      <point x="569" y="590"/>
      <point x="367" y="643"/>
      <point x="367" y="883" type="curve" smooth="yes"/>
      <point x="367" y="1171"/>
      <point x="602" y="1446"/>
      <point x="920" y="1446" type="curve" smooth="yes"/>
      <point x="973" y="1446"/>
      <point x="1034" y="1440"/>
      <point x="1096" y="1427" type="curve"/>
      <point x="1104" y="1464" type="line"/>
      <point x="1042" y="1477"/>
      <point x="985" y="1483"/>
      <point x="920" y="1483" type="curve" smooth="yes"/>
      <point x="567" y="1483"/>
      <point x="256" y="1227"/>
      <point x="256" y="936" type="curve" smooth="yes"/>
      <point x="256" y="801"/>
      <point x="315" y="563"/>
      <point x="678" y="545" type="curve"/>
      <point x="666" y="518"/>
      <point x="653" y="492"/>
      <point x="643" y="465" type="curve"/>
      <point x="592" y="346"/>
      <point x="551" y="248"/>
      <point x="506" y="176" type="curve"/>
      <point x="393" y="233"/>
      <point x="276" y="285"/>
      <point x="172" y="285" type="curve" smooth="yes"/>
      <point x="72" y="285"/>
      <point x="-29" y="244"/>
      <point x="-29" y="147" type="curve" smooth="yes"/>
      <point x="-29" y="41"/>
      <point x="98" y="-20"/>
    </contour>
    <contour>
      <point x="227" y="16" type="curve" smooth="yes"/>
      <point x="143" y="16"/>
      <point x="8" y="57"/>
      <point x="8" y="147" type="curve" smooth="yes"/>
      <point x="8" y="221"/>
      <point x="96" y="248"/>
      <point x="170" y="248" type="curve" smooth="yes"/>
      <point x="281" y="248"/>
      <point x="379" y="193"/>
      <point x="477" y="133" type="curve"/>
      <point x="420" y="55"/>
      <point x="346" y="16"/>
    </contour>
    <contour>
      <point x="979" y="639" type="curve"/>
      <point x="1116" y="1034"/>
      <point x="1227" y="1446"/>
      <point x="1430" y="1446" type="curve" smooth="yes"/>
      <point x="1481" y="1446"/>
      <point x="1520" y="1405"/>
      <point x="1520" y="1343" type="curve" smooth="yes"/>
      <point x="1520" y="1147"/>
      <point x="1362" y="915"/>
      <point x="1237" y="805" type="curve" smooth="yes"/>
      <point x="1157" y="735"/>
      <point x="1069" y="678"/>
    </contour>
  </outline>
</glyph>
<glyph name="lbbarsymbol" format="2">
  <advance width="1135"/>
  <unicode hex="2114"/>
  <outline>
    <contour>
      <point x="588" y="-20" type="curve" smooth="yes"/>
      <point x="897" y="-20"/>
      <point x="1026" y="539"/>
      <point x="1026" y="840" type="curve" smooth="yes"/>
      <point x="1026" y="1026"/>
      <point x="965" y="1114"/>
      <point x="834" y="1114" type="curve" smooth="yes"/>
      <point x="737" y="1114"/>
      <point x="641" y="1040"/>
      <point x="573" y="913" type="curve"/>
      <point x="569" y="913" type="line"/>
      <point x="575" y="932"/>
      <point x="580" y="952"/>
      <point x="586" y="977" type="curve" smooth="yes"/>
      <point x="711" y="1556" type="line"/>
      <point x="659" y="1556" type="line"/>
      <point x="332" y="0" type="line"/>
      <point x="371" y="0" type="line"/>
      <point x="412" y="133" type="line"/>
      <point x="418" y="133" type="line"/>
      <point x="430" y="41"/>
      <point x="498" y="-20"/>
    </contour>
    <contour>
      <point x="604" y="31" type="curve" smooth="yes"/>
      <point x="504" y="31"/>
      <point x="455" y="98"/>
      <point x="455" y="233" type="curve" smooth="yes"/>
      <point x="455" y="582"/>
      <point x="602" y="1067"/>
      <point x="844" y="1067" type="curve" smooth="yes"/>
      <point x="942" y="1067"/>
      <point x="975" y="997"/>
      <point x="975" y="866" type="curve" smooth="yes"/>
      <point x="975" y="537"/>
      <point x="840" y="31"/>
    </contour>
    <contour>
      <point x="164" y="1296" type="line"/>
      <point x="872" y="1296" type="line"/>
      <point x="883" y="1354" type="line"/>
      <point x="174" y="1354" type="line"/>
    </contour>
    <component base="l"/>
  </outline>
</glyph>
<glyph name="ZDoubleStruck" format="2">
  <advance width="1290"/>
  <unicode hex="2124"/>
  <outline>
    <contour>
      <point x="27" y="0" type="line"/>
      <point x="1139" y="0" type="line"/>
      <point x="1139" y="109" type="line"/>
      <point x="424" y="109" type="line"/>
      <point x="1159" y="1354" type="line"/>
      <point x="1159" y="1462" type="line"/>
      <point x="92" y="1462" type="line"/>
      <point x="92" y="1354" type="line"/>
      <point x="776" y="1354" type="line"/>
      <point x="27" y="109" type="line"/>
    </contour>
    <contour>
      <point x="150" y="109" type="line"/>
      <point x="895" y="1354" type="line"/>
      <point x="1040" y="1354" type="line"/>
      <point x="299" y="109" type="line"/>
    </contour>
  </outline>
</glyph>
<glyph name="scripte" format="2">
  <advance width="946"/>
  <unicode hex="212F"/>
  <outline>
    <contour>
      <point x="336" y="-20" type="curve" smooth="yes"/>
      <point x="516" y="-20"/>
      <point x="735" y="195"/>
      <point x="848" y="356" type="curve"/>
      <point x="803" y="356" type="line"/>
      <point x="659" y="162"/>
      <point x="461" y="16"/>
      <point x="344" y="16" type="curve" smooth="yes"/>
      <point x="252" y="16"/>
      <point x="274" y="178"/>
      <point x="315" y="262" type="curve"/>
      <point x="745" y="344"/>
      <point x="852" y="553"/>
      <point x="852" y="680" type="curve" smooth="yes"/>
      <point x="852" y="723"/>
      <point x="838" y="821"/>
      <point x="688" y="821" type="curve" smooth="yes"/>
      <point x="408" y="821"/>
      <point x="203" y="578"/>
      <point x="162" y="528" type="curve" smooth="yes"/>
      <point x="143" y="508"/>
      <point x="57" y="406"/>
      <point x="-2" y="334" type="curve"/>
      <point x="29" y="307" type="line"/>
      <point x="119" y="416" type="line"/>
      <point x="94" y="358"/>
      <point x="78" y="317"/>
      <point x="78" y="242" type="curve" smooth="yes"/>
      <point x="78" y="152"/>
      <point x="129" y="-20"/>
    </contour>
    <contour>
      <point x="338" y="305" type="curve"/>
      <point x="418" y="512"/>
      <point x="565" y="784"/>
      <point x="684" y="784" type="curve" smooth="yes"/>
      <point x="721" y="784"/>
      <point x="737" y="766"/>
      <point x="737" y="729" type="curve" smooth="yes"/>
      <point x="737" y="666"/>
      <point x="662" y="408"/>
    </contour>
  </outline>
</glyph>
<glyph name="piDoubleStruck" format="2">
  <advance width="1591"/>
  <unicode hex="213C"/>
  <outline>
    <contour>
      <point x="1057" y="-20" type="curve" smooth="yes"/>
      <point x="1116" y="-20"/>
      <point x="1210" y="-10"/>
      <point x="1264" y="10" type="curve"/>
      <point x="1317" y="264" type="line"/>
      <point x="1284" y="250"/>
      <point x="1249" y="244"/>
      <point x="1217" y="244" type="curve" smooth="yes"/>
      <point x="1169" y="244"/>
      <point x="1133" y="262"/>
      <point x="1133" y="311" type="curve" smooth="yes"/>
      <point x="1133" y="342"/>
      <point x="1139" y="379"/>
      <point x="1151" y="436" type="curve" smooth="yes"/>
      <point x="1272" y="989" type="line"/>
      <point x="1493" y="989" type="line"/>
      <point x="1516" y="1098" type="line"/>
      <point x="219" y="1098" type="line"/>
      <point x="57" y="1026" type="line"/>
      <point x="49" y="989" type="line"/>
      <point x="285" y="989" type="line"/>
      <point x="76" y="0" type="line"/>
      <point x="430" y="0" type="line"/>
      <point x="639" y="989" type="line"/>
      <point x="918" y="989" type="line"/>
      <point x="797" y="436" type="line" smooth="yes"/>
      <point x="784" y="377"/>
      <point x="768" y="297"/>
      <point x="768" y="242" type="curve" smooth="yes"/>
      <point x="768" y="80"/>
      <point x="893" y="-20"/>
    </contour>
    <contour>
      <point x="205" y="100" type="line"/>
      <point x="393" y="989" type="line"/>
      <point x="530" y="989" type="line"/>
      <point x="342" y="100" type="line"/>
    </contour>
    <contour>
      <point x="1071" y="82" type="curve" smooth="yes"/>
      <point x="956" y="82"/>
      <point x="881" y="137"/>
      <point x="881" y="242" type="curve" smooth="yes"/>
      <point x="881" y="305"/>
      <point x="893" y="362"/>
      <point x="905" y="418" type="curve" smooth="yes"/>
      <point x="1028" y="989" type="line"/>
      <point x="1161" y="989" type="line"/>
      <point x="1042" y="436" type="line" smooth="yes"/>
      <point x="1030" y="383"/>
      <point x="1024" y="340"/>
      <point x="1024" y="309" type="curve" smooth="yes"/>
      <point x="1024" y="233"/>
      <point x="1053" y="166"/>
      <point x="1188" y="166" type="curve" smooth="yes"/>
      <point x="1196" y="166" type="line"/>
      <point x="1182" y="90" type="line"/>
      <point x="1155" y="86"/>
      <point x="1108" y="82"/>
    </contour>
  </outline>
</glyph>
<glyph name="GammaDoubleStruck" format="2">
  <advance width="1130"/>
  <unicode hex="213E"/>
  <outline>
    <contour>
      <point x="147" y="0" type="line"/>
      <point x="502" y="0" type="line"/>
      <point x="502" y="1354" type="line"/>
      <point x="1049" y="1354" type="line"/>
      <point x="1049" y="1462" type="line"/>
      <point x="147" y="1462" type="line"/>
    </contour>
    <contour>
      <point x="256" y="109" type="line"/>
      <point x="256" y="1354" type="line"/>
      <point x="393" y="1354" type="line"/>
      <point x="393" y="109" type="line"/>
    </contour>
  </outline>
</glyph>
<glyph name="summationDoubleStruck" format="2">
  <advance width="1270"/>
  <unicode hex="2140"/>
  <outline>
    <contour>
      <point x="2" y="-492" type="line"/>
      <point x="1219" y="-492" type="line"/>
      <point x="1219" y="-152" type="line"/>
      <point x="340" y="-152" type="line"/>
      <point x="952" y="532" type="line"/>
      <point x="438" y="1350" type="line"/>
      <point x="1186" y="1350" type="line"/>
      <point x="1186" y="1462" type="line"/>
      <point x="27" y="1462" type="line"/>
      <point x="27" y="1350" type="line"/>
      <point x="651" y="362" type="line"/>
      <point x="2" y="-362" type="line"/>
    </contour>
    <contour>
      <point x="127" y="-385" type="line"/>
      <point x="244" y="-258" type="line"/>
      <point x="1118" y="-258" type="line"/>
      <point x="1118" y="-385" type="line"/>
    </contour>
    <contour>
      <point x="725" y="444" type="line"/>
      <point x="156" y="1350" type="line"/>
      <point x="309" y="1350" type="line"/>
      <point x="817" y="545" type="line"/>
    </contour>
  </outline>
</glyph>
<glyph name="ItalicdDoubleStruck" format="2">
  <advance width="1186"/>
  <unicode hex="2146"/>
  <outline>
    <contour>
      <point x="264" y="-18" type="curve" smooth="yes"/>
      <point x="412" y="-18"/>
      <point x="516" y="66"/>
      <point x="623" y="207" type="curve"/>
      <point x="578" y="0" type="line"/>
      <point x="932" y="0" type="line"/>
      <point x="1264" y="1556" type="line"/>
      <point x="909" y="1556" type="line"/>
      <point x="774" y="922" type="line"/>
      <point x="743" y="1030"/>
      <point x="647" y="1116"/>
      <point x="506" y="1116" type="curve" smooth="yes"/>
      <point x="154" y="1116"/>
      <point x="-33" y="717"/>
      <point x="-33" y="356" type="curve" smooth="yes"/>
      <point x="-33" y="106"/>
      <point x="88" y="-18"/>
    </contour>
    <contour>
      <point x="166" y="111" type="line"/>
      <point x="111" y="145"/>
      <point x="76" y="225"/>
      <point x="76" y="352" type="curve" smooth="yes"/>
      <point x="76" y="664"/>
      <point x="209" y="887"/>
      <point x="348" y="975" type="curve"/>
    </contour>
    <contour>
      <point x="270" y="88" type="curve"/>
      <point x="457" y="1006" type="line"/>
      <point x="469" y="1008"/>
      <point x="481" y="1010"/>
      <point x="494" y="1010" type="curve" smooth="yes"/>
      <point x="676" y="1010"/>
      <point x="723" y="877"/>
      <point x="723" y="745" type="curve" smooth="yes"/>
      <point x="723" y="473"/>
      <point x="528" y="88"/>
    </contour>
    <contour>
      <point x="707" y="100" type="line"/>
      <point x="995" y="1448" type="line"/>
      <point x="1130" y="1448" type="line"/>
      <point x="844" y="100" type="line"/>
    </contour>
  </outline>
</glyph>
<glyph name="uni2C61" format="2">
  <advance width="315"/>
  <unicode hex="2C61"/>
  <anchor x="43" y="0" name="bottom"/>
  <anchor x="375" y="1556" name="top"/>
  <outline>
    <contour>
      <point x="10" y="0" type="line"/>
      <point x="63" y="0" type="line"/>
      <point x="186" y="573" type="line"/>
      <point x="322" y="573" type="line"/>
      <point x="334" y="625" type="line"/>
      <point x="197" y="625" type="line"/>
      <point x="252" y="881" type="line"/>
      <point x="387" y="881" type="line"/>
      <point x="399" y="932" type="line"/>
      <point x="262" y="932" type="line"/>
      <point x="395" y="1556" type="line"/>
      <point x="342" y="1556" type="line"/>
      <point x="209" y="932" type="line"/>
      <point x="90" y="932" type="line"/>
      <point x="78" y="881" type="line"/>
      <point x="199" y="881" type="line"/>
      <point x="143" y="625" type="line"/>
      <point x="25" y="625" type="line"/>
      <point x="12" y="573" type="line"/>
      <point x="133" y="573" type="line"/>
    </contour>
  </outline>
</glyph>
<glyph name="uni2C72" format="2">
  <advance width="1278"/>
  <unicode hex="2C72"/>
  <anchor x="494" y="0" name="bottom"/>
  <anchor x="805" y="1462" name="top"/>
  <outline>
    <contour>
      <point x="152" y="0" type="line"/>
      <point x="229" y="0" type="line"/>
      <point x="686" y="1169" type="line" smooth="yes"/>
      <point x="707" y="1221"/>
      <point x="729" y="1282"/>
      <point x="748" y="1337" type="curve"/>
      <point x="752" y="1337" type="line"/>
      <point x="748" y="1270"/>
      <point x="745" y="1214"/>
      <point x="743" y="1149" type="curve" smooth="yes"/>
      <point x="705" y="0" type="line"/>
      <point x="782" y="0" type="line"/>
      <point x="1325" y="1362" type="line" smooth="yes"/>
      <point x="1343" y="1407"/>
      <point x="1358" y="1432"/>
      <point x="1393" y="1432" type="curve" smooth="yes"/>
      <point x="1415" y="1432"/>
      <point x="1425" y="1425"/>
      <point x="1434" y="1421" type="curve"/>
      <point x="1434" y="1475" type="line"/>
      <point x="1423" y="1479"/>
      <point x="1409" y="1483"/>
      <point x="1384" y="1483" type="curve" smooth="yes"/>
      <point x="1325" y="1483"/>
      <point x="1298" y="1440"/>
      <point x="1278" y="1389" type="curve" smooth="yes"/>
      <point x="877" y="369" type="line" smooth="yes"/>
      <point x="821" y="229"/>
      <point x="791" y="150"/>
      <point x="758" y="59" type="curve"/>
      <point x="754" y="59" type="line"/>
      <point x="760" y="162"/>
      <point x="762" y="246"/>
      <point x="766" y="350" type="curve" smooth="yes"/>
      <point x="803" y="1462" type="line"/>
      <point x="750" y="1462" type="line"/>
      <point x="295" y="311" type="line" smooth="yes"/>
      <point x="270" y="248"/>
      <point x="236" y="156"/>
      <point x="205" y="70" type="curve"/>
      <point x="201" y="70" type="line"/>
      <point x="203" y="119"/>
      <point x="205" y="188"/>
      <point x="207" y="289" type="curve" smooth="yes"/>
      <point x="225" y="1462" type="line"/>
      <point x="172" y="1462" type="line"/>
    </contour>
  </outline>
</glyph>
<glyph name="olowringinside" format="2">
  <advance width="727"/>
  <unicode hex="2C7A"/>
  <anchor x="250" y="0" name="bottom"/>
  <anchor x="479" y="1077" name="top"/>
  <outline>
    <contour>
      <point x="268" y="-20" type="curve" smooth="yes"/>
      <point x="549" y="-20"/>
      <point x="678" y="481"/>
      <point x="678" y="795" type="curve" smooth="yes"/>
      <point x="678" y="1006"/>
      <point x="602" y="1098"/>
      <point x="475" y="1098" type="curve" smooth="yes"/>
      <point x="162" y="1098"/>
      <point x="57" y="528"/>
      <point x="57" y="281" type="curve" smooth="yes"/>
      <point x="57" y="68"/>
      <point x="139" y="-20"/>
    </contour>
    <contour>
      <point x="270" y="-16" type="curve" smooth="yes"/>
      <point x="379" y="-16"/>
      <point x="444" y="55"/>
      <point x="444" y="158" type="curve" smooth="yes"/>
      <point x="444" y="258"/>
      <point x="381" y="328"/>
      <point x="270" y="328" type="curve" smooth="yes"/>
      <point x="168" y="328"/>
      <point x="98" y="252"/>
      <point x="98" y="154" type="curve" smooth="yes"/>
      <point x="98" y="57"/>
      <point x="158" y="-16"/>
    </contour>
    <contour>
      <point x="270" y="31" type="curve" smooth="yes"/>
      <point x="186" y="31"/>
      <point x="147" y="80"/>
      <point x="147" y="154" type="curve" smooth="yes"/>
      <point x="147" y="227"/>
      <point x="193" y="281"/>
      <point x="270" y="281" type="curve" smooth="yes"/>
      <point x="350" y="281"/>
      <point x="395" y="227"/>
      <point x="395" y="154" type="curve" smooth="yes"/>
      <point x="395" y="80"/>
      <point x="346" y="31"/>
    </contour>
    <contour>
      <point x="270" y="31" type="curve" smooth="yes"/>
      <point x="168" y="31"/>
      <point x="113" y="113"/>
      <point x="113" y="281" type="curve" smooth="yes"/>
      <point x="113" y="506"/>
      <point x="221" y="1047"/>
      <point x="471" y="1047" type="curve" smooth="yes"/>
      <point x="571" y="1047"/>
      <point x="623" y="963"/>
      <point x="623" y="795" type="curve" smooth="yes"/>
      <point x="623" y="526"/>
      <point x="512" y="31"/>
    </contour>
  </outline>
</glyph>
<glyph name="upwardsancora" format="2">
  <advance width="1536"/>
  <unicode hex="2E15"/>
  <outline>
    <contour>
      <point x="311" y="94" type="line"/>
      <point x="1106" y="889" type="line"/>
      <point x="1208" y="772"/>
      <point x="1223" y="668"/>
      <point x="1182" y="555" type="curve"/>
      <point x="1243" y="494" type="line"/>
      <point x="1323" y="680"/>
      <point x="1266" y="836"/>
      <point x="1133" y="969" type="curve"/>
      <point x="999" y="1102"/>
      <point x="844" y="1159"/>
      <point x="657" y="1079" type="curve"/>
      <point x="719" y="1018" type="line"/>
      <point x="831" y="1059"/>
      <point x="938" y="1044"/>
      <point x="1053" y="942" type="curve"/>
      <point x="258" y="147" type="line"/>
    </contour>
  </outline>
</glyph>
<glyph name="uni2E17" format="2">
  <advance width="543"/>
  <unicode hex="2E17"/>
  <outline>
    <contour>
      <point x="57" y="666" type="line"/>
      <point x="602" y="911" type="line"/>
      <point x="582" y="958" type="line"/>
      <point x="37" y="713" type="line"/>
    </contour>
    <contour>
      <point x="14" y="305" type="line"/>
      <point x="559" y="551" type="line"/>
      <point x="539" y="598" type="line"/>
      <point x="-6" y="352" type="line"/>
    </contour>
  </outline>
</glyph>
<glyph name="tildedotbelow" format="2">
  <advance width="786"/>
  <unicode hex="2E1F"/>
  <outline>
    <contour>
      <point x="483" y="393" type="curve" smooth="yes"/>
      <point x="516" y="393"/>
      <point x="530" y="426"/>
      <point x="530" y="459" type="curve" smooth="yes"/>
      <point x="530" y="492"/>
      <point x="516" y="526"/>
      <point x="483" y="526" type="curve" smooth="yes"/>
      <point x="446" y="526"/>
      <point x="432" y="496"/>
      <point x="432" y="459" type="curve" smooth="yes"/>
      <point x="432" y="418"/>
      <point x="446" y="393"/>
    </contour>
    <component base="asciitilde" xOffset="29"/>
  </outline>
</glyph>
<glyph name="rightverticalbarwithquill" format="2">
  <advance width="1128"/>
  <unicode hex="2E21"/>
  <outline>
    <contour>
      <point x="715" y="-494" type="line"/>
      <point x="782" y="-494" type="line"/>
      <point x="782" y="1556" type="line"/>
      <point x="715" y="1556" type="line"/>
      <point x="715" y="563" type="line"/>
      <point x="371" y="563" type="line"/>
      <point x="371" y="500" type="line"/>
      <point x="715" y="500" type="line"/>
    </contour>
  </outline>
</glyph>
<glyph name="ringpoint" format="2">
  <advance width="1171"/>
  <unicode hex="2E30"/>
  <outline>
    <contour>
      <point x="584" y="338" type="curve" smooth="yes"/>
      <point x="791" y="338"/>
      <point x="958" y="508"/>
      <point x="958" y="717" type="curve" smooth="yes"/>
      <point x="958" y="928"/>
      <point x="791" y="1096"/>
      <point x="584" y="1096" type="curve" smooth="yes"/>
      <point x="375" y="1096"/>
      <point x="205" y="928"/>
      <point x="205" y="717" type="curve" smooth="yes"/>
      <point x="205" y="508"/>
      <point x="375" y="338"/>
    </contour>
    <contour>
      <point x="584" y="395" type="curve" smooth="yes"/>
      <point x="403" y="395"/>
      <point x="260" y="541"/>
      <point x="260" y="719" type="curve" smooth="yes"/>
      <point x="260" y="895"/>
      <point x="403" y="1040"/>
      <point x="584" y="1040" type="curve" smooth="yes"/>
      <point x="762" y="1040"/>
      <point x="903" y="895"/>
      <point x="903" y="719" type="curve" smooth="yes"/>
      <point x="903" y="541"/>
      <point x="762" y="395"/>
    </contour>
  </outline>
</glyph>
<glyph name="threeemdash" format="2">
  <advance width="5173"/>
  <unicode hex="2E3B"/>
  <outline>
    <contour>
      <point x="70" y="530" type="line"/>
      <point x="5087" y="530" type="line"/>
      <point x="5097" y="582" type="line"/>
      <point x="78" y="582" type="line"/>
    </contour>
  </outline>
</glyph>
<glyph name="uni2E3E" format="2">
  <advance width="764"/>
  <unicode hex="2E3E"/>
  <outline>
    <contour>
      <point x="135" y="-635" type="line"/>
      <point x="346" y="-621"/>
      <point x="526" y="-565"/>
      <point x="526" y="-373" type="curve" smooth="yes"/>
      <point x="526" y="-154"/>
      <point x="197" y="-143"/>
      <point x="197" y="12" type="curve" smooth="yes"/>
      <point x="197" y="184"/>
      <point x="526" y="121"/>
      <point x="526" y="365" type="curve" smooth="yes"/>
      <point x="526" y="608"/>
      <point x="197" y="559"/>
      <point x="197" y="715" type="curve" smooth="yes"/>
      <point x="197" y="874"/>
      <point x="526" y="817"/>
      <point x="526" y="1065" type="curve" smooth="yes"/>
      <point x="526" y="1294"/>
      <point x="197" y="1286"/>
      <point x="197" y="1450" type="curve" smooth="yes"/>
      <point x="197" y="1563"/>
      <point x="344" y="1620"/>
      <point x="526" y="1638" type="curve"/>
      <point x="526" y="1712" type="line"/>
      <point x="315" y="1698"/>
      <point x="135" y="1642"/>
      <point x="135" y="1450" type="curve" smooth="yes"/>
      <point x="135" y="1233"/>
      <point x="465" y="1221"/>
      <point x="465" y="1065" type="curve" smooth="yes"/>
      <point x="465" y="891"/>
      <point x="135" y="954"/>
      <point x="135" y="715" type="curve" smooth="yes"/>
      <point x="135" y="473"/>
      <point x="465" y="543"/>
      <point x="465" y="365" type="curve" smooth="yes"/>
      <point x="465" y="203"/>
      <point x="135" y="262"/>
      <point x="135" y="12" type="curve"/>
      <point x="135" y="-217"/>
      <point x="465" y="-209"/>
      <point x="465" y="-371" type="curve" smooth="yes"/>
      <point x="465" y="-485"/>
      <point x="317" y="-543"/>
      <point x="135" y="-561" type="curve"/>
    </contour>
  </outline>
</glyph>
<glyph name="uniA642" format="2">
  <advance width="625"/>
  <unicode hex="A642"/>
  <outline>
    <contour>
      <point x="127" y="700" type="line"/>
      <point x="492" y="700" type="line"/>
      <point x="502" y="752" type="line"/>
      <point x="137" y="752" type="line"/>
    </contour>
    <component base="uniA640"/>
  </outline>
</glyph>
